CommonSans-Light.ufo
<glyph name="comma" format="2">
	<unicode hex="002C"/>
	<advance width="180"/>
	<outline>
		<contour>
			<point x="72" y="0" type="line"/>
			<point x="50" y="0" type="line"/>
			<point x="50" y="80" type="line"/>
			<point x="130" y="80" type="line"/>
			<point x="130" y="0" type="line"/>
			<point x="84" y="-130" type="line"/>
			<point x="50" y="-130" type="line"/>
		</contour>
	</outline>
</glyph>
<glyph name="hyphen" format="2">
	<unicode hex="002D"/>
	<advance width="320"/>
	<outline>
		<contour>
			<point x="270" y="210" type="line"/>
			<point x="50" y="210" type="line"/>
			<point x="50" y="275" type="line"/>
			<point x="270" y="275" type="line"/>
		</contour>
	</outline>
</glyph>
<glyph name="period" format="2">
	<unicode hex="002E"/>
	<advance width="150"/>
	<outline>
		<contour>
			<point x="92.5" y="0" type="line"/>
			<point x="57.5" y="0" type="line"/>
			<point x="57.5" y="80" type="line"/>
			<point x="92.5" y="80" type="line"/>
		</contour>
	</outline>
</glyph>
<glyph name="four" format="2">
	<unicode hex="0034"/>
	<advance width="521"/>
	<outline>
		<contour>
			<point x="370" y="620" type="line"/>
			<point x="360" y="620" type="line"/>
			<point x="140" y="253" type="line"/>
			<point x="370" y="253" type="line"/>
		</contour>
		<contour>
			<point x="370" y="0" type="line"/>
			<point x="370" y="173" type="line"/>
			<point x="50" y="173" type="line"/>
			<point x="50" y="253" type="line"/>
			<point x="318" y="700" type="line"/>
			<point x="460" y="700" type="line"/>
			<point x="460" y="253" type="line"/>
			<point x="520" y="253" type="line"/>
			<point x="520" y="173" type="line"/>
			<point x="460" y="173" type="line"/>
			<point x="460" y="0" type="line"/>
		</contour>
	</outline>
</glyph>
<glyph name="eight" format="2">
	<unicode hex="0038"/>
	<advance width="553"/>
	<outline>
		<contour>
			<point x="129" y="205" type="curve" smooth="yes"/>
			<point x="129" y="115"/>
			<point x="175" y="70"/>
			<point x="265" y="70" type="curve" smooth="yes"/>
			<point x="355" y="70"/>
			<point x="404" y="115"/>
			<point x="404" y="205" type="curve" smooth="yes"/>
			<point x="404" y="296"/>
			<point x="352" y="338"/>
			<point x="265" y="339" type="curve"/>
			<point x="187" y="339"/>
			<point x="129" y="280"/>
		</contour>
		<contour>
			<point x="140" y="520" type="curve" smooth="yes"/>
			<point name=".hr01" x="140" y="460"/>
			<point x="175" y="403"/>
			<point x="265" y="403" type="curve" smooth="yes"/>
			<point x="355" y="403"/>
			<point x="390" y="460"/>
			<point x="390" y="520" type="curve" smooth="yes"/>
			<point x="390" y="580"/>
			<point x="355" y="630"/>
			<point x="265" y="630" type="curve" smooth="yes"/>
			<point x="175" y="630"/>
			<point x="140" y="580"/>
		</contour>
		<contour>
			<point x="40" y="200" type="curve" smooth="yes"/>
			<point x="40" y="290"/>
			<point name=".hr02" x="89" y="341"/>
			<point x="140" y="370" type="curve"/>
			<point x="114" y="380"/>
			<point name=".hr03" x="50" y="407"/>
			<point x="50" y="527" type="curve" smooth="yes"/>
			<point x="50" y="630"/>
			<point x="136" y="710"/>
			<point x="265" y="710" type="curve" smooth="yes"/>
			<point x="411" y="710"/>
			<point x="480" y="630"/>
			<point x="480" y="527" type="curve" smooth="yes"/>
			<point x="480" y="407"/>
			<point x="423" y="386"/>
			<point x="367" y="370" type="curve"/>
			<point x="436" y="342"/>
			<point x="493" y="290"/>
			<point x="493" y="200" type="curve" smooth="yes"/>
			<point name=".hr04" x="493" y="70"/>
			<point x="415" y="-10"/>
			<point x="265" y="-10" type="curve" smooth="yes"/>
			<point x="115" y="-10"/>
			<point x="40" y="70"/>
		</contour>
	</outline>
</glyph>
<glyph name="colon" format="2">
	<unicode hex="003A"/>
	<advance width="180"/>
	<outline>
		<contour>
			<point x="130" y="370" type="line"/>
			<point x="50" y="370" type="line"/>
			<point x="50" y="450" type="line"/>
			<point x="130" y="450" type="line"/>
		</contour>
		<contour>
			<point x="130" y="0" type="line"/>
			<point x="50" y="0" type="line"/>
			<point x="50" y="80" type="line"/>
			<point x="130" y="80" type="line"/>
		</contour>
	</outline>
</glyph>
<glyph name="A" format="2">
	<unicode hex="0041"/>
	<advance width="523"/>
	<outline>
		<contour>
			<point x="364" y="276.25" type="line"/>
			<point x="261.25" y="597.75" type="line"/>
			<point x="158.5" y="276.25" type="line"/>
		</contour>
		<contour>
			<point x="451" y="0" type="line"/>
			<point x="382.25" y="216.25" type="line"/>
			<point x="140.25" y="216.25" type="line"/>
			<point x="71.5" y="0" type="line"/>
			<point x="10" y="0" type="line"/>
			<point x="226.25" y="680" type="line"/>
			<point x="295.75" y="680" type="line"/>
			<point x="512.5" y="0" type="line"/>
		</contour>
	</outline>
	<anchor name="top" x="258" y="740"/>
</glyph>
<glyph name="B" format="2">
	<unicode hex="0042"/>
	<advance width="603"/>
	<outline>
		<contour>
			<point x="311.75" y="341.75" type="curve" smooth="yes"/>
			<point x="149" y="341.75" type="line"/>
			<point x="149" y="55" type="line"/>
			<point x="286.25" y="55" type="line" smooth="yes"/>
			<point x="413.25" y="55"/>
			<point x="461.25" y="105.5"/>
			<point x="461.25" y="198.5" type="curve" smooth="yes"/>
			<point x="461.25" y="288.25"/>
			<point x="423.5" y="341.75"/>
		</contour>
		<contour>
			<point x="296" y="625" type="curve" smooth="yes"/>
			<point x="149" y="625" type="line"/>
			<point x="149" y="396.75" type="line"/>
			<point x="311.75" y="396.75" type="line" smooth="yes"/>
			<point x="377.5" y="396.75"/>
			<point x="422.5" y="431.5"/>
			<point name=".hr01" x="422.5" y="501.25" type="curve" smooth="yes"/>
			<point x="422.5" y="579"/>
			<point x="388.25" y="625"/>
		</contour>
		<contour>
			<point x="286.25" y="0" type="curve" smooth="yes"/>
			<point x="87.5" y="0" type="line"/>
			<point x="87.5" y="680" type="line"/>
			<point x="296" y="680" type="line" smooth="yes"/>
			<point x="433.75" y="680"/>
			<point x="484" y="614.5"/>
			<point x="484" y="508.25" type="curve" smooth="yes"/>
			<point x="484" y="453.5"/>
			<point x="462.5" y="396.5"/>
			<point x="384.5" y="373.25" type="curve"/>
			<point x="462.5" y="359.25"/>
			<point x="522.75" y="307.25"/>
			<point x="522.75" y="195.5" type="curve" smooth="yes"/>
			<point name=".hr02" x="522.75" y="68.5"/>
			<point x="452.75" y="0"/>
		</contour>
	</outline>
	<anchor name="top" x="270.5" y="740"/>
</glyph>
<glyph name="C" format="2">
	<unicode hex="0043"/>
	<advance width="690"/>
	<outline>
		<contour>
			<point x="355.5" y="635" type="curve" smooth="yes"/>
			<point x="215.25" y="635"/>
			<point x="129" y="521.75"/>
			<point x="129" y="340" type="curve" smooth="yes"/>
			<point x="129" y="158.25"/>
			<point x="215.25" y="45"/>
			<point x="355.5" y="45" type="curve" smooth="yes"/>
			<point x="456" y="45"/>
			<point x="535" y="101.5"/>
			<point x="556.25" y="194" type="curve"/>
			<point x="611.25" y="194" type="line"/>
			<point x="586.5" y="72.75"/>
			<point x="490.25" y="-10"/>
			<point x="355.5" y="-10" type="curve" smooth="yes"/>
			<point x="177.5" y="-10"/>
			<point x="67.5" y="123.75"/>
			<point x="67.5" y="340" type="curve" smooth="yes"/>
			<point x="67.5" y="556.25"/>
			<point x="177.5" y="690"/>
			<point x="355.5" y="690" type="curve" smooth="yes"/>
			<point x="495.5" y="690"/>
			<point x="593.25" y="603"/>
			<point x="622.5" y="451.5" type="curve"/>
			<point x="567.5" y="451.5" type="line"/>
			<point x="541.5" y="567.25"/>
			<point x="463.75" y="635"/>
		</contour>
	</outline>
	<anchor name="top" x="355.5" y="740"/>
</glyph>
<glyph name="D" format="2">
	<unicode hex="0044"/>
	<advance width="633"/>
	<outline>
		<contour>
			<point x="149" y="625" type="line"/>
			<point x="149" y="55" type="line"/>
			<point x="293" y="55" type="line" smooth="yes"/>
			<point x="435" y="55"/>
			<point x="504.25" y="176"/>
			<point x="504.25" y="340" type="curve" smooth="yes"/>
			<point x="504.25" y="513"/>
			<point x="437" y="625"/>
			<point x="293" y="625" type="curve" smooth="yes"/>
		</contour>
		<contour>
			<point x="87.5" y="680" type="line"/>
			<point x="293" y="680" type="line" smooth="yes"/>
			<point x="483" y="680"/>
			<point x="565" y="541.5"/>
			<point x="565" y="340" type="curve" smooth="yes"/>
			<point x="565" y="137.75"/>
			<point x="483.25" y="0"/>
			<point x="293" y="0" type="curve" smooth="yes"/>
			<point x="87.5" y="0" type="line"/>
		</contour>
	</outline>
	<anchor name="top" x="270.5" y="740"/>
</glyph>
<glyph name="F" format="2">
	<unicode hex="0046"/>
	<advance width="510"/>
	<outline>
		<contour>
			<point x="420" y="322.5" type="line"/>
			<point x="149" y="322.5" type="line"/>
			<point x="149" y="0" type="line"/>
			<point x="87.5" y="0" type="line"/>
			<point x="87.5" y="680" type="line"/>
			<point x="460" y="680" type="line"/>
			<point x="460" y="627.5" type="line"/>
			<point x="149" y="627.5" type="line"/>
			<point x="149" y="375" type="line"/>
			<point x="420" y="375" type="line"/>
		</contour>
	</outline>
	<anchor name="top" x="268" y="740"/>
</glyph>
<glyph name="G" format="2">
	<unicode hex="0047"/>
	<advance width="692"/>
	<outline>
		<contour>
			<point x="355.5" y="635" type="curve" smooth="yes"/>
			<point x="215.25" y="635"/>
			<point x="129" y="521.75"/>
			<point x="129" y="340" type="curve" smooth="yes"/>
			<point x="129" y="158.25"/>
			<point x="215.25" y="45"/>
			<point x="355.5" y="45" type="curve" smooth="yes"/>
			<point x="439" y="45"/>
			<point x="520.25" y="97.75"/>
			<point x="560.5" y="166.25" type="curve"/>
			<point x="560.5" y="267.5" type="line"/>
			<point x="377.75" y="267.5" type="line"/>
			<point x="377.75" y="312.5" type="line"/>
			<point x="614.5" y="312.5" type="line"/>
			<point x="614.5" y="0" type="line"/>
			<point x="560.5" y="0" type="line"/>
			<point x="560.5" y="90.5" type="line"/>
			<point x="519.75" y="34"/>
			<point x="433.75" y="-10"/>
			<point x="355.5" y="-10" type="curve" smooth="yes"/>
			<point x="177.5" y="-10"/>
			<point x="67.5" y="123.75"/>
			<point x="67.5" y="340" type="curve" smooth="yes"/>
			<point x="67.5" y="556.25"/>
			<point x="177.5" y="690"/>
			<point x="355.5" y="690" type="curve" smooth="yes"/>
			<point x="495.5" y="690"/>
			<point x="593.25" y="603"/>
			<point x="622.5" y="451.5" type="curve"/>
			<point x="567.5" y="451.5" type="line"/>
			<point x="541.5" y="567.25"/>
			<point x="463.75" y="635"/>
		</contour>
	</outline>
	<anchor name="top" x="348" y="740"/>
</glyph>
<glyph name="H" format="2">
	<unicode hex="0048"/>
	<advance width="617"/>
	<outline>
		<contour>
			<point x="529" y="680" type="line"/>
			<point x="529" y="0" type="line"/>
			<point x="467.5" y="0" type="line"/>
			<point x="467.5" y="317" type="line"/>
			<point x="149" y="317" type="line"/>
			<point x="149" y="0" type="line"/>
			<point x="87.5" y="0" type="line"/>
			<point x="87.5" y="680" type="line"/>
			<point x="149" y="680" type="line"/>
			<point x="149" y="372" type="line"/>
			<point x="467.5" y="372" type="line"/>
			<point x="467.5" y="680" type="line"/>
		</contour>
	</outline>
	<anchor name="top" x="308.25" y="740"/>
</glyph>
<glyph name="I" format="2">
	<unicode hex="0049"/>
	<advance width="237"/>
	<outline>
		<contour>
			<point x="149" y="0" type="line"/>
			<point x="87.5" y="0" type="line"/>
			<point x="87.5" y="680" type="line"/>
			<point x="149" y="680" type="line"/>
		</contour>
	</outline>
	<anchor name="top" x="117.25" y="740"/>
</glyph>
<glyph name="J" format="2">
	<unicode hex="004A"/>
	<advance width="297"/>
	<outline>
		<contour>
			<point x="86.5" y="0" type="curve" smooth="yes"/>
			<point x="50" y="0" type="line"/>
			<point x="50" y="55" type="line"/>
			<point x="76" y="55" type="line" smooth="yes"/>
			<point x="116" y="55"/>
			<point x="148" y="108.5"/>
			<point x="148" y="172.5" type="curve" smooth="yes"/>
			<point x="148" y="680" type="line"/>
			<point x="209.5" y="680" type="line"/>
			<point x="209.5" y="184" type="line" smooth="yes"/>
			<point x="209.5" y="72.5"/>
			<point x="170" y="0"/>
		</contour>
	</outline>
	<anchor name="top" x="176.25" y="740"/>
</glyph>
<glyph name="K" format="2">
	<unicode hex="004B"/>
	<advance width="550"/>
	<outline>
		<contour>
			<point x="149" y="293.75" type="line"/>
			<point x="149" y="0" type="line"/>
			<point x="87.5" y="0" type="line"/>
			<point x="87.5" y="680" type="line"/>
			<point x="149" y="680" type="line"/>
			<point x="149" y="347.75" type="line"/>
			<point x="241.25" y="364.75" type="line"/>
			<point x="430" y="680" type="line"/>
			<point x="499.5" y="680" type="line"/>
			<point x="299.5" y="350" type="line"/>
			<point x="539.5" y="0" type="line"/>
			<point x="465" y="0" type="line"/>
			<point x="249.5" y="315.25" type="line"/>
		</contour>
	</outline>
	<anchor name="top" x="265.25" y="740"/>
</glyph>
<glyph name="L" format="2">
	<unicode hex="004C"/>
	<advance width="548"/>
	<outline>
		<contour>
			<point x="149" y="680" type="line"/>
			<point x="149" y="55" type="line"/>
			<point x="463.25" y="55" type="line"/>
			<point x="463.25" y="0" type="line"/>
			<point x="87.5" y="0" type="line"/>
			<point x="87.5" y="680" type="line"/>
		</contour>
	</outline>
	<anchor name="top" x="117.75" y="740"/>
</glyph>
<glyph name="M" format="2">
	<unicode hex="004D"/>
	<advance width="781"/>
	<outline>
		<contour>
			<point x="693" y="680" type="line"/>
			<point x="693" y="0" type="line"/>
			<point x="631.5" y="0" type="line"/>
			<point x="631.5" y="539.5" type="line"/>
			<point x="424.75" y="0" type="line"/>
			<point x="355.25" y="0" type="line"/>
			<point x="149" y="538.75" type="line"/>
			<point x="149" y="0" type="line"/>
			<point x="87.5" y="0" type="line"/>
			<point x="87.5" y="680" type="line"/>
			<point x="155.5" y="680" type="line"/>
			<point x="366" y="143.75" type="line" smooth="yes"/>
			<point x="374.25" y="122.75"/>
			<point x="383.25" y="96.25"/>
			<point x="390.25" y="72" type="curve"/>
			<point x="397.25" y="96.25"/>
			<point x="406.25" y="122.75"/>
			<point x="414.5" y="143.75" type="curve" smooth="yes"/>
			<point x="625" y="680" type="line"/>
		</contour>
	</outline>
	<anchor name="top" x="391.75" y="740"/>
</glyph>
<glyph name="N" format="2">
	<unicode hex="004E"/>
	<advance width="642"/>
	<outline>
		<contour>
			<point x="149" y="515" type="curve" smooth="yes"/>
			<point x="149" y="0" type="line"/>
			<point x="87.5" y="0" type="line"/>
			<point x="87.5" y="680" type="line"/>
			<point x="155.5" y="680" type="line"/>
			<point x="495.25" y="100.75" type="line"/>
			<point x="493" y="125.25"/>
			<point x="493" y="147.75"/>
			<point x="493" y="165" type="curve" smooth="yes"/>
			<point x="493" y="680" type="line"/>
			<point x="554.5" y="680" type="line"/>
			<point x="554.5" y="0" type="line"/>
			<point x="486.5" y="0" type="line"/>
			<point x="146.75" y="579.25" type="line"/>
			<point x="149" y="554.75"/>
			<point x="149" y="532.25"/>
		</contour>
	</outline>
	<anchor name="top" x="314.75" y="740"/>
</glyph>
<glyph name="O" format="2">
	<unicode hex="004F"/>
	<advance width="711"/>
	<outline>
		<contour>
			<point x="355.5" y="635" type="curve" smooth="yes"/>
			<point x="215.25" y="635"/>
			<point x="129" y="521.75"/>
			<point x="129" y="340" type="curve" smooth="yes"/>
			<point x="129" y="158.25"/>
			<point x="215.25" y="45"/>
			<point x="355.5" y="45" type="curve" smooth="yes"/>
			<point x="495.75" y="45"/>
			<point x="582" y="158.25"/>
			<point x="582" y="340" type="curve" smooth="yes"/>
			<point x="582" y="521.75"/>
			<point x="495.75" y="635"/>
		</contour>
		<contour>
			<point x="355.5" y="-10" type="curve" smooth="yes"/>
			<point x="177.5" y="-10"/>
			<point x="67.5" y="123.75"/>
			<point x="67.5" y="340" type="curve" smooth="yes"/>
			<point x="67.5" y="556.25"/>
			<point x="177.5" y="690"/>
			<point x="355.5" y="690" type="curve" smooth="yes"/>
			<point x="533.5" y="690"/>
			<point x="643.5" y="556.25"/>
			<point x="643.5" y="340" type="curve" smooth="yes"/>
			<point x="643.5" y="123.75"/>
			<point x="533.5" y="-10"/>
		</contour>
	</outline>
	<anchor name="top" x="353.25" y="740"/>
</glyph>
<glyph name="P" format="2">
	<unicode hex="0050"/>
	<advance width="580"/>
	<outline>
		<contour>
			<point x="301.25" y="625" type="curve" smooth="yes"/>
			<point x="149" y="625" type="line"/>
			<point x="149" y="320" type="line"/>
			<point x="301.25" y="320" type="line" smooth="yes"/>
			<point x="416.25" y="320"/>
			<point x="466" y="397"/>
			<point x="466" y="479.5" type="curve" smooth="yes"/>
			<point x="466" y="568.5"/>
			<point x="407.25" y="625"/>
		</contour>
		<contour>
			<point x="278.75" y="265" type="curve" smooth="yes"/>
			<point x="149" y="265" type="line"/>
			<point x="149" y="0" type="line"/>
			<point x="87.5" y="0" type="line"/>
			<point x="87.5" y="680" type="line"/>
			<point x="278.75" y="680" type="line" smooth="yes"/>
			<point x="418.75" y="680"/>
			<point x="522.5" y="632"/>
			<point x="522.5" y="479.5" type="curve" smooth="yes"/>
			<point x="522.5" y="368.25"/>
			<point x="470.5" y="265"/>
		</contour>
	</outline>
	<anchor name="top" x="268" y="740"/>
</glyph>
<glyph name="Q" format="2">
	<unicode hex="0051"/>
	<advance width="711"/>
	<outline>
		<component base="O"/>
		<contour>
			<point x="576" y="-43" type="line"/>
			<point x="542.25" y="-73.5" type="line"/>
			<point x="379.75" y="93.25" type="line"/>
			<point x="413.5" y="123.75" type="line"/>
		</contour>
	</outline>
	<anchor name="top" x="355.5" y="740"/>
</glyph>
<glyph name="S" format="2">
	<unicode hex="0053"/>
	<advance width="626"/>
	<outline>
		<contour>
			<point x="67.5" y="200.5" type="curve"/>
			<point x="131.5" y="200.5" type="line"/>
			<point x="131.5" y="107.25"/>
			<point x="203.25" y="45"/>
			<point x="316.25" y="45" type="curve" smooth="yes"/>
			<point x="425.5" y="45"/>
			<point x="494.5" y="99.5"/>
			<point x="494.5" y="181.25" type="curve" smooth="yes"/>
			<point x="494.5" y="241.5"/>
			<point x="458.75" y="281.25"/>
			<point x="385.75" y="303" type="curve"/>
			<point x="201" y="367.75" type="line"/>
			<point x="131.25" y="391"/>
			<point name=".hr01" x="86.25" y="448"/>
			<point x="86.25" y="519.75" type="curve" smooth="yes"/>
			<point x="86.25" y="623.25"/>
			<point x="171.25" y="690"/>
			<point x="309.25" y="690" type="curve" smooth="yes"/>
			<point x="454" y="690"/>
			<point x="556.5" y="606.5"/>
			<point x="556.5" y="496" type="curve"/>
			<point x="492.5" y="496" type="line"/>
			<point x="492.5" y="577.25"/>
			<point x="416.75" y="635"/>
			<point x="295.75" y="635" type="curve" smooth="yes"/>
			<point x="205.75" y="635"/>
			<point x="150.25" y="591.75"/>
			<point x="150.25" y="520" type="curve" smooth="yes"/>
			<point x="150.25" y="464.75"/>
			<point x="185.75" y="421.25"/>
			<point x="246.75" y="402.5" type="curve"/>
			<point x="433.75" y="339" type="line" smooth="yes"/>
			<point x="517.25" y="311.25"/>
			<point x="558.5" y="259.75"/>
			<point x="558.5" y="178.25" type="curve" smooth="yes"/>
			<point x="558.5" y="61.5"/>
			<point x="470" y="-10"/>
			<point x="316.75" y="-10" type="curve" smooth="yes"/>
			<point x="164.25" y="-10"/>
			<point name=".hr02" x="67.5" y="73"/>
		</contour>
	</outline>
	<anchor name="top" x="296.75" y="740"/>
</glyph>
<glyph name="T" format="2">
	<unicode hex="0054"/>
	<advance width="480"/>
	<outline>
		<contour>
			<point x="270.75" y="625" type="line"/>
			<point x="270.75" y="0" type="line"/>
			<point x="209.25" y="0" type="line"/>
			<point x="209.25" y="625" type="line"/>
			<point x="10" y="625" type="line"/>
			<point x="10" y="680" type="line"/>
			<point x="470" y="680" type="line"/>
			<point x="470" y="625" type="line"/>
		</contour>
	</outline>
	<anchor name="top" x="237.25" y="740"/>
</glyph>
<glyph name="U" format="2">
	<unicode hex="0055"/>
	<advance width="580"/>
	<outline>
		<contour>
			<point x="50" y="240" type="curve" smooth="yes"/>
			<point x="50" y="680" type="line"/>
			<point x="110" y="680" type="line"/>
			<point x="110" y="265" type="line" smooth="yes"/>
			<point x="110" y="112.75"/>
			<point x="175" y="47.5"/>
			<point x="290" y="47.5" type="curve" smooth="yes"/>
			<point x="405" y="47.5"/>
			<point x="470" y="112.75"/>
			<point x="470" y="265" type="curve" smooth="yes"/>
			<point x="470" y="680" type="line"/>
			<point x="530" y="680" type="line"/>
			<point x="530" y="240" type="line" smooth="yes"/>
			<point x="530" y="74"/>
			<point x="445" y="-10"/>
			<point x="290" y="-10" type="curve" smooth="yes"/>
			<point x="135" y="-10"/>
			<point x="50" y="74"/>
		</contour>
	</outline>
	<anchor name="top" x="290.75" y="740"/>
</glyph>
<glyph name="V" format="2">
	<unicode hex="0056"/>
	<advance width="523"/>
	<outline>
		<contour>
			<point x="280.5" y="143.75" type="curve" smooth="yes"/>
			<point x="451" y="680" type="line"/>
			<point x="512.5" y="680" type="line"/>
			<point x="295.75" y="0" type="line"/>
			<point x="226.25" y="0" type="line"/>
			<point x="10" y="680" type="line"/>
			<point x="71.5" y="680" type="line"/>
			<point x="242" y="143.75" type="line" smooth="yes"/>
			<point x="249" y="122.5"/>
			<point x="256" y="97"/>
			<point x="261.25" y="73.25" type="curve"/>
			<point x="266.5" y="97"/>
			<point x="273.5" y="122.5"/>
		</contour>
	</outline>
	<anchor name="top" x="257.25" y="740"/>
</glyph>
<glyph name="W" format="2">
	<unicode hex="0057"/>
	<advance width="964"/>
	<outline>
		<contour>
			<point x="721.5" y="143.75" type="curve" smooth="yes"/>
			<point x="892" y="680" type="line"/>
			<point x="953.5" y="680" type="line"/>
			<point x="736.75" y="0" type="line"/>
			<point x="667.25" y="0" type="line"/>
			<point x="481.75" y="581.25" type="line"/>
			<point x="295.75" y="0" type="line"/>
			<point x="226.25" y="0" type="line"/>
			<point x="10" y="680" type="line"/>
			<point x="71.5" y="680" type="line"/>
			<point x="242" y="143.75" type="line" smooth="yes"/>
			<point x="249" y="122.5"/>
			<point x="256" y="97"/>
			<point x="261.25" y="73.25" type="curve"/>
			<point x="266.5" y="97"/>
			<point x="273.5" y="122.5"/>
			<point x="280.5" y="143.75" type="curve" smooth="yes"/>
			<point x="451" y="680" type="line"/>
			<point x="512.5" y="680" type="line"/>
			<point x="683" y="143.75" type="line" smooth="yes"/>
			<point x="690" y="122.5"/>
			<point x="697" y="97"/>
			<point x="702.25" y="73.25" type="curve"/>
			<point x="707.5" y="97"/>
			<point x="714.5" y="122.5"/>
		</contour>
	</outline>
	<anchor name="top" x="481.75" y="740"/>
</glyph>
<glyph name="X" format="2">
	<unicode hex="0058"/>
	<advance width="659"/>
	<outline>
		<contour>
			<point x="549" y="680" type="line"/>
			<point x="359.5" y="356" type="line"/>
			<point x="568" y="0" type="line"/>
			<point x="493.5" y="0" type="line"/>
			<point x="322" y="292.75" type="line"/>
			<point x="150.25" y="0" type="line"/>
			<point x="76.5" y="0" type="line"/>
			<point x="285.5" y="355.75" type="line"/>
			<point x="95" y="680" type="line"/>
			<point x="169" y="680" type="line"/>
			<point x="322.25" y="418.75" type="line"/>
			<point x="475.75" y="680" type="line"/>
		</contour>
	</outline>
	<anchor name="top" x="323.75" y="740"/>
</glyph>
<glyph name="Y" format="2">
	<unicode hex="0059"/>
	<advance width="594"/>
	<outline>
		<contour>
			<point x="266.25" y="285" type="line"/>
			<point x="54.25" y="680" type="line"/>
			<point x="117" y="680" type="line"/>
			<point x="296" y="350.5" type="line"/>
			<point x="298" y="350.5" type="line"/>
			<point x="479" y="680" type="line"/>
			<point x="540.5" y="680" type="line"/>
			<point x="327.75" y="285" type="line"/>
			<point x="327.75" y="0" type="line"/>
			<point x="266.25" y="0" type="line"/>
		</contour>
	</outline>
	<anchor name="top" x="299.25" y="740"/>
</glyph>
<glyph name="Z" format="2">
	<unicode hex="005A"/>
	<advance width="536"/>
	<outline>
		<contour>
			<point x="477.5" y="55" type="line"/>
			<point x="477.5" y="0" type="line"/>
			<point x="19.25" y="0" type="line"/>
			<point x="19.25" y="30.5" type="line"/>
			<point x="385.5" y="625" type="line"/>
			<point x="32.5" y="625" type="line"/>
			<point x="32.5" y="680" type="line"/>
			<point x="472" y="680" type="line"/>
			<point x="472" y="649.5" type="line"/>
			<point x="106.5" y="55" type="line"/>
		</contour>
	</outline>
	<anchor name="top" x="243.25" y="740"/>
</glyph>
<glyph name="bracketleft" format="2">
	<unicode hex="005B"/>
	<advance width="385"/>
	<outline>
		<contour>
			<point x="70" y="805" type="line"/>
			<point x="315" y="805" type="line"/>
			<point x="315" y="750" type="line"/>
			<point x="130" y="750" type="line"/>
			<point x="130" y="-51" type="line"/>
			<point x="315" y="-51" type="line"/>
			<point x="315" y="-106" type="line"/>
			<point x="70" y="-106" type="line"/>
		</contour>
	</outline>
</glyph>
<glyph name="backslash" format="2">
	<unicode hex="005C"/>
	<advance width="517"/>
	<outline>
		<contour>
			<point x="397" y="0" type="line"/>
			<point x="50" y="700" type="line"/>
			<point x="119" y="700" type="line"/>
			<point x="467" y="0" type="line"/>
		</contour>
	</outline>
</glyph>
<glyph name="bracketright" format="2">
	<unicode hex="005D"/>
	<advance width="385"/>
	<outline>
		<contour>
			<point x="70" y="-106" type="line"/>
			<point x="70" y="-51" type="line"/>
			<point x="255" y="-51" type="line"/>
			<point x="255" y="750" type="line"/>
			<point x="70" y="750" type="line"/>
			<point x="70" y="805" type="line"/>
			<point x="315" y="805" type="line"/>
			<point x="315" y="-106" type="line"/>
		</contour>
	</outline>
</glyph>
<glyph name="asciicircum" format="2">
	<unicode hex="005E"/>
	<advance width="465"/>
	<outline>
		<contour>
			<point x="46.75" y="520" type="line"/>
			<point x="194.25" y="800" type="line"/>
			<point x="270.75" y="800" type="line"/>
			<point x="418.25" y="520" type="line"/>
			<point x="349.75" y="520" type="line"/>
			<point x="222.75" y="762" type="line"/>
			<point x="244.75" y="762" type="line"/>
			<point x="117.75" y="520" type="line"/>
		</contour>
	</outline>
</glyph>
<glyph name="underscore" format="2">
	<unicode hex="005F"/>
	<advance width="545"/>
	<outline>
		<contour>
			<point x="20" y="-105" type="line"/>
			<point x="20" y="-50" type="line"/>
			<point x="525" y="-50" type="line"/>
			<point x="525" y="-105" type="line"/>
		</contour>
	</outline>
</glyph>
<glyph name="grave" format="2">
	<unicode hex="0060"/>
	<advance width="254"/>
	<outline>
		<contour>
			<point x="119.5" y="520" type="line"/>
			<point x="45" y="705" type="line"/>
			<point x="121" y="705" type="line"/>
			<point x="171" y="520" type="line"/>
		</contour>
	</outline>
</glyph>
<glyph name="a" format="2">
	<unicode hex="0061"/>
	<advance width="455"/>
	<outline>
		<contour>
			<point x="47.5" y="123" type="curve" smooth="yes"/>
			<point x="47.5" y="206.25"/>
			<point x="97" y="244.75"/>
			<point x="234.25" y="268.25" type="curve"/>
			<point x="350.5" y="289.75" type="line"/>
			<point x="350.5" y="260.5" type="line"/>
			<point x="237.5" y="236.5" type="line" smooth="yes"/>
			<point x="138" y="215.5"/>
			<point x="110" y="189.75"/>
			<point x="110" y="127" type="curve" smooth="yes"/>
			<point x="110" y="72.25"/>
			<point x="157.5" y="35"/>
			<point x="213.25" y="35" type="curve" smooth="yes"/>
			<point x="254" y="35"/>
			<point x="307.5" y="59"/>
			<point x="342" y="94" type="curve" smooth="yes"/>
			<point x="354.75" y="107.5" type="line"/>
			<point x="354.75" y="51" type="line"/>
			<point x="338.75" y="51" type="line"/>
			<point x="295.25" y="11.5"/>
			<point x="244.25" y="-11"/>
			<point x="184.5" y="-11" type="curve" smooth="yes"/>
			<point x="103.5" y="-11"/>
			<point x="47.5" y="44"/>
		</contour>
		<contour>
			<point x="351.5" y="0" type="line"/>
			<point x="342" y="54" type="line"/>
			<point x="342" y="340" type="line" smooth="yes"/>
			<point x="342" y="397.5"/>
			<point x="306.5" y="428.75"/>
			<point x="237" y="428.75" type="curve" smooth="yes"/>
			<point x="179.5" y="428.75"/>
			<point x="138" y="388.5"/>
			<point x="132.5" y="330" type="curve"/>
			<point name=".hr01" x="71.5" y="330" type="line"/>
			<point x="79.25" y="413.5"/>
			<point x="143.75" y="471"/>
			<point x="243" y="471" type="curve" smooth="yes"/>
			<point x="344.75" y="471"/>
			<point x="402" y="417.75"/>
			<point x="402" y="344" type="curve" smooth="yes"/>
			<point x="402" y="0" type="line"/>
		</contour>
	</outline>
	<anchor name="top" x="241" y="520"/>
</glyph>
<glyph name="b" format="2">
	<unicode hex="0062"/>
	<advance width="522"/>
	<outline>
		<contour>
			<point x="123.75" y="247" type="curve" smooth="yes"/>
			<point x="123.75" y="221" type="line" smooth="yes"/>
			<point x="123.75" y="90.5"/>
			<point x="210" y="35"/>
			<point x="271.25" y="35" type="curve" smooth="yes"/>
			<point x="345" y="35"/>
			<point x="422" y="101"/>
			<point x="422" y="234" type="curve" smooth="yes"/>
			<point x="422" y="361.75"/>
			<point x="356.5" y="425"/>
			<point x="270" y="425" type="curve" smooth="yes"/>
			<point x="193.75" y="425"/>
			<point x="123.75" y="346.25"/>
		</contour>
		<contour>
			<point x="114.5" y="109.25" type="line"/>
			<point x="113.75" y="326.25" type="line"/>
			<point x="123.75" y="349.25" type="line" smooth="yes"/>
			<point x="156" y="426.75"/>
			<point x="211.75" y="471"/>
			<point x="287.75" y="471" type="curve" smooth="yes"/>
			<point x="398.75" y="471"/>
			<point x="484.5" y="383.25"/>
			<point x="484.5" y="234" type="curve" smooth="yes"/>
			<point x="484.5" y="78.5"/>
			<point x="378.75" y="-11"/>
			<point x="286.75" y="-11" type="curve" smooth="yes"/>
			<point x="219.75" y="-11"/>
			<point x="157.75" y="26"/>
			<point x="123.75" y="109.25" type="curve"/>
		</contour>
		<contour>
			<point x="63.75" y="0" type="line"/>
			<point x="63.75" y="700" type="line"/>
			<point x="123.75" y="700" type="line"/>
			<point x="123.75" y="109.25" type="line"/>
			<point x="121.75" y="109.25" type="line"/>
			<point x="108.25" y="0" type="line"/>
		</contour>
	</outline>
</glyph>
<glyph name="d" format="2">
	<unicode hex="0064"/>
	<advance width="491"/>
	<outline>
		<contour>
			<point x="115" y="230" type="curve" smooth="yes"/>
			<point x="115" y="123"/>
			<point x="156" y="55"/>
			<point x="245" y="55" type="curve" smooth="yes"/>
			<point x="324" y="55"/>
			<point x="365" y="123"/>
			<point x="365" y="230" type="curve" smooth="yes"/>
			<point x="365" y="321"/>
			<point x="330" y="405"/>
			<point x="245" y="405" type="curve" smooth="yes"/>
			<point x="146" y="405"/>
			<point x="115" y="320"/>
		</contour>
		<contour>
			<point x="36" y="231" type="curve" smooth="yes"/>
			<point x="36" y="345"/>
			<point x="92" y="471"/>
			<point x="226" y="471" type="curve" smooth="yes"/>
			<point x="286" y="471"/>
			<point x="338" y="437"/>
			<point x="366" y="381" type="curve"/>
			<point x="366" y="700" type="line"/>
			<point x="446" y="700" type="line"/>
			<point x="446" y="0" type="line"/>
			<point x="386" y="0" type="line"/>
			<point x="366" y="72" type="line"/>
			<point x="343" y="21"/>
			<point x="283" y="-10"/>
			<point x="225" y="-10" type="curve" smooth="yes"/>
			<point x="92" y="-10"/>
			<point x="36" y="125"/>
		</contour>
	</outline>
</glyph>
<glyph name="f" format="2">
	<unicode hex="0066"/>
	<advance width="341"/>
	<outline>
		<contour>
			<point x="110" y="400" type="line"/>
			<point x="35" y="400" type="line"/>
			<point x="35" y="460" type="line"/>
			<point x="110" y="460" type="line"/>
			<point x="110" y="500" type="line" smooth="yes"/>
			<point x="110" y="642"/>
			<point x="121" y="692"/>
			<point x="272" y="700" type="curve"/>
			<point x="306" y="700" type="line"/>
			<point x="306" y="635" type="line"/>
			<point x="272" y="635" type="line"/>
			<point x="203" y="634"/>
			<point x="190" y="606"/>
			<point x="190" y="500" type="curve" smooth="yes"/>
			<point x="190" y="460" type="line"/>
			<point x="274" y="460" type="line"/>
			<point x="274" y="400" type="line"/>
			<point x="190" y="400" type="line"/>
			<point x="190" y="0" type="line"/>
			<point x="110" y="0" type="line"/>
		</contour>
	</outline>
</glyph>
<glyph name="h" format="2">
	<unicode hex="0068"/>
	<advance width="536"/>
	<outline>
		<contour>
			<point x="124" y="292.75" type="line"/>
			<point x="124" y="367" type="line"/>
			<point x="140" y="367" type="line"/>
			<point x="180.75" y="433.75"/>
			<point x="242.5" y="471"/>
			<point x="308.75" y="471" type="curve" smooth="yes"/>
			<point x="400.5" y="471"/>
			<point x="456.25" y="410.75"/>
			<point x="456.25" y="311" type="curve" smooth="yes"/>
			<point x="456.25" y="0" type="line"/>
			<point x="396.25" y="0" type="line"/>
			<point x="396.25" y="296.75" type="line" smooth="yes"/>
			<point x="396.25" y="375.75"/>
			<point x="350.5" y="424"/>
			<point x="281.5" y="424" type="curve" smooth="yes"/>
			<point x="211.25" y="424"/>
			<point x="143" y="360"/>
			<point x="140" y="292.75" type="curve"/>
		</contour>
		<contour>
			<point x="80" y="0" type="line"/>
			<point x="80" y="700" type="line"/>
			<point x="140" y="700" type="line"/>
			<point x="140" y="0" type="line"/>
		</contour>
	</outline>
</glyph>
<glyph name="i" format="2">
	<unicode hex="0069"/>
	<advance width="240"/>
	<outline>
		<contour>
			<point x="150" y="0" type="line"/>
			<point x="90" y="0" type="line"/>
			<point x="90" y="460" type="line"/>
			<point x="150" y="460" type="line"/>
		</contour>
		<contour>
			<point x="150" y="520" type="line"/>
			<point x="90" y="520" type="line"/>
			<point x="90" y="622.5" type="line"/>
			<point x="150" y="622.5" type="line"/>
		</contour>
	</outline>
</glyph>
<glyph name="k" format="2">
	<unicode hex="006B"/>
	<advance width="483"/>
	<outline>
		<contour>
			<point x="105" y="208.25" type="line"/>
			<point x="105" y="269.5" type="line"/>
			<point x="173.25" y="288.25" type="line"/>
			<point x="305.5" y="460" type="line"/>
			<point x="381.25" y="460" type="line"/>
			<point x="230.25" y="265.75" type="line"/>
			<point x="397.5" y="0" type="line"/>
			<point x="323.75" y="0" type="line"/>
			<point x="179.75" y="228.25" type="line"/>
		</contour>
		<contour>
			<point x="45" y="0" type="line"/>
			<point x="45" y="700" type="line"/>
			<point x="105" y="700" type="line"/>
			<point x="105" y="0" type="line"/>
		</contour>
	</outline>
</glyph>
<glyph name="l" format="2">
	<unicode hex="006C"/>
	<advance width="220"/>
	<outline>
		<contour>
			<point x="140" y="0" type="line"/>
			<point x="80" y="0" type="line"/>
			<point x="80" y="700" type="line"/>
			<point x="140" y="700" type="line"/>
		</contour>
	</outline>
</glyph>
<glyph name="m" format="2">
	<unicode hex="006D"/>
	<advance width="836"/>
	<outline>
		<contour>
			<point x="160" y="310" type="curve"/>
			<point x="160" y="0" type="line"/>
			<point x="80" y="0" type="line"/>
			<point x="80" y="460" type="line"/>
			<point x="140" y="460" type="line"/>
			<point x="156" y="379" type="line"/>
			<point x="190" y="425"/>
			<point x="236" y="470"/>
			<point x="308" y="470" type="curve" smooth="yes"/>
			<point x="402" y="470"/>
			<point x="437" y="424"/>
			<point x="450" y="374" type="curve"/>
			<point x="484" y="422"/>
			<point x="531" y="470"/>
			<point x="606" y="470" type="curve" smooth="yes"/>
			<point x="750" y="470"/>
			<point x="756" y="362"/>
			<point x="756" y="295" type="curve" smooth="yes"/>
			<point x="756" y="0" type="line"/>
			<point x="676" y="0" type="line"/>
			<point x="676" y="295" type="line" smooth="yes"/>
			<point x="676" y="339"/>
			<point x="667" y="405"/>
			<point x="584" y="405" type="curve" smooth="yes"/>
			<point x="542" y="405"/>
			<point x="482" y="372"/>
			<point x="458" y="309" type="curve"/>
			<point x="458" y="304"/>
			<point x="458" y="300"/>
			<point x="458" y="295" type="curve" smooth="yes"/>
			<point x="458" y="0" type="line"/>
			<point x="378" y="0" type="line"/>
			<point x="378" y="295" type="line" smooth="yes"/>
			<point x="378" y="339"/>
			<point x="369" y="405"/>
			<point x="286" y="405" type="curve" smooth="yes"/>
			<point x="244" y="405"/>
			<point x="184" y="372"/>
		</contour>
	</outline>
</glyph>
<glyph name="n" format="2">
	<unicode hex="006E"/>
	<advance width="536"/>
	<outline>
		<contour>
			<point x="124" y="292.75" type="line"/>
			<point x="124" y="367" type="line"/>
			<point x="140" y="367" type="line"/>
			<point x="180.75" y="433.75"/>
			<point x="242.5" y="471"/>
			<point x="308.75" y="471" type="curve" smooth="yes"/>
			<point x="400.5" y="471"/>
			<point x="456.25" y="410.75"/>
			<point x="456.25" y="311" type="curve" smooth="yes"/>
			<point x="456.25" y="0" type="line"/>
			<point x="396.25" y="0" type="line"/>
			<point x="396.25" y="296.75" type="line" smooth="yes"/>
			<point x="396.25" y="375.75"/>
			<point x="350.5" y="424"/>
			<point x="281.5" y="424" type="curve" smooth="yes"/>
			<point x="211.25" y="424"/>
			<point x="143" y="360"/>
			<point x="140" y="292.75" type="curve"/>
		</contour>
		<contour>
			<point x="80" y="0" type="line"/>
			<point x="80" y="460" type="line"/>
			<point x="132" y="460" type="line"/>
			<point x="138.25" y="367" type="line"/>
			<point x="140" y="367" type="line"/>
			<point x="140" y="0" type="line"/>
		</contour>
	</outline>
</glyph>
<glyph name="o" format="2">
	<unicode hex="006F"/>
	<advance width="508"/>
	<outline>
		<contour>
			<point x="96.25" y="230" type="curve" smooth="yes"/>
			<point x="96.25" y="105.75"/>
			<point x="160.5" y="30"/>
			<point x="253.75" y="30" type="curve" smooth="yes"/>
			<point x="346.5" y="30"/>
			<point x="411.25" y="105"/>
			<point x="411.25" y="230" type="curve" smooth="yes"/>
			<point x="411.25" y="354.25"/>
			<point x="347" y="430"/>
			<point x="253.75" y="430" type="curve" smooth="yes"/>
			<point x="161" y="430"/>
			<point x="96.25" y="355"/>
		</contour>
		<contour>
			<point x="33.75" y="230" type="curve" smooth="yes"/>
			<point x="33.75" y="373.25"/>
			<point x="116.5" y="471"/>
			<point x="253.75" y="471" type="curve" smooth="yes"/>
			<point x="391.5" y="471"/>
			<point x="473.75" y="372.75"/>
			<point x="473.75" y="230" type="curve" smooth="yes"/>
			<point x="473.75" y="86.75"/>
			<point x="391" y="-11"/>
			<point x="253.75" y="-11" type="curve" smooth="yes"/>
			<point x="116" y="-11"/>
			<point x="33.75" y="87.25"/>
		</contour>
	</outline>
	<anchor name="top" x="250.75" y="527.5"/>
</glyph>
<glyph name="p" format="2">
	<unicode hex="0070"/>
	<advance width="502"/>
	<outline>
		<contour>
			<point x="136.25" y="230.5" type="curve" smooth="yes"/>
			<point x="136.25" y="226" type="line" smooth="yes"/>
			<point x="136.25" y="123"/>
			<point x="187.25" y="55"/>
			<point x="256.25" y="55" type="curve" smooth="yes"/>
			<point x="349.25" y="55"/>
			<point x="387.25" y="123"/>
			<point x="387.25" y="231" type="curve" smooth="yes"/>
			<point x="387.25" y="306"/>
			<point x="368.25" y="405"/>
			<point x="256.25" y="405" type="curve" smooth="yes"/>
			<point x="173.25" y="405"/>
			<point x="136.25" y="314.5"/>
		</contour>
		<contour>
			<point x="56.25" y="-200" type="line"/>
			<point x="56.25" y="460" type="line"/>
			<point x="116.25" y="460" type="line"/>
			<point x="134" y="376.5" type="line"/>
			<point x="161.5" y="436"/>
			<point x="211.5" y="470"/>
			<point x="281.25" y="470" type="curve" smooth="yes"/>
			<point x="406.25" y="470"/>
			<point x="467.25" y="350"/>
			<point x="467.25" y="231" type="curve" smooth="yes"/>
			<point x="467.25" y="111"/>
			<point x="403.25" y="-10"/>
			<point x="277.25" y="-10" type="curve" smooth="yes"/>
			<point x="211.75" y="-10"/>
			<point x="161.25" y="18.75"/>
			<point x="136.25" y="67.25" type="curve"/>
			<point x="136.25" y="-200" type="line"/>
		</contour>
	</outline>
</glyph>
<glyph name="r" format="2">
	<unicode hex="0072"/>
	<advance width="370"/>
	<outline>
		<contour>
			<point x="125" y="0" type="line"/>
			<point x="45" y="0" type="line"/>
			<point x="45" y="460" type="line"/>
			<point x="125" y="460" type="line"/>
			<point x="125" y="370" type="line"/>
			<point x="148" y="421"/>
			<point x="212" y="470"/>
			<point x="272" y="470" type="curve" smooth="yes"/>
			<point x="295" y="470"/>
			<point x="317" y="466"/>
			<point x="335" y="460" type="curve"/>
			<point x="335" y="359" type="line"/>
			<point x="312" y="379"/>
			<point x="278" y="390"/>
			<point x="246" y="390" type="curve" smooth="yes"/>
			<point x="172" y="390"/>
			<point x="134" y="293"/>
			<point x="125" y="233" type="curve"/>
		</contour>
	</outline>
</glyph>
<glyph name="dieresis" format="2">
	<unicode hex="00A8"/>
	<advance width="310"/>
	<outline>
		<contour>
			<point x="92.5" y="520" type="line"/>
			<point x="57.5" y="520" type="line"/>
			<point x="57.5" y="600" type="line"/>
			<point x="92.5" y="600" type="line"/>
		</contour>
		<contour>
			<point x="252" y="520" type="line"/>
			<point x="217" y="520" type="line"/>
			<point x="217" y="600" type="line"/>
			<point x="252" y="600" type="line"/>
		</contour>
	</outline>
</glyph>
<glyph name="logicalnot" format="2">
	<unicode hex="00AC"/>
	<advance width="520"/>
	<outline>
		<contour>
			<point x="397" y="375" type="line"/>
			<point x="49" y="375" type="line"/>
			<point x="49" y="440" type="line"/>
			<point x="471" y="440" type="line"/>
			<point x="471" y="181" type="line"/>
			<point x="397" y="181" type="line"/>
		</contour>
	</outline>
</glyph>
<glyph name="threesuperior" format="2">
	<unicode hex="00B3"/>
	<advance width="296"/>
	<outline>
		<contour>
			<point x="14" y="404" type="curve"/>
			<point x="77" y="410" type="line"/>
			<point x="84" y="392"/>
			<point x="95" y="361"/>
			<point x="144" y="361" type="curve" smooth="yes"/>
			<point x="182" y="361"/>
			<point x="213" y="384"/>
			<point x="213" y="419" type="curve" smooth="yes"/>
			<point x="213" y="454"/>
			<point x="186" y="464"/>
			<point x="160" y="466" type="curve"/>
			<point x="154" y="467"/>
			<point x="149" y="467"/>
			<point x="144" y="467" type="curve" smooth="yes"/>
			<point x="136" y="467"/>
			<point x="132" y="467"/>
			<point x="120" y="466" type="curve"/>
			<point x="129" y="514" type="line"/>
			<point x="151" y="514"/>
			<point name=".hr01" x="198" y="520"/>
			<point x="198" y="558" type="curve" smooth="yes"/>
			<point x="198" y="577"/>
			<point x="183" y="596"/>
			<point x="145" y="596" type="curve" smooth="yes"/>
			<point x="105" y="596"/>
			<point x="92" y="577"/>
			<point x="84" y="553" type="curve"/>
			<point x="21" y="562" type="line"/>
			<point x="38" y="612"/>
			<point x="68" y="645"/>
			<point x="146" y="645" type="curve" smooth="yes"/>
			<point x="163" y="645"/>
			<point x="265" y="645"/>
			<point x="265" y="564" type="curve" smooth="yes"/>
			<point x="265" y="534"/>
			<point x="248" y="506"/>
			<point x="206" y="495" type="curve"/>
			<point x="206" y="485"/>
			<point name=".hr02" x="280" y="460"/>
			<point x="280" y="411" type="curve" smooth="yes"/>
			<point x="280" y="360"/>
			<point x="238" y="311"/>
			<point x="149" y="311" type="curve" smooth="yes"/>
			<point x="63" y="311"/>
			<point x="22" y="351"/>
		</contour>
	</outline>
</glyph>
<glyph name="acute" format="2">
	<unicode hex="00B4"/>
	<advance width="291"/>
	<outline>
		<contour>
			<point x="140.5" y="512.5" type="line"/>
			<point x="85" y="512.5" type="line"/>
			<point x="140" y="700" type="line"/>
			<point x="211.5" y="700" type="line"/>
		</contour>
	</outline>
</glyph>
<glyph name="Aring" format="2">
	<unicode hex="00C5"/>
	<advance width="523"/>
	<outline>
		<contour>
			<point x="364" y="276.25" type="line"/>
			<point x="261.25" y="597.75" type="line"/>
			<point x="158.5" y="276.25" type="line"/>
		</contour>
		<contour>
			<point x="230.25" y="859" type="curve" smooth="yes"/>
			<point x="230.25" y="842"/>
			<point x="244.25" y="828"/>
			<point x="261.25" y="828" type="curve" smooth="yes"/>
			<point x="278.25" y="828"/>
			<point x="292.25" y="842"/>
			<point x="292.25" y="859" type="curve" smooth="yes"/>
			<point x="292.25" y="876"/>
			<point x="278.25" y="890"/>
			<point x="261.25" y="890" type="curve" smooth="yes"/>
			<point x="244.25" y="890"/>
			<point x="230.25" y="876"/>
		</contour>
		<contour>
			<point x="451" y="0" type="line"/>
			<point x="382.25" y="216.25" type="line"/>
			<point x="140.25" y="216.25" type="line"/>
			<point x="71.5" y="0" type="line"/>
			<point x="10" y="0" type="line"/>
			<point x="226.25" y="680" type="line"/>
			<point x="295.75" y="680" type="line"/>
			<point x="512.5" y="0" type="line"/>
		</contour>
		<contour>
			<point x="183.25" y="859" type="curve" smooth="yes"/>
			<point x="183.25" y="902"/>
			<point x="218.25" y="937"/>
			<point x="261.25" y="937" type="curve" smooth="yes"/>
			<point x="304.25" y="937"/>
			<point x="339.25" y="902"/>
			<point x="339.25" y="859" type="curve" smooth="yes"/>
			<point x="339.25" y="816"/>
			<point x="304.25" y="781"/>
			<point x="261.25" y="781" type="curve" smooth="yes"/>
			<point x="218.25" y="781"/>
			<point x="183.25" y="816"/>
		</contour>
	</outline>
</glyph>
<glyph name="Ccedilla" format="2">
	<unicode hex="00C7"/>
	<advance width="690"/>
	<outline>
		<contour>
			<point x="260.5" y="-193" type="curve"/>
			<point x="260.5" y="-164" type="line"/>
			<point x="273.5" y="-167"/>
			<point x="294.5" y="-170"/>
			<point x="314.5" y="-170" type="curve" smooth="yes"/>
			<point x="355.5" y="-170"/>
			<point x="373.5" y="-148"/>
			<point x="373.5" y="-118" type="curve" smooth="yes"/>
			<point x="373.5" y="-82"/>
			<point x="324.5" y="-70"/>
			<point x="294.5" y="-67" type="curve"/>
			<point x="321.75" y="-8.75" type="line"/>
			<point x="164" y="7.25"/>
			<point x="67.5" y="137.25"/>
			<point x="67.5" y="340" type="curve" smooth="yes"/>
			<point x="67.5" y="556.25"/>
			<point x="177.5" y="690"/>
			<point x="355.5" y="690" type="curve" smooth="yes"/>
			<point x="495.5" y="690"/>
			<point x="593.25" y="603"/>
			<point x="622.5" y="451.5" type="curve"/>
			<point x="567.5" y="451.5" type="line"/>
			<point x="541.5" y="567.25"/>
			<point x="463.75" y="635"/>
			<point x="355.5" y="635" type="curve" smooth="yes"/>
			<point x="215.25" y="635"/>
			<point x="129" y="521.75"/>
			<point x="129" y="340" type="curve" smooth="yes"/>
			<point x="129" y="158.25"/>
			<point x="215.25" y="45"/>
			<point x="355.5" y="45" type="curve" smooth="yes"/>
			<point x="456" y="45"/>
			<point x="535" y="101.5"/>
			<point x="556.25" y="194" type="curve"/>
			<point x="611.25" y="194" type="line"/>
			<point x="588.25" y="80.5"/>
			<point x="503" y="1"/>
			<point x="382.25" y="-8.5" type="curve"/>
			<point x="363.5" y="-46" type="line"/>
			<point x="386.5" y="-54"/>
			<point x="430.5" y="-70"/>
			<point x="430.5" y="-123" type="curve" smooth="yes"/>
			<point x="430.5" y="-177"/>
			<point x="385.5" y="-209"/>
			<point x="330.5" y="-209" type="curve" smooth="yes"/>
			<point x="297.5" y="-209"/>
			<point x="274.5" y="-200"/>
		</contour>
	</outline>
</glyph>
<glyph name="Ntilde" format="2">
	<unicode hex="00D1"/>
	<advance width="642"/>
	<outline>
		<contour>
			<point x="149" y="515" type="curve" smooth="yes"/>
			<point x="149" y="0" type="line"/>
			<point x="87.5" y="0" type="line"/>
			<point x="87.5" y="680" type="line"/>
			<point x="155.5" y="680" type="line"/>
			<point x="495.25" y="100.75" type="line"/>
			<point x="493" y="125.25"/>
			<point x="493" y="147.75"/>
			<point x="493" y="165" type="curve" smooth="yes"/>
			<point x="493" y="680" type="line"/>
			<point x="554.5" y="680" type="line"/>
			<point x="554.5" y="0" type="line"/>
			<point x="486.5" y="0" type="line"/>
			<point x="146.75" y="579.25" type="line"/>
			<point x="149" y="554.75"/>
			<point x="149" y="532.25"/>
		</contour>
		<contour>
			<point x="225" y="760" type="curve"/>
			<point x="175" y="760" type="line"/>
			<point x="189" y="847"/>
			<point x="225" y="880"/>
			<point name=".hr01" x="265" y="880" type="curve" smooth="yes"/>
			<point x="290" y="880"/>
			<point x="312" y="870"/>
			<point x="334" y="859" type="curve"/>
			<point x="350" y="850"/>
			<point x="371" y="840"/>
			<point name=".hr02" x="391" y="840" type="curve" smooth="yes"/>
			<point x="411" y="840"/>
			<point x="426" y="852"/>
			<point x="431" y="880" type="curve"/>
			<point name=".hr03" x="481" y="880" type="line"/>
			<point x="467" y="793"/>
			<point x="431" y="760"/>
			<point name=".hr04" x="391" y="760" type="curve" smooth="yes"/>
			<point x="366" y="760"/>
			<point x="345" y="769"/>
			<point x="324" y="780" type="curve" smooth="yes"/>
			<point x="307" y="789"/>
			<point x="285" y="800"/>
			<point name=".hr05" x="265" y="800" type="curve" smooth="yes"/>
			<point x="245" y="800"/>
			<point x="230" y="788"/>
		</contour>
	</outline>
</glyph>
<glyph name="ucircumflex" format="2">
	<unicode hex="00FB"/>
	<advance width="478"/>
	<outline>
		<contour>
			<point x="354" y="154" type="curve"/>
			<point x="354" y="460" type="line"/>
			<point x="433" y="460" type="line"/>
			<point x="433" y="0" type="line"/>
			<point x="374" y="0" type="line"/>
			<point x="357" y="83" type="line"/>
			<point x="323" y="36"/>
			<point x="275" y="-10"/>
			<point x="200" y="-10" type="curve" smooth="yes"/>
			<point x="51" y="-10"/>
			<point x="45" y="98"/>
			<point x="45" y="165" type="curve" smooth="yes"/>
			<point x="45" y="460" type="line"/>
			<point x="125" y="460" type="line"/>
			<point x="125" y="165" type="line" smooth="yes"/>
			<point x="125" y="121"/>
			<point x="134" y="55"/>
			<point x="222" y="55" type="curve" smooth="yes"/>
			<point x="266" y="55"/>
			<point x="330" y="90"/>
		</contour>
		<contour>
			<point x="239" y="644.5" type="line"/>
			<point x="130" y="520" type="line"/>
			<point x="91.5" y="520" type="line"/>
			<point x="206.5" y="685" type="line"/>
			<point x="271.5" y="685" type="line"/>
			<point x="386.5" y="520" type="line"/>
			<point x="348" y="520" type="line"/>
		</contour>
	</outline>
</glyph>
<glyph name="udieresis" format="2">
	<unicode hex="00FC"/>
	<advance width="478"/>
	<outline>
		<contour>
			<point x="354" y="154" type="curve"/>
			<point x="354" y="460" type="line"/>
			<point x="433" y="460" type="line"/>
			<point x="433" y="0" type="line"/>
			<point x="374" y="0" type="line"/>
			<point x="357" y="83" type="line"/>
			<point x="323" y="36"/>
			<point x="275" y="-10"/>
			<point x="200" y="-10" type="curve" smooth="yes"/>
			<point x="51" y="-10"/>
			<point name=".hr01" x="45" y="98"/>
			<point x="45" y="165" type="curve" smooth="yes"/>
			<point x="45" y="460" type="line"/>
			<point x="125" y="460" type="line"/>
			<point x="125" y="165" type="line" smooth="yes"/>
			<point x="125" y="121"/>
			<point x="134" y="55"/>
			<point x="222" y="55" type="curve" smooth="yes"/>
			<point x="266" y="55"/>
			<point x="330" y="90"/>
		</contour>
		<contour>
			<point x="200" y="640" type="line"/>
			<point name=".hr02" x="200" y="560" type="line"/>
			<point x="120" y="560" type="line"/>
			<point x="120" y="640" type="line"/>
		</contour>
		<contour>
			<point x="358" y="640" type="line"/>
			<point x="358" y="560" type="line"/>
			<point x="278" y="560" type="line"/>
			<point x="278" y="640" type="line"/>
		</contour>
	</outline>
</glyph>
<glyph name="aogonek" format="2">
	<unicode hex="0105"/>
	<advance width="493"/>
	<outline>
		<contour>
			<point x="125" y="126" type="curve" smooth="yes"/>
			<point x="125" y="77"/>
			<point x="165" y="60"/>
			<point x="204" y="60" type="curve" smooth="yes"/>
			<point x="248" y="60"/>
			<point x="326" y="116"/>
			<point x="342" y="141" type="curve"/>
			<point x="342" y="245" type="line"/>
			<point x="289" y="219"/>
			<point x="125" y="231"/>
		</contour>
		<contour>
			<point x="294" y="-124" type="curve" smooth="yes"/>
			<point name=".hr01" x="294" y="-70"/>
			<point x="331" y="-25"/>
			<point x="365" y="0" type="curve"/>
			<point x="373" y="0" type="line"/>
			<point x="354" y="26"/>
			<point x="349" y="34"/>
			<point x="342" y="74" type="curve"/>
			<point name=".hr02" x="310" y="37"/>
			<point x="267" y="-10"/>
			<point x="192" y="-10" type="curve" smooth="yes"/>
			<point x="108" y="-10"/>
			<point x="45" y="43"/>
			<point x="45" y="128" type="curve" smooth="yes"/>
			<point x="45" y="279"/>
			<point x="252" y="269"/>
			<point x="342" y="294" type="curve"/>
			<point x="342" y="330" type="line" smooth="yes"/>
			<point x="342" y="383"/>
			<point x="284" y="405"/>
			<point x="242" y="405" type="curve" smooth="yes"/>
			<point x="187" y="405"/>
			<point x="139" y="378"/>
			<point x="135" y="330" type="curve"/>
			<point x="70" y="330" type="line"/>
			<point x="77" y="417"/>
			<point x="154" y="470"/>
			<point x="243" y="470" type="curve" smooth="yes"/>
			<point x="340" y="470"/>
			<point x="423" y="432"/>
			<point x="423" y="319" type="curve"/>
			<point x="422" y="86" type="line"/>
			<point x="422" y="54"/>
			<point x="439" y="26"/>
			<point x="463" y="0" type="curve"/>
			<point x="423" y="0" type="line"/>
			<point x="382" y="-31"/>
			<point x="355" y="-69"/>
			<point name=".hr03" x="355" y="-108" type="curve" smooth="yes"/>
			<point x="355" y="-135"/>
			<point x="375" y="-154"/>
			<point x="401" y="-154" type="curve" smooth="yes"/>
			<point x="415" y="-154"/>
			<point x="430" y="-149"/>
			<point x="441" y="-141" type="curve"/>
			<point x="463" y="-182" type="line"/>
			<point x="450" y="-191" type="line"/>
			<point x="431" y="-202"/>
			<point x="404" y="-209"/>
			<point x="384" y="-209" type="curve" smooth="yes"/>
			<point x="334" y="-209"/>
			<point x="294" y="-180"/>
		</contour>
	</outline>
</glyph>
<glyph name="Cacute" format="2">
	<unicode hex="0106"/>
	<advance width="690"/>
	<outline>
		<contour>
			<point x="355.5" y="635" type="curve" smooth="yes"/>
			<point x="215.25" y="635"/>
			<point x="129" y="521.75"/>
			<point x="129" y="340" type="curve" smooth="yes"/>
			<point x="129" y="158.25"/>
			<point x="215.25" y="45"/>
			<point x="355.5" y="45" type="curve" smooth="yes"/>
			<point x="456" y="45"/>
			<point x="535" y="101.5"/>
			<point x="556.25" y="194" type="curve"/>
			<point x="611.25" y="194" type="line"/>
			<point x="586.5" y="72.75"/>
			<point x="490.25" y="-10"/>
			<point x="355.5" y="-10" type="curve" smooth="yes"/>
			<point x="177.5" y="-10"/>
			<point x="67.5" y="123.75"/>
			<point x="67.5" y="340" type="curve" smooth="yes"/>
			<point x="67.5" y="556.25"/>
			<point x="177.5" y="690"/>
			<point x="355.5" y="690" type="curve" smooth="yes"/>
			<point x="495.5" y="690"/>
			<point x="593.25" y="603"/>
			<point x="622.5" y="451.5" type="curve"/>
			<point x="567.5" y="451.5" type="line"/>
			<point x="541.5" y="567.25"/>
			<point x="463.75" y="635"/>
		</contour>
		<contour>
			<point x="438.25" y="897.5" type="line"/>
			<point x="373.25" y="710" type="line"/>
			<point x="317.75" y="710" type="line"/>
			<point x="372.75" y="897.5" type="line"/>
		</contour>
	</outline>
</glyph>
<glyph name="Ccircumflex" format="2">
	<unicode hex="0108"/>
	<advance width="690"/>
	<outline>
		<contour>
			<point x="355.5" y="635" type="curve" smooth="yes"/>
			<point x="215.25" y="635"/>
			<point x="129" y="521.75"/>
			<point x="129" y="340" type="curve" smooth="yes"/>
			<point x="129" y="158.25"/>
			<point x="215.25" y="45"/>
			<point x="355.5" y="45" type="curve" smooth="yes"/>
			<point x="456" y="45"/>
			<point x="535" y="101.5"/>
			<point x="556.25" y="194" type="curve"/>
			<point x="611.25" y="194" type="line"/>
			<point x="586.5" y="72.75"/>
			<point x="490.25" y="-10"/>
			<point x="355.5" y="-10" type="curve" smooth="yes"/>
			<point x="177.5" y="-10"/>
			<point x="67.5" y="123.75"/>
			<point x="67.5" y="340" type="curve" smooth="yes"/>
			<point x="67.5" y="556.25"/>
			<point x="177.5" y="690"/>
			<point x="355.5" y="690" type="curve" smooth="yes"/>
			<point x="495.5" y="690"/>
			<point x="593.25" y="603"/>
			<point x="622.5" y="451.5" type="curve"/>
			<point x="567.5" y="451.5" type="line"/>
			<point x="541.5" y="567.25"/>
			<point x="463.75" y="635"/>
		</contour>
		<contour>
			<point x="347.5" y="864.5" type="line"/>
			<point x="238.5" y="740" type="line"/>
			<point x="200" y="740" type="line"/>
			<point x="315" y="905" type="line"/>
			<point x="380" y="905" type="line"/>
			<point x="495" y="740" type="line"/>
			<point x="456.5" y="740" type="line"/>
		</contour>
	</outline>
</glyph>
<glyph name="ccircumflex" format="2">
	<unicode hex="0109"/>
	<advance width="510"/>
	<outline>
		<contour>
			<point x="50" y="230" type="curve" smooth="yes"/>
			<point x="50" y="348"/>
			<point x="95" y="470"/>
			<point x="259" y="470" type="curve" smooth="yes"/>
			<point x="378" y="470"/>
			<point x="437" y="405"/>
			<point x="459" y="320" type="curve"/>
			<point x="370" y="320" type="line"/>
			<point x="367" y="335"/>
			<point x="338" y="402"/>
			<point x="259" y="402" type="curve" smooth="yes"/>
			<point x="168" y="402"/>
			<point x="134" y="335"/>
			<point x="134" y="230" type="curve" smooth="yes"/>
			<point x="134" y="147"/>
			<point x="160" y="58"/>
			<point x="259" y="58" type="curve" smooth="yes"/>
			<point x="336" y="58"/>
			<point x="365" y="118"/>
			<point x="372" y="150" type="curve"/>
			<point x="460" y="150" type="line"/>
			<point x="440" y="79"/>
			<point x="387" y="-10"/>
			<point x="259" y="-10" type="curve" smooth="yes"/>
			<point x="94" y="-10"/>
			<point x="50" y="122"/>
		</contour>
		<contour>
			<point x="255" y="644.5" type="line"/>
			<point x="146" y="520" type="line"/>
			<point x="107.5" y="520" type="line"/>
			<point x="222.5" y="685" type="line"/>
			<point x="287.5" y="685" type="line"/>
			<point x="402.5" y="520" type="line"/>
			<point x="364" y="520" type="line"/>
		</contour>
	</outline>
</glyph>
<glyph name="Cdotaccent" format="2">
	<unicode hex="010A"/>
	<advance width="690"/>
	<outline>
		<contour>
			<point x="355.5" y="635" type="curve" smooth="yes"/>
			<point x="215.25" y="635"/>
			<point x="129" y="521.75"/>
			<point x="129" y="340" type="curve" smooth="yes"/>
			<point x="129" y="158.25"/>
			<point x="215.25" y="45"/>
			<point x="355.5" y="45" type="curve" smooth="yes"/>
			<point x="456" y="45"/>
			<point x="535" y="101.5"/>
			<point x="556.25" y="194" type="curve"/>
			<point x="611.25" y="194" type="line"/>
			<point x="586.5" y="72.75"/>
			<point x="490.25" y="-10"/>
			<point x="355.5" y="-10" type="curve" smooth="yes"/>
			<point x="177.5" y="-10"/>
			<point x="67.5" y="123.75"/>
			<point x="67.5" y="340" type="curve" smooth="yes"/>
			<point x="67.5" y="556.25"/>
			<point x="177.5" y="690"/>
			<point x="355.5" y="690" type="curve" smooth="yes"/>
			<point x="495.5" y="690"/>
			<point x="593.25" y="603"/>
			<point x="622.5" y="451.5" type="curve"/>
			<point x="567.5" y="451.5" type="line"/>
			<point x="541.5" y="567.25"/>
			<point x="463.75" y="635"/>
		</contour>
		<contour>
			<point x="377.5" y="835" type="line"/>
			<point x="377.5" y="740" type="line"/>
			<point x="317.5" y="740" type="line"/>
			<point x="317.5" y="835" type="line"/>
		</contour>
	</outline>
</glyph>
<glyph name="cdotaccent" format="2">
	<unicode hex="010B"/>
	<advance width="510"/>
	<outline>
		<contour>
			<point x="297.5" y="560" type="line"/>
			<point x="237.5" y="560" type="line"/>
			<point x="237.5" y="655" type="line"/>
			<point x="297.5" y="655" type="line"/>
		</contour>
		<contour>
			<point x="50" y="230" type="curve" smooth="yes"/>
			<point x="50" y="348"/>
			<point x="95" y="470"/>
			<point x="259" y="470" type="curve" smooth="yes"/>
			<point x="378" y="470"/>
			<point x="437" y="405"/>
			<point x="459" y="320" type="curve"/>
			<point x="370" y="320" type="line"/>
			<point x="367" y="335"/>
			<point x="338" y="402"/>
			<point x="259" y="402" type="curve" smooth="yes"/>
			<point x="168" y="402"/>
			<point x="134" y="335"/>
			<point x="134" y="230" type="curve" smooth="yes"/>
			<point x="134" y="147"/>
			<point x="160" y="58"/>
			<point x="259" y="58" type="curve" smooth="yes"/>
			<point x="336" y="58"/>
			<point x="365" y="118"/>
			<point x="372" y="150" type="curve"/>
			<point x="460" y="150" type="line"/>
			<point x="440" y="79"/>
			<point x="387" y="-10"/>
			<point x="259" y="-10" type="curve" smooth="yes"/>
			<point x="94" y="-10"/>
			<point x="50" y="122"/>
		</contour>
	</outline>
</glyph>
<glyph name="Ccaron" format="2">
	<unicode hex="010C"/>
	<advance width="690"/>
	<outline>
		<contour>
			<point x="355.5" y="635" type="curve" smooth="yes"/>
			<point x="215.25" y="635"/>
			<point x="129" y="521.75"/>
			<point x="129" y="340" type="curve" smooth="yes"/>
			<point x="129" y="158.25"/>
			<point x="215.25" y="45"/>
			<point x="355.5" y="45" type="curve" smooth="yes"/>
			<point x="456" y="45"/>
			<point x="535" y="101.5"/>
			<point x="556.25" y="194" type="curve"/>
			<point x="611.25" y="194" type="line"/>
			<point x="586.5" y="72.75"/>
			<point x="490.25" y="-10"/>
			<point x="355.5" y="-10" type="curve" smooth="yes"/>
			<point x="177.5" y="-10"/>
			<point x="67.5" y="123.75"/>
			<point x="67.5" y="340" type="curve" smooth="yes"/>
			<point x="67.5" y="556.25"/>
			<point x="177.5" y="690"/>
			<point x="355.5" y="690" type="curve" smooth="yes"/>
			<point x="495.5" y="690"/>
			<point x="593.25" y="603"/>
			<point x="622.5" y="451.5" type="curve"/>
			<point x="567.5" y="451.5" type="line"/>
			<point x="541.5" y="567.25"/>
			<point x="463.75" y="635"/>
		</contour>
		<contour>
			<point x="387.5" y="740" type="line"/>
			<point x="307.5" y="740" type="line"/>
			<point x="207.5" y="900" type="line"/>
			<point x="271.5" y="900" type="line"/>
			<point x="347.5" y="815" type="line"/>
			<point x="423.5" y="900" type="line"/>
			<point x="487.5" y="900" type="line"/>
		</contour>
	</outline>
</glyph>
<glyph name="Dcaron" format="2">
	<unicode hex="010E"/>
	<advance width="633"/>
	<outline>
		<contour>
			<point x="149" y="625" type="line"/>
			<point x="149" y="55" type="line"/>
			<point x="293" y="55" type="line" smooth="yes"/>
			<point x="435" y="55"/>
			<point x="504.25" y="176"/>
			<point x="504.25" y="340" type="curve" smooth="yes"/>
			<point x="504.25" y="513"/>
			<point x="437" y="625"/>
			<point x="293" y="625" type="curve" smooth="yes"/>
		</contour>
		<contour>
			<point x="87.5" y="680" type="line"/>
			<point x="293" y="680" type="line" smooth="yes"/>
			<point x="483" y="680"/>
			<point x="565" y="541.5"/>
			<point x="565" y="340" type="curve" smooth="yes"/>
			<point x="565" y="137.75"/>
			<point x="483.25" y="0"/>
			<point x="293" y="0" type="curve" smooth="yes"/>
			<point x="87.5" y="0" type="line"/>
		</contour>
		<contour>
			<point x="356.25" y="760" type="line"/>
			<point x="276.25" y="760" type="line"/>
			<point x="176.25" y="920" type="line"/>
			<point x="240.25" y="920" type="line"/>
			<point x="316.25" y="835" type="line"/>
			<point x="392.25" y="920" type="line"/>
			<point x="456.25" y="920" type="line"/>
		</contour>
	</outline>
</glyph>
<glyph name="Emacron" format="2">
	<unicode hex="0112"/>
	<advance width="510"/>
	<outline>
		<contour>
			<point x="420" y="322.5" type="line"/>
			<point x="149" y="322.5" type="line"/>
			<point x="149" y="52.5" type="line"/>
			<point x="460" y="52.5" type="line"/>
			<point x="460" y="0" type="line"/>
			<point x="87.5" y="0" type="line"/>
			<point x="87.5" y="680" type="line"/>
			<point x="460" y="680" type="line"/>
			<point x="460" y="627.5" type="line"/>
			<point x="149" y="627.5" type="line"/>
			<point x="149" y="375" type="line"/>
			<point x="420" y="375" type="line"/>
		</contour>
		<contour>
			<point name=".hr01" x="390" y="860" type="line"/>
			<point x="390" y="790" type="line"/>
			<point x="120" y="790" type="line"/>
			<point x="120" y="860" type="line"/>
		</contour>
	</outline>
</glyph>
<glyph name="Ebreve" format="2">
	<unicode hex="0114"/>
	<advance width="510"/>
	<outline>
		<contour>
			<point x="420" y="322.5" type="line"/>
			<point x="149" y="322.5" type="line"/>
			<point x="149" y="52.5" type="line"/>
			<point x="460" y="52.5" type="line"/>
			<point x="460" y="0" type="line"/>
			<point x="87.5" y="0" type="line"/>
			<point x="87.5" y="680" type="line"/>
			<point x="460" y="680" type="line"/>
			<point x="460" y="627.5" type="line"/>
			<point x="149" y="627.5" type="line"/>
			<point x="149" y="375" type="line"/>
			<point x="420" y="375" type="line"/>
		</contour>
		<contour>
			<point name=".hr01" x="100" y="880" type="curve"/>
			<point x="180" y="880" type="line"/>
			<point x="180" y="820"/>
			<point x="220" y="800"/>
			<point x="255" y="800" type="curve" smooth="yes"/>
			<point x="290" y="800"/>
			<point x="330" y="820"/>
			<point x="330" y="880" type="curve"/>
			<point x="410" y="880" type="line"/>
			<point x="410" y="780"/>
			<point x="335" y="740"/>
			<point x="255" y="740" type="curve" smooth="yes"/>
			<point x="175" y="740"/>
			<point x="100" y="780"/>
		</contour>
	</outline>
</glyph>
<glyph name="Edotaccent" format="2">
	<unicode hex="0116"/>
	<advance width="510"/>
	<outline>
		<contour>
			<point x="420" y="322.5" type="line"/>
			<point x="149" y="322.5" type="line"/>
			<point x="149" y="52.5" type="line"/>
			<point x="460" y="52.5" type="line"/>
			<point x="460" y="0" type="line"/>
			<point x="87.5" y="0" type="line"/>
			<point x="87.5" y="680" type="line"/>
			<point x="460" y="680" type="line"/>
			<point x="460" y="627.5" type="line"/>
			<point x="149" y="627.5" type="line"/>
			<point x="149" y="375" type="line"/>
			<point x="420" y="375" type="line"/>
		</contour>
		<contour>
			<point x="285" y="835" type="line"/>
			<point x="285" y="740" type="line"/>
			<point x="225" y="740" type="line"/>
			<point x="225" y="835" type="line"/>
		</contour>
	</outline>
</glyph>
<glyph name="edotaccent" format="2">
	<unicode hex="0117"/>
	<advance width="518"/>
	<outline>
		<contour>
			<point x="139" y="278" type="curve"/>
			<point x="379" y="278" type="line"/>
			<point x="379" y="278"/>
			<point x="371" y="402"/>
			<point x="259" y="402" type="curve" smooth="yes"/>
			<point x="147" y="402"/>
			<point x="139" y="278"/>
		</contour>
		<contour>
			<point x="50" y="240" type="curve" smooth="yes"/>
			<point x="50" y="360"/>
			<point x="119" y="470"/>
			<point x="259" y="470" type="curve" smooth="yes"/>
			<point x="399" y="470"/>
			<point x="468" y="360"/>
			<point x="468" y="240" type="curve" smooth="yes"/>
			<point x="468" y="210" type="line"/>
			<point x="134" y="210" type="line"/>
			<point x="134" y="140"/>
			<point x="179" y="58"/>
			<point x="259" y="58" type="curve" smooth="yes"/>
			<point x="329" y="58"/>
			<point x="365" y="98"/>
			<point x="375" y="142" type="curve"/>
			<point x="458" y="142" type="line"/>
			<point x="443" y="73"/>
			<point x="409" y="-10"/>
			<point x="259" y="-10" type="curve" smooth="yes"/>
			<point x="109" y="-10"/>
			<point x="50" y="120"/>
		</contour>
		<contour>
			<point x="302.5" y="655" type="line"/>
			<point x="302.5" y="560" type="line"/>
			<point x="242.5" y="560" type="line"/>
			<point x="242.5" y="655" type="line"/>
		</contour>
	</outline>
</glyph>
<glyph name="eogonek" format="2">
	<unicode hex="0119"/>
	<advance width="471"/>
	<outline>
		<contour>
			<point x="119" y="290" type="curve"/>
			<point x="358" y="290" type="line"/>
			<point x="345" y="358"/>
			<point x="310" y="390"/>
			<point x="240" y="390" type="curve" smooth="yes"/>
			<point x="181" y="390"/>
			<point x="129" y="353"/>
		</contour>
		<contour>
			<point x="34" y="240" type="curve" smooth="yes"/>
			<point x="34" y="348"/>
			<point x="95" y="470"/>
			<point x="240" y="470" type="curve" smooth="yes"/>
			<point x="379" y="470"/>
			<point x="435" y="350"/>
			<point x="435" y="210" type="curve"/>
			<point x="119" y="210" type="line"/>
			<point x="126" y="141"/>
			<point x="157" y="70"/>
			<point x="241" y="70" type="curve" smooth="yes"/>
			<point x="285" y="70"/>
			<point x="332" y="88"/>
			<point x="355" y="114" type="curve"/>
			<point x="416" y="98" type="line"/>
			<point x="401" y="62"/>
			<point x="352" y="2"/>
			<point x="267" y="-8" type="curve"/>
			<point x="226" y="-40"/>
			<point x="202" y="-76"/>
			<point x="202" y="-114" type="curve" smooth="yes"/>
			<point x="202" y="-145"/>
			<point x="224" y="-160"/>
			<point x="248" y="-160" type="curve" smooth="yes"/>
			<point x="264" y="-160"/>
			<point x="277" y="-155"/>
			<point x="288" y="-147" type="curve"/>
			<point x="310" y="-188" type="line"/>
			<point x="291" y="-203"/>
			<point x="256" y="-215"/>
			<point x="231" y="-215" type="curve" smooth="yes"/>
			<point x="181" y="-215"/>
			<point x="141" y="-186"/>
			<point x="141" y="-130" type="curve" smooth="yes"/>
			<point x="141" y="-78"/>
			<point x="177" y="-34"/>
			<point x="209" y="-8" type="curve"/>
			<point x="77" y="8"/>
			<point x="34" y="130"/>
		</contour>
	</outline>
</glyph>
<glyph name="Ecaron" format="2">
	<unicode hex="011A"/>
	<advance width="510"/>
	<outline>
		<contour>
			<point x="420" y="322.5" type="line"/>
			<point x="149" y="322.5" type="line"/>
			<point x="149" y="52.5" type="line"/>
			<point x="460" y="52.5" type="line"/>
			<point x="460" y="0" type="line"/>
			<point x="87.5" y="0" type="line"/>
			<point x="87.5" y="680" type="line"/>
			<point x="460" y="680" type="line"/>
			<point x="460" y="627.5" type="line"/>
			<point x="149" y="627.5" type="line"/>
			<point x="149" y="375" type="line"/>
			<point x="420" y="375" type="line"/>
		</contour>
		<contour>
			<point x="295" y="740" type="line"/>
			<point x="215" y="740" type="line"/>
			<point x="115" y="900" type="line"/>
			<point x="179" y="900" type="line"/>
			<point x="255" y="815" type="line"/>
			<point x="331" y="900" type="line"/>
			<point x="395" y="900" type="line"/>
		</contour>
	</outline>
</glyph>
<glyph name="ecaron" format="2">
	<unicode hex="011B"/>
	<advance width="518"/>
	<outline>
		<contour>
			<point x="139" y="278" type="curve"/>
			<point x="379" y="278" type="line"/>
			<point x="379" y="278"/>
			<point x="371" y="402"/>
			<point x="259" y="402" type="curve" smooth="yes"/>
			<point x="147" y="402"/>
			<point x="139" y="278"/>
		</contour>
		<contour>
			<point x="50" y="240" type="curve" smooth="yes"/>
			<point x="50" y="360"/>
			<point x="119" y="470"/>
			<point x="259" y="470" type="curve" smooth="yes"/>
			<point x="399" y="470"/>
			<point x="468" y="360"/>
			<point x="468" y="240" type="curve" smooth="yes"/>
			<point x="468" y="210" type="line"/>
			<point x="134" y="210" type="line"/>
			<point x="134" y="140"/>
			<point x="179" y="58"/>
			<point x="259" y="58" type="curve" smooth="yes"/>
			<point x="329" y="58"/>
			<point x="365" y="98"/>
			<point x="375" y="142" type="curve"/>
			<point x="458" y="142" type="line"/>
			<point x="443" y="73"/>
			<point x="409" y="-10"/>
			<point x="259" y="-10" type="curve" smooth="yes"/>
			<point x="109" y="-10"/>
			<point x="50" y="120"/>
		</contour>
		<contour>
			<point x="300" y="520" type="line"/>
			<point x="220" y="520" type="line"/>
			<point x="120" y="680" type="line"/>
			<point x="184" y="680" type="line"/>
			<point x="260" y="595" type="line"/>
			<point x="336" y="680" type="line"/>
			<point x="400" y="680" type="line"/>
		</contour>
	</outline>
</glyph>
<glyph name="Gbreve" format="2">
	<unicode hex="011E"/>
	<advance width="692"/>
	<outline>
		<contour>
			<point x="355.5" y="635" type="curve" smooth="yes"/>
			<point x="215.25" y="635"/>
			<point x="129" y="521.75"/>
			<point x="129" y="340" type="curve" smooth="yes"/>
			<point x="129" y="158.25"/>
			<point x="215.25" y="45"/>
			<point x="355.5" y="45" type="curve" smooth="yes"/>
			<point x="439" y="45"/>
			<point x="520.25" y="97.75"/>
			<point x="560.5" y="166.25" type="curve"/>
			<point x="560.5" y="267.5" type="line"/>
			<point x="377.75" y="267.5" type="line"/>
			<point x="377.75" y="312.5" type="line"/>
			<point x="614.5" y="312.5" type="line"/>
			<point x="614.5" y="0" type="line"/>
			<point x="560.5" y="0" type="line"/>
			<point x="560.5" y="90.5" type="line"/>
			<point x="519.75" y="34"/>
			<point x="433.75" y="-10"/>
			<point x="355.5" y="-10" type="curve" smooth="yes"/>
			<point x="177.5" y="-10"/>
			<point x="67.5" y="123.75"/>
			<point x="67.5" y="340" type="curve" smooth="yes"/>
			<point x="67.5" y="556.25"/>
			<point x="177.5" y="690"/>
			<point x="355.5" y="690" type="curve" smooth="yes"/>
			<point x="495.5" y="690"/>
			<point x="593.25" y="603"/>
			<point x="622.5" y="451.5" type="curve"/>
			<point x="567.5" y="451.5" type="line"/>
			<point x="541.5" y="567.25"/>
			<point x="463.75" y="635"/>
		</contour>
		<contour>
			<point x="193.5" y="880" type="curve"/>
			<point x="273.5" y="880" type="line"/>
			<point x="273.5" y="820"/>
			<point x="313.5" y="800"/>
			<point x="348.5" y="800" type="curve" smooth="yes"/>
			<point x="383.5" y="800"/>
			<point x="423.5" y="820"/>
			<point x="423.5" y="880" type="curve"/>
			<point x="503.5" y="880" type="line"/>
			<point x="503.5" y="780"/>
			<point x="428.5" y="740"/>
			<point x="348.5" y="740" type="curve" smooth="yes"/>
			<point x="268.5" y="740"/>
			<point x="193.5" y="780"/>
		</contour>
	</outline>
</glyph>
<glyph name="Gdotaccent" format="2">
	<unicode hex="0120"/>
	<advance width="692"/>
	<outline>
		<contour>
			<point x="355.5" y="635" type="curve" smooth="yes"/>
			<point x="215.25" y="635"/>
			<point x="129" y="521.75"/>
			<point x="129" y="340" type="curve" smooth="yes"/>
			<point x="129" y="158.25"/>
			<point x="215.25" y="45"/>
			<point x="355.5" y="45" type="curve" smooth="yes"/>
			<point x="439" y="45"/>
			<point x="520.25" y="97.75"/>
			<point x="560.5" y="166.25" type="curve"/>
			<point x="560.5" y="267.5" type="line"/>
			<point x="377.75" y="267.5" type="line"/>
			<point x="377.75" y="312.5" type="line"/>
			<point x="614.5" y="312.5" type="line"/>
			<point x="614.5" y="0" type="line"/>
			<point x="560.5" y="0" type="line"/>
			<point x="560.5" y="90.5" type="line"/>
			<point x="519.75" y="34"/>
			<point x="433.75" y="-10"/>
			<point x="355.5" y="-10" type="curve" smooth="yes"/>
			<point x="177.5" y="-10"/>
			<point x="67.5" y="123.75"/>
			<point x="67.5" y="340" type="curve" smooth="yes"/>
			<point x="67.5" y="556.25"/>
			<point x="177.5" y="690"/>
			<point x="355.5" y="690" type="curve" smooth="yes"/>
			<point x="495.5" y="690"/>
			<point x="593.25" y="603"/>
			<point x="622.5" y="451.5" type="curve"/>
			<point x="567.5" y="451.5" type="line"/>
			<point x="541.5" y="567.25"/>
			<point x="463.75" y="635"/>
		</contour>
		<contour>
			<point x="378.5" y="835" type="line"/>
			<point x="378.5" y="740" type="line"/>
			<point x="318.5" y="740" type="line"/>
			<point x="318.5" y="835" type="line"/>
		</contour>
	</outline>
</glyph>
<glyph name="uni0122" format="2">
	<unicode hex="0122"/>
	<advance width="692"/>
	<outline>
		<contour>
			<point x="355.5" y="635" type="curve" smooth="yes"/>
			<point x="215.25" y="635"/>
			<point x="129" y="521.75"/>
			<point x="129" y="340" type="curve" smooth="yes"/>
			<point x="129" y="158.25"/>
			<point x="215.25" y="45"/>
			<point x="355.5" y="45" type="curve" smooth="yes"/>
			<point x="439" y="45"/>
			<point x="520.25" y="97.75"/>
			<point x="560.5" y="166.25" type="curve"/>
			<point x="560.5" y="267.5" type="line"/>
			<point x="377.75" y="267.5" type="line"/>
			<point x="377.75" y="312.5" type="line"/>
			<point x="614.5" y="312.5" type="line"/>
			<point x="614.5" y="0" type="line"/>
			<point x="560.5" y="0" type="line"/>
			<point x="560.5" y="90.5" type="line"/>
			<point x="519.75" y="34"/>
			<point x="433.75" y="-10"/>
			<point x="355.5" y="-10" type="curve" smooth="yes"/>
			<point x="177.5" y="-10"/>
			<point x="67.5" y="123.75"/>
			<point x="67.5" y="340" type="curve" smooth="yes"/>
			<point x="67.5" y="556.25"/>
			<point x="177.5" y="690"/>
			<point x="355.5" y="690" type="curve" smooth="yes"/>
			<point x="495.5" y="690"/>
			<point x="593.25" y="603"/>
			<point x="622.5" y="451.5" type="curve"/>
			<point x="567.5" y="451.5" type="line"/>
			<point x="541.5" y="567.25"/>
			<point x="463.75" y="635"/>
		</contour>
		<contour>
			<point x="328.5" y="-140" type="line"/>
			<point x="306.5" y="-140" type="line"/>
			<point x="306.5" y="-60" type="line"/>
			<point x="386.5" y="-60" type="line"/>
			<point x="386.5" y="-140" type="line"/>
			<point x="340.5" y="-270" type="line"/>
			<point x="306.5" y="-270" type="line"/>
		</contour>
	</outline>
</glyph>
<glyph name="Hcircumflex" format="2">
	<unicode hex="0124"/>
	<advance width="617"/>
	<outline>
		<contour>
			<point x="529" y="680" type="line"/>
			<point x="529" y="0" type="line"/>
			<point x="467.5" y="0" type="line"/>
			<point x="467.5" y="317" type="line"/>
			<point x="149" y="317" type="line"/>
			<point x="149" y="0" type="line"/>
			<point x="87.5" y="0" type="line"/>
			<point x="87.5" y="680" type="line"/>
			<point x="149" y="680" type="line"/>
			<point x="149" y="372" type="line"/>
			<point x="467.5" y="372" type="line"/>
			<point x="467.5" y="680" type="line"/>
		</contour>
		<contour>
			<point x="308.25" y="884.5" type="line"/>
			<point x="199.25" y="760" type="line"/>
			<point x="160.75" y="760" type="line"/>
			<point x="275.75" y="925" type="line"/>
			<point x="340.75" y="925" type="line"/>
			<point x="455.75" y="760" type="line"/>
			<point x="417.25" y="760" type="line"/>
		</contour>
	</outline>
</glyph>
<glyph name="hcircumflex" format="2">
	<unicode hex="0125"/>
	<advance width="478"/>
	<outline>
		<contour>
			<point x="143" y="760" type="line"/>
			<point x="79" y="760" type="line"/>
			<point x="199" y="940" type="line"/>
			<point x="279" y="940" type="line"/>
			<point x="399" y="760" type="line"/>
			<point x="335" y="760" type="line"/>
			<point x="239" y="887" type="line"/>
		</contour>
		<contour>
			<point x="125" y="0" type="curve"/>
			<point x="45" y="0" type="line"/>
			<point x="45" y="700" type="line"/>
			<point x="125" y="700" type="line"/>
			<point x="125" y="380" type="line"/>
			<point x="163" y="422"/>
			<point x="230" y="470"/>
			<point x="295" y="470" type="curve" smooth="yes"/>
			<point x="413" y="470"/>
			<point x="433" y="384"/>
			<point x="433" y="304" type="curve" smooth="yes"/>
			<point x="433" y="0" type="line"/>
			<point x="353" y="0" type="line"/>
			<point x="353" y="271" type="line" smooth="yes"/>
			<point x="353" y="344"/>
			<point x="352" y="390"/>
			<point x="293" y="390" type="curve" smooth="yes"/>
			<point x="226" y="390"/>
			<point x="183" y="364"/>
			<point x="126" y="310" type="curve"/>
			<point x="126" y="207"/>
			<point x="125" y="103"/>
		</contour>
	</outline>
</glyph>
<glyph name="Itilde" format="2">
	<unicode hex="0128"/>
	<advance width="237"/>
	<outline>
		<contour>
			<point x="149" y="0" type="line"/>
			<point x="87.5" y="0" type="line"/>
			<point x="87.5" y="680" type="line"/>
			<point x="149" y="680" type="line"/>
		</contour>
		<contour>
			<point x="15.25" y="760" type="curve"/>
			<point x="-34.75" y="760" type="line"/>
			<point x="-20.75" y="847"/>
			<point name=".hr01" x="15.25" y="880"/>
			<point x="55.25" y="880" type="curve" smooth="yes"/>
			<point x="80.25" y="880"/>
			<point x="102.25" y="870"/>
			<point x="124.25" y="859" type="curve"/>
			<point x="140.25" y="850"/>
			<point name=".hr02" x="161.25" y="840"/>
			<point x="181.25" y="840" type="curve" smooth="yes"/>
			<point x="201.25" y="840"/>
			<point x="216.25" y="852"/>
			<point name=".hr03" x="221.25" y="880" type="curve"/>
			<point x="271.25" y="880" type="line"/>
			<point x="257.25" y="793"/>
			<point name=".hr04" x="221.25" y="760"/>
			<point x="181.25" y="760" type="curve" smooth="yes"/>
			<point x="156.25" y="760"/>
			<point x="135.25" y="769"/>
			<point x="114.25" y="780" type="curve" smooth="yes"/>
			<point x="97.25" y="789"/>
			<point name=".hr05" x="75.25" y="800"/>
			<point x="55.25" y="800" type="curve" smooth="yes"/>
			<point x="35.25" y="800"/>
			<point x="20.25" y="788"/>
		</contour>
	</outline>
</glyph>
<glyph name="Ibreve" format="2">
	<unicode hex="012C"/>
	<advance width="237"/>
	<outline>
		<contour>
			<point x="149" y="0" type="line"/>
			<point x="87.5" y="0" type="line"/>
			<point x="87.5" y="680" type="line"/>
			<point x="149" y="680" type="line"/>
		</contour>
		<contour>
			<point x="-36.75" y="880" type="curve"/>
			<point x="43.25" y="880" type="line"/>
			<point x="43.25" y="820"/>
			<point x="83.25" y="800"/>
			<point x="118.25" y="800" type="curve" smooth="yes"/>
			<point x="153.25" y="800"/>
			<point x="193.25" y="820"/>
			<point x="193.25" y="880" type="curve"/>
			<point x="273.25" y="880" type="line"/>
			<point x="273.25" y="780"/>
			<point x="198.25" y="740"/>
			<point x="118.25" y="740" type="curve" smooth="yes"/>
			<point x="38.25" y="740"/>
			<point x="-36.75" y="780"/>
		</contour>
	</outline>
</glyph>
<glyph name="ibreve" format="2">
	<unicode hex="012D"/>
	<advance width="280"/>
	<outline>
		<contour>
			<point x="-15" y="660" type="curve"/>
			<point x="65" y="660" type="line"/>
			<point x="65" y="600"/>
			<point x="105" y="580"/>
			<point x="140" y="580" type="curve" smooth="yes"/>
			<point x="175" y="580"/>
			<point x="215" y="600"/>
			<point x="215" y="660" type="curve"/>
			<point x="295" y="660" type="line"/>
			<point x="295" y="560"/>
			<point x="220" y="520"/>
			<point x="140" y="520" type="curve" smooth="yes"/>
			<point x="60" y="520"/>
			<point x="-15" y="560"/>
		</contour>
		<contour>
			<point x="160" y="0" type="line"/>
			<point x="100" y="0" type="line"/>
			<point x="100" y="460" type="line"/>
			<point x="160" y="460" type="line"/>
		</contour>
	</outline>
</glyph>
<glyph name="Iogonek" format="2">
	<unicode hex="012E"/>
	<advance width="237"/>
	<outline>
		<contour>
			<point x="44.5" y="-138.25" type="curve" smooth="yes"/>
			<point x="44.5" y="-89.5"/>
			<point x="68" y="-48.25"/>
			<point x="111.75" y="0" type="curve"/>
			<point name=".hr01" x="87.5" y="0" type="line"/>
			<point x="87.5" y="680" type="line"/>
			<point x="149" y="680" type="line"/>
			<point x="149" y="0" type="line"/>
			<point x="156.75" y="0" type="line"/>
			<point x="109.75" y="-52"/>
			<point name=".hr02" x="94.75" y="-83.5"/>
			<point x="94.75" y="-121.25" type="curve" smooth="yes"/>
			<point x="94.75" y="-151.75"/>
			<point x="110" y="-167.5"/>
			<point x="141.25" y="-167.5" type="curve" smooth="yes"/>
			<point x="156" y="-167.5"/>
			<point x="170.5" y="-160"/>
			<point x="180.25" y="-150.75" type="curve"/>
			<point x="191.75" y="-187.25" type="line"/>
			<point x="171.75" y="-202.75"/>
			<point name=".hr03" x="149.75" y="-210"/>
			<point x="121.75" y="-210" type="curve" smooth="yes"/>
			<point x="72.25" y="-210"/>
			<point name=".hr04" x="44.5" y="-183.75"/>
		</contour>
	</outline>
</glyph>
<glyph name="Idotaccent" format="2">
	<unicode hex="0130"/>
	<advance width="237"/>
	<outline>
		<contour>
			<point x="149" y="0" type="line"/>
			<point x="87.5" y="0" type="line"/>
			<point x="87.5" y="680" type="line"/>
			<point x="149" y="680" type="line"/>
		</contour>
		<contour>
			<point x="148.25" y="740" type="line"/>
			<point x="88.25" y="740" type="line"/>
			<point x="88.25" y="835" type="line"/>
			<point x="148.25" y="835" type="line"/>
		</contour>
	</outline>
</glyph>
<glyph name="dotlessi" format="2">
	<unicode hex="0131"/>
	<advance width="250"/>
	<outline>
		<contour>
			<point x="155" y="0" type="line"/>
			<point x="95" y="0" type="line"/>
			<point x="95" y="460" type="line"/>
			<point x="155" y="460" type="line"/>
		</contour>
	</outline>
	<anchor name="top" x="125" y="520"/>
</glyph>
<glyph name="ij" format="2">
	<unicode hex="0133"/>
	<advance width="330"/>
	<outline>
		<contour>
			<point x="260" y="530" type="line"/>
			<point x="180" y="530" type="line"/>
			<point x="180" y="610" type="line"/>
			<point x="260" y="610" type="line"/>
		</contour>
		<contour>
			<point x="32" y="-100" type="curve"/>
			<point x="97" y="-100" type="line"/>
			<point x="97" y="-132"/>
			<point x="124" y="-135"/>
			<point x="140" y="-135" type="curve" smooth="yes"/>
			<point x="167" y="-135"/>
			<point x="180" y="-109"/>
			<point x="180" y="-15" type="curve" smooth="yes"/>
			<point x="180" y="143"/>
			<point x="180" y="302"/>
			<point x="180" y="460" type="curve"/>
			<point x="260" y="460" type="line"/>
			<point x="260" y="9" type="line" smooth="yes"/>
			<point x="260" y="-171"/>
			<point x="203" y="-200"/>
			<point x="138" y="-200" type="curve" smooth="yes"/>
			<point x="81" y="-200"/>
			<point x="32" y="-158"/>
		</contour>
		<contour>
			<point x="100" y="530" type="line"/>
			<point name=".hr01" x="20" y="530" type="line"/>
			<point x="20" y="610" type="line"/>
			<point x="100" y="610" type="line"/>
		</contour>
		<contour>
			<point x="100" y="0" type="line"/>
			<point x="20" y="0" type="line"/>
			<point x="20" y="460" type="line"/>
			<point x="100" y="460" type="line"/>
		</contour>
	</outline>
</glyph>
<glyph name="Jcircumflex" format="2">
	<unicode hex="0134"/>
	<advance width="286"/>
	<outline>
		<contour>
			<point x="86.5" y="0" type="curve" smooth="yes"/>
			<point x="50" y="0" type="line"/>
			<point x="50" y="55" type="line"/>
			<point x="76" y="55" type="line" smooth="yes"/>
			<point x="116" y="55"/>
			<point x="148" y="108.5"/>
			<point x="148" y="172.5" type="curve" smooth="yes"/>
			<point x="148" y="680" type="line"/>
			<point x="209.5" y="680" type="line"/>
			<point x="209.5" y="184" type="line" smooth="yes"/>
			<point x="209.5" y="72.5"/>
			<point x="170" y="0"/>
		</contour>
		<contour>
			<point x="193" y="874.5" type="line"/>
			<point x="84" y="750" type="line"/>
			<point x="45.5" y="750" type="line"/>
			<point x="160.5" y="915" type="line"/>
			<point x="225.5" y="915" type="line"/>
			<point x="340.5" y="750" type="line"/>
			<point x="302" y="750" type="line"/>
		</contour>
	</outline>
</glyph>
<glyph name="jcircumflex" format="2">
	<unicode hex="0135"/>
	<advance width="220"/>
	<outline>
		<contour>
			<point x="-103" y="-90" type="curve"/>
			<point x="-24" y="-90" type="line"/>
			<point x="-8" y="-114"/>
			<point x="7" y="-120"/>
			<point x="30" y="-120" type="curve" smooth="yes"/>
			<point x="55" y="-120"/>
			<point x="70" y="-103"/>
			<point x="70" y="-55" type="curve" smooth="yes"/>
			<point x="70" y="460" type="line"/>
			<point x="150" y="460" type="line"/>
			<point x="150" y="-31" type="line" smooth="yes"/>
			<point x="150" y="-139"/>
			<point x="93" y="-200"/>
			<point x="28" y="-200" type="curve" smooth="yes"/>
			<point x="-36" y="-200"/>
			<point x="-87" y="-149"/>
		</contour>
		<contour>
			<point x="110" y="644.5" type="line"/>
			<point x="1" y="520" type="line"/>
			<point x="-37.5" y="520" type="line"/>
			<point x="77.5" y="685" type="line"/>
			<point x="142.5" y="685" type="line"/>
			<point x="257.5" y="520" type="line"/>
			<point x="219" y="520" type="line"/>
		</contour>
	</outline>
</glyph>
<glyph name="uni0136" format="2">
	<unicode hex="0136"/>
	<advance width="550"/>
	<outline>
		<contour>
			<point x="149" y="293.75" type="line"/>
			<point x="149" y="0" type="line"/>
			<point x="87.5" y="0" type="line"/>
			<point x="87.5" y="680" type="line"/>
			<point x="149" y="680" type="line"/>
			<point x="149" y="347.75" type="line"/>
			<point x="241.25" y="364.75" type="line"/>
			<point x="430" y="680" type="line"/>
			<point x="499.5" y="680" type="line"/>
			<point x="299.5" y="350" type="line"/>
			<point x="539.5" y="0" type="line"/>
			<point x="465" y="0" type="line"/>
			<point x="249.5" y="315.25" type="line"/>
		</contour>
		<contour>
			<point x="256.75" y="-140" type="line"/>
			<point x="234.75" y="-140" type="line"/>
			<point x="234.75" y="-60" type="line"/>
			<point x="314.75" y="-60" type="line"/>
			<point x="314.75" y="-140" type="line"/>
			<point x="268.75" y="-270" type="line"/>
			<point x="234.75" y="-270" type="line"/>
		</contour>
	</outline>
</glyph>
<glyph name="Lacute" format="2">
	<unicode hex="0139"/>
	<advance width="548"/>
	<outline>
		<contour>
			<point x="149" y="680" type="line"/>
			<point x="149" y="55" type="line"/>
			<point x="463.25" y="55" type="line"/>
			<point x="463.25" y="0" type="line"/>
			<point x="87.5" y="0" type="line"/>
			<point x="87.5" y="680" type="line"/>
		</contour>
		<contour>
			<point x="223.25" y="897.5" type="line"/>
			<point x="158.25" y="710" type="line"/>
			<point x="102.75" y="710" type="line"/>
			<point x="157.75" y="897.5" type="line"/>
		</contour>
	</outline>
</glyph>
<glyph name="Lcaron" format="2">
	<unicode hex="013D"/>
	<advance width="510"/>
	<outline>
		<contour>
			<point x="304" y="490" type="line"/>
			<point x="270" y="490" type="line"/>
			<point x="292" y="620" type="line"/>
			<point x="270" y="620" type="line"/>
			<point x="270" y="700" type="line"/>
			<point x="350" y="700" type="line"/>
			<point x="350" y="620" type="line"/>
		</contour>
		<contour>
			<point x="460" y="0" type="line"/>
			<point x="50" y="0" type="line"/>
			<point x="50" y="700" type="line"/>
			<point x="140" y="700" type="line"/>
			<point x="140" y="80" type="line"/>
			<point x="460" y="80" type="line"/>
		</contour>
	</outline>
</glyph>
<glyph name="uni0145" format="2">
	<unicode hex="0145"/>
	<advance width="600"/>
	<outline>
		<contour>
			<point x="36.5" y="515" type="curve" smooth="yes"/>
			<point x="36.5" y="0" type="line"/>
			<point x="-25" y="0" type="line"/>
			<point x="-25" y="680" type="line"/>
			<point x="43" y="680" type="line"/>
			<point x="382.75" y="100.75" type="line"/>
			<point x="380.5" y="125.25"/>
			<point x="380.5" y="147.75"/>
			<point x="380.5" y="165" type="curve" smooth="yes"/>
			<point x="380.5" y="680" type="line"/>
			<point x="442" y="680" type="line"/>
			<point x="442" y="0" type="line"/>
			<point x="374" y="0" type="line"/>
			<point x="34.25" y="579.25" type="line"/>
			<point x="36.5" y="554.75"/>
			<point x="36.5" y="532.25"/>
		</contour>
		<contour>
			<point x="282" y="-140" type="line"/>
			<point x="260" y="-140" type="line"/>
			<point x="260" y="-60" type="line"/>
			<point x="340" y="-60" type="line"/>
			<point x="340" y="-140" type="line"/>
			<point x="294" y="-270" type="line"/>
			<point x="260" y="-270" type="line"/>
		</contour>
	</outline>
</glyph>
<glyph name="Omacron" format="2">
	<unicode hex="014C"/>
	<advance width="711"/>
	<outline>
		<contour>
			<point x="355.5" y="635" type="curve" smooth="yes"/>
			<point x="215.25" y="635"/>
			<point x="129" y="521.75"/>
			<point x="129" y="340" type="curve" smooth="yes"/>
			<point x="129" y="158.25"/>
			<point x="215.25" y="45"/>
			<point x="355.5" y="45" type="curve" smooth="yes"/>
			<point x="495.75" y="45"/>
			<point x="582" y="158.25"/>
			<point x="582" y="340" type="curve" smooth="yes"/>
			<point x="582" y="521.75"/>
			<point x="495.75" y="635"/>
		</contour>
		<contour>
			<point x="355.5" y="-10" type="curve" smooth="yes"/>
			<point x="177.5" y="-10"/>
			<point x="67.5" y="123.75"/>
			<point x="67.5" y="340" type="curve" smooth="yes"/>
			<point x="67.5" y="556.25"/>
			<point x="177.5" y="690"/>
			<point x="355.5" y="690" type="curve" smooth="yes"/>
			<point x="533.5" y="690"/>
			<point x="643.5" y="556.25"/>
			<point x="643.5" y="340" type="curve" smooth="yes"/>
			<point x="643.5" y="123.75"/>
			<point x="533.5" y="-10"/>
		</contour>
		<contour>
			<point x="491" y="860" type="line"/>
			<point x="491" y="790" type="line"/>
			<point x="221" y="790" type="line"/>
			<point x="221" y="860" type="line"/>
		</contour>
	</outline>
</glyph>
<glyph name="Obreve" format="2">
	<unicode hex="014E"/>
	<advance width="711"/>
	<outline>
		<contour>
			<point x="355.5" y="635" type="curve" smooth="yes"/>
			<point x="215.25" y="635"/>
			<point x="129" y="521.75"/>
			<point x="129" y="340" type="curve" smooth="yes"/>
			<point x="129" y="158.25"/>
			<point x="215.25" y="45"/>
			<point x="355.5" y="45" type="curve" smooth="yes"/>
			<point x="495.75" y="45"/>
			<point x="582" y="158.25"/>
			<point x="582" y="340" type="curve" smooth="yes"/>
			<point x="582" y="521.75"/>
			<point x="495.75" y="635"/>
		</contour>
		<contour>
			<point x="355.5" y="-10" type="curve" smooth="yes"/>
			<point x="177.5" y="-10"/>
			<point x="67.5" y="123.75"/>
			<point x="67.5" y="340" type="curve" smooth="yes"/>
			<point x="67.5" y="556.25"/>
			<point x="177.5" y="690"/>
			<point x="355.5" y="690" type="curve" smooth="yes"/>
			<point x="533.5" y="690"/>
			<point x="643.5" y="556.25"/>
			<point x="643.5" y="340" type="curve" smooth="yes"/>
			<point x="643.5" y="123.75"/>
			<point x="533.5" y="-10"/>
		</contour>
		<contour>
			<point x="201" y="880" type="curve"/>
			<point x="281" y="880" type="line"/>
			<point x="281" y="820"/>
			<point x="321" y="800"/>
			<point x="356" y="800" type="curve" smooth="yes"/>
			<point x="391" y="800"/>
			<point x="431" y="820"/>
			<point x="431" y="880" type="curve"/>
			<point x="511" y="880" type="line"/>
			<point x="511" y="780"/>
			<point x="436" y="740"/>
			<point x="356" y="740" type="curve" smooth="yes"/>
			<point x="276" y="740"/>
			<point x="201" y="780"/>
		</contour>
	</outline>
</glyph>
<glyph name="Ohungarumlaut" format="2">
	<unicode hex="0150"/>
	<advance width="711"/>
	<outline>
		<contour>
			<point x="355.5" y="635" type="curve" smooth="yes"/>
			<point x="215.25" y="635"/>
			<point x="129" y="521.75"/>
			<point x="129" y="340" type="curve" smooth="yes"/>
			<point x="129" y="158.25"/>
			<point x="215.25" y="45"/>
			<point x="355.5" y="45" type="curve" smooth="yes"/>
			<point x="495.75" y="45"/>
			<point x="582" y="158.25"/>
			<point x="582" y="340" type="curve" smooth="yes"/>
			<point x="582" y="521.75"/>
			<point x="495.75" y="635"/>
		</contour>
		<contour>
			<point x="355.5" y="-10" type="curve" smooth="yes"/>
			<point x="177.5" y="-10"/>
			<point x="67.5" y="123.75"/>
			<point x="67.5" y="340" type="curve" smooth="yes"/>
			<point x="67.5" y="556.25"/>
			<point x="177.5" y="690"/>
			<point x="355.5" y="690" type="curve" smooth="yes"/>
			<point x="533.5" y="690"/>
			<point x="643.5" y="556.25"/>
			<point x="643.5" y="340" type="curve" smooth="yes"/>
			<point x="643.5" y="123.75"/>
			<point x="533.5" y="-10"/>
		</contour>
		<contour>
			<point x="363.5" y="910" type="line"/>
			<point x="302.5" y="730" type="line"/>
			<point x="238.5" y="730" type="line"/>
			<point x="283.5" y="910" type="line"/>
		</contour>
		<contour>
			<point x="473.5" y="910" type="line"/>
			<point x="397.5" y="730" type="line"/>
			<point x="333.5" y="730" type="line"/>
			<point x="393.5" y="910" type="line"/>
		</contour>
	</outline>
</glyph>
<glyph name="Sacute" format="2">
	<unicode hex="015A"/>
	<advance width="582"/>
	<outline>
		<contour>
			<point x="322" y="750" type="line"/>
			<point x="258" y="750" type="line"/>
			<point x="308" y="910" type="line"/>
			<point x="388" y="910" type="line"/>
		</contour>
		<contour>
			<point x="46" y="200.5" type="curve"/>
			<point x="110" y="200.5" type="line"/>
			<point x="110" y="107.25"/>
			<point x="181.75" y="45"/>
			<point x="294.75" y="45" type="curve" smooth="yes"/>
			<point x="404" y="45"/>
			<point x="473" y="99.5"/>
			<point x="473" y="181.25" type="curve" smooth="yes"/>
			<point x="473" y="241.5"/>
			<point x="437.25" y="281.25"/>
			<point x="364.25" y="303" type="curve"/>
			<point x="179.5" y="367.75" type="line"/>
			<point x="109.75" y="391"/>
			<point name=".hr01" x="64.75" y="448"/>
			<point x="64.75" y="519.75" type="curve" smooth="yes"/>
			<point x="64.75" y="623.25"/>
			<point x="149.75" y="690"/>
			<point x="287.75" y="690" type="curve" smooth="yes"/>
			<point x="432.5" y="690"/>
			<point x="535" y="606.5"/>
			<point x="535" y="496" type="curve"/>
			<point x="471" y="496" type="line"/>
			<point x="471" y="577.25"/>
			<point x="395.25" y="635"/>
			<point x="274.25" y="635" type="curve" smooth="yes"/>
			<point x="184.25" y="635"/>
			<point x="128.75" y="591.75"/>
			<point x="128.75" y="520" type="curve" smooth="yes"/>
			<point x="128.75" y="464.75"/>
			<point x="164.25" y="421.25"/>
			<point x="225.25" y="402.5" type="curve"/>
			<point x="412.25" y="339" type="line" smooth="yes"/>
			<point x="495.75" y="311.25"/>
			<point x="537" y="259.75"/>
			<point x="537" y="178.25" type="curve" smooth="yes"/>
			<point x="537" y="61.5"/>
			<point x="448.5" y="-10"/>
			<point x="295.25" y="-10" type="curve" smooth="yes"/>
			<point x="142.75" y="-10"/>
			<point name=".hr02" x="46" y="73"/>
		</contour>
	</outline>
</glyph>
<glyph name="Scircumflex" format="2">
	<unicode hex="015C"/>
	<advance width="582"/>
	<outline>
		<contour>
			<point x="46" y="200.5" type="curve"/>
			<point x="110" y="200.5" type="line"/>
			<point x="110" y="107.25"/>
			<point x="181.75" y="45"/>
			<point x="294.75" y="45" type="curve" smooth="yes"/>
			<point x="404" y="45"/>
			<point x="473" y="99.5"/>
			<point x="473" y="181.25" type="curve" smooth="yes"/>
			<point x="473" y="241.5"/>
			<point x="437.25" y="281.25"/>
			<point x="364.25" y="303" type="curve"/>
			<point x="179.5" y="367.75" type="line"/>
			<point x="109.75" y="391"/>
			<point name=".hr01" x="64.75" y="448"/>
			<point x="64.75" y="519.75" type="curve" smooth="yes"/>
			<point x="64.75" y="623.25"/>
			<point x="149.75" y="690"/>
			<point x="287.75" y="690" type="curve" smooth="yes"/>
			<point x="432.5" y="690"/>
			<point x="535" y="606.5"/>
			<point x="535" y="496" type="curve"/>
			<point x="471" y="496" type="line"/>
			<point x="471" y="577.25"/>
			<point x="395.25" y="635"/>
			<point x="274.25" y="635" type="curve" smooth="yes"/>
			<point x="184.25" y="635"/>
			<point x="128.75" y="591.75"/>
			<point x="128.75" y="520" type="curve" smooth="yes"/>
			<point x="128.75" y="464.75"/>
			<point x="164.25" y="421.25"/>
			<point x="225.25" y="402.5" type="curve"/>
			<point x="412.25" y="339" type="line" smooth="yes"/>
			<point x="495.75" y="311.25"/>
			<point x="537" y="259.75"/>
			<point x="537" y="178.25" type="curve" smooth="yes"/>
			<point x="537" y="61.5"/>
			<point x="448.5" y="-10"/>
			<point x="295.25" y="-10" type="curve" smooth="yes"/>
			<point x="142.75" y="-10"/>
			<point name=".hr02" x="46" y="73"/>
		</contour>
		<contour>
			<point x="290" y="874.5" type="line"/>
			<point x="181" y="750" type="line"/>
			<point x="142.5" y="750" type="line"/>
			<point x="257.5" y="915" type="line"/>
			<point x="322.5" y="915" type="line"/>
			<point x="437.5" y="750" type="line"/>
			<point x="399" y="750" type="line"/>
		</contour>
	</outline>
</glyph>
<glyph name="scircumflex" format="2">
	<unicode hex="015D"/>
	<advance width="452"/>
	<outline>
		<contour>
			<point x="35" y="136" type="curve"/>
			<point x="114" y="136" type="line"/>
			<point x="114" y="62"/>
			<point x="192" y="55"/>
			<point x="237" y="55" type="curve" smooth="yes"/>
			<point x="261" y="55"/>
			<point x="335" y="67"/>
			<point x="335" y="130" type="curve" smooth="yes"/>
			<point x="335" y="236"/>
			<point name=".hr01" x="55" y="185"/>
			<point x="55" y="340" type="curve" smooth="yes"/>
			<point x="55" y="407"/>
			<point x="105" y="470"/>
			<point x="215" y="470" type="curve" smooth="yes"/>
			<point x="307" y="470"/>
			<point x="397" y="414"/>
			<point x="397" y="336" type="curve"/>
			<point x="316" y="336" type="line"/>
			<point x="304" y="378"/>
			<point x="265" y="405"/>
			<point x="215" y="405" type="curve" smooth="yes"/>
			<point x="170" y="405"/>
			<point x="135" y="385"/>
			<point x="135" y="340" type="curve" smooth="yes"/>
			<point x="135" y="263"/>
			<point x="417" y="288"/>
			<point x="417" y="130" type="curve" smooth="yes"/>
			<point x="417" y="10"/>
			<point x="314" y="-10"/>
			<point x="237" y="-10" type="curve" smooth="yes"/>
			<point x="133" y="-10"/>
			<point name=".hr02" x="35" y="52"/>
		</contour>
		<contour>
			<point x="210" y="644.5" type="line"/>
			<point x="101" y="520" type="line"/>
			<point x="62.5" y="520" type="line"/>
			<point x="177.5" y="685" type="line"/>
			<point x="242.5" y="685" type="line"/>
			<point x="357.5" y="520" type="line"/>
			<point x="319" y="520" type="line"/>
		</contour>
	</outline>
</glyph>
<glyph name="scedilla" format="2">
	<unicode hex="015F"/>
	<advance width="452"/>
	<outline>
		<contour>
			<point x="141" y="-193" type="curve"/>
			<point x="141" y="-164" type="line"/>
			<point x="154" y="-167"/>
			<point x="175" y="-170"/>
			<point x="195" y="-170" type="curve" smooth="yes"/>
			<point x="236" y="-170"/>
			<point x="254" y="-148"/>
			<point x="254" y="-118" type="curve" smooth="yes"/>
			<point x="254" y="-82"/>
			<point x="205" y="-70"/>
			<point x="175" y="-67" type="curve"/>
			<point x="202" y="-8" type="line"/>
			<point x="112" y="4"/>
			<point x="35" y="61"/>
			<point x="35" y="136" type="curve"/>
			<point x="114" y="136" type="line"/>
			<point x="114" y="62"/>
			<point x="192" y="55"/>
			<point x="237" y="55" type="curve" smooth="yes"/>
			<point x="261" y="55"/>
			<point x="335" y="67"/>
			<point x="335" y="130" type="curve" smooth="yes"/>
			<point x="335" y="236"/>
			<point name=".hr01" x="55" y="185"/>
			<point x="55" y="340" type="curve" smooth="yes"/>
			<point x="55" y="407"/>
			<point x="105" y="470"/>
			<point x="215" y="470" type="curve" smooth="yes"/>
			<point x="301" y="470"/>
			<point x="365" y="423"/>
			<point x="388" y="373" type="curve"/>
			<point x="394" y="361"/>
			<point x="397" y="348"/>
			<point x="397" y="336" type="curve"/>
			<point x="316" y="336" type="line"/>
			<point x="304" y="378"/>
			<point x="265" y="405"/>
			<point x="215" y="405" type="curve" smooth="yes"/>
			<point x="170" y="405"/>
			<point x="135" y="385"/>
			<point x="135" y="340" type="curve" smooth="yes"/>
			<point x="135" y="263"/>
			<point x="417" y="288"/>
			<point x="417" y="130" type="curve" smooth="yes"/>
			<point x="417" y="23"/>
			<point x="335" y="-5"/>
			<point x="262" y="-9" type="curve"/>
			<point x="244" y="-46" type="line"/>
			<point x="267" y="-54"/>
			<point x="311" y="-70"/>
			<point x="311" y="-123" type="curve" smooth="yes"/>
			<point x="311" y="-177"/>
			<point x="266" y="-209"/>
			<point x="211" y="-209" type="curve" smooth="yes"/>
			<point x="178" y="-209"/>
			<point x="155" y="-200"/>
		</contour>
	</outline>
</glyph>
<glyph name="Scaron" format="2">
	<unicode hex="0160"/>
	<advance width="582"/>
	<outline>
		<contour>
			<point x="46" y="200.5" type="curve"/>
			<point x="110" y="200.5" type="line"/>
			<point x="110" y="107.25"/>
			<point x="181.75" y="45"/>
			<point x="294.75" y="45" type="curve" smooth="yes"/>
			<point x="404" y="45"/>
			<point x="473" y="99.5"/>
			<point x="473" y="181.25" type="curve" smooth="yes"/>
			<point x="473" y="241.5"/>
			<point x="437.25" y="281.25"/>
			<point x="364.25" y="303" type="curve"/>
			<point x="179.5" y="367.75" type="line"/>
			<point x="109.75" y="391"/>
			<point name=".hr01" x="64.75" y="448"/>
			<point x="64.75" y="519.75" type="curve" smooth="yes"/>
			<point x="64.75" y="623.25"/>
			<point x="149.75" y="690"/>
			<point x="287.75" y="690" type="curve" smooth="yes"/>
			<point x="432.5" y="690"/>
			<point x="535" y="606.5"/>
			<point x="535" y="496" type="curve"/>
			<point x="471" y="496" type="line"/>
			<point x="471" y="577.25"/>
			<point x="395.25" y="635"/>
			<point x="274.25" y="635" type="curve" smooth="yes"/>
			<point x="184.25" y="635"/>
			<point x="128.75" y="591.75"/>
			<point x="128.75" y="520" type="curve" smooth="yes"/>
			<point x="128.75" y="464.75"/>
			<point x="164.25" y="421.25"/>
			<point x="225.25" y="402.5" type="curve"/>
			<point x="412.25" y="339" type="line" smooth="yes"/>
			<point x="495.75" y="311.25"/>
			<point x="537" y="259.75"/>
			<point x="537" y="178.25" type="curve" smooth="yes"/>
			<point x="537" y="61.5"/>
			<point x="448.5" y="-10"/>
			<point x="295.25" y="-10" type="curve" smooth="yes"/>
			<point x="142.75" y="-10"/>
			<point name=".hr02" x="46" y="73"/>
		</contour>
		<contour>
			<point x="330" y="750" type="line"/>
			<point x="250" y="750" type="line"/>
			<point x="150" y="910" type="line"/>
			<point x="214" y="910" type="line"/>
			<point x="290" y="825" type="line"/>
			<point x="366" y="910" type="line"/>
			<point x="430" y="910" type="line"/>
		</contour>
	</outline>
</glyph>
<glyph name="uni0162" format="2">
	<unicode hex="0162"/>
	<advance width="480"/>
	<outline>
		<contour>
			<point x="270.75" y="625" type="line"/>
			<point x="270.75" y="0" type="line"/>
			<point x="209.25" y="0" type="line"/>
			<point x="209.25" y="625" type="line"/>
			<point x="10" y="625" type="line"/>
			<point x="10" y="680" type="line"/>
			<point x="470" y="680" type="line"/>
			<point x="470" y="625" type="line"/>
		</contour>
		<contour>
			<point x="222" y="-140" type="line"/>
			<point name=".hr01" x="200" y="-140" type="line"/>
			<point x="200" y="-60" type="line"/>
			<point x="280" y="-60" type="line"/>
			<point x="280" y="-140" type="line"/>
			<point x="234" y="-270" type="line"/>
			<point x="200" y="-270" type="line"/>
		</contour>
	</outline>
</glyph>
<glyph name="uni0163" format="2">
	<unicode hex="0163"/>
	<advance width="331"/>
	<outline>
		<contour>
			<point x="105" y="400" type="line"/>
			<point x="30" y="400" type="line"/>
			<point x="30" y="440" type="line"/>
			<point x="105" y="460" type="line"/>
			<point x="105" y="480" type="line"/>
			<point x="125" y="610" type="line"/>
			<point x="185" y="610" type="line"/>
			<point x="185" y="460" type="line"/>
			<point x="269" y="460" type="line"/>
			<point x="269" y="400" type="line"/>
			<point x="185" y="400" type="line"/>
			<point x="185" y="181" type="line" smooth="yes"/>
			<point x="185" y="83"/>
			<point x="197" y="56"/>
			<point x="266" y="56" type="curve" smooth="yes"/>
			<point x="300" y="56" type="line"/>
			<point x="300" y="-9" type="line"/>
			<point x="267" y="-9" type="line"/>
			<point x="117" y="0"/>
			<point x="105" y="44"/>
			<point x="105" y="180" type="curve" smooth="yes"/>
		</contour>
		<contour>
			<point name=".hr01" x="126" y="-140" type="line"/>
			<point x="126" y="-60" type="line"/>
			<point x="206" y="-60" type="line"/>
			<point x="206" y="-140" type="line"/>
			<point x="160" y="-270" type="line"/>
			<point x="126" y="-270" type="line"/>
			<point x="148" y="-140" type="line"/>
		</contour>
	</outline>
</glyph>
<glyph name="Tcaron" format="2">
	<unicode hex="0164"/>
	<advance width="480"/>
	<outline>
		<contour>
			<point x="270.75" y="625" type="line"/>
			<point x="270.75" y="0" type="line"/>
			<point x="209.25" y="0" type="line"/>
			<point x="209.25" y="625" type="line"/>
			<point x="10" y="625" type="line"/>
			<point x="10" y="680" type="line"/>
			<point x="470" y="680" type="line"/>
			<point x="470" y="625" type="line"/>
		</contour>
		<contour>
			<point x="280" y="740" type="line"/>
			<point x="200" y="740" type="line"/>
			<point x="100" y="900" type="line"/>
			<point x="164" y="900" type="line"/>
			<point x="240" y="815" type="line"/>
			<point x="316" y="900" type="line"/>
			<point x="380" y="900" type="line"/>
		</contour>
	</outline>
</glyph>
<glyph name="Utilde" format="2">
	<unicode hex="0168"/>
	<advance width="580"/>
	<outline>
		<contour>
			<point x="50" y="240" type="curve" smooth="yes"/>
			<point x="50" y="680" type="line"/>
			<point x="110" y="680" type="line"/>
			<point x="110" y="265" type="line" smooth="yes"/>
			<point x="110" y="112.75"/>
			<point x="175" y="47.5"/>
			<point x="290" y="47.5" type="curve" smooth="yes"/>
			<point x="405" y="47.5"/>
			<point x="470" y="112.75"/>
			<point x="470" y="265" type="curve" smooth="yes"/>
			<point x="470" y="680" type="line"/>
			<point x="530" y="680" type="line"/>
			<point x="530" y="240" type="line" smooth="yes"/>
			<point x="530" y="74"/>
			<point x="445" y="-10"/>
			<point x="290" y="-10" type="curve" smooth="yes"/>
			<point x="135" y="-10"/>
			<point x="50" y="74"/>
		</contour>
		<contour>
			<point x="187" y="760" type="curve"/>
			<point x="137" y="760" type="line"/>
			<point x="151" y="847"/>
			<point x="187" y="880"/>
			<point name=".hr01" x="227" y="880" type="curve" smooth="yes"/>
			<point x="252" y="880"/>
			<point x="274" y="870"/>
			<point x="296" y="859" type="curve"/>
			<point x="312" y="850"/>
			<point x="333" y="840"/>
			<point name=".hr02" x="353" y="840" type="curve" smooth="yes"/>
			<point x="373" y="840"/>
			<point x="388" y="852"/>
			<point x="393" y="880" type="curve"/>
			<point name=".hr03" x="443" y="880" type="line"/>
			<point x="429" y="793"/>
			<point x="393" y="760"/>
			<point name=".hr04" x="353" y="760" type="curve" smooth="yes"/>
			<point x="328" y="760"/>
			<point x="307" y="769"/>
			<point x="286" y="780" type="curve" smooth="yes"/>
			<point x="269" y="789"/>
			<point x="247" y="800"/>
			<point name=".hr05" x="227" y="800" type="curve" smooth="yes"/>
			<point x="207" y="800"/>
			<point x="192" y="788"/>
		</contour>
	</outline>
</glyph>
<glyph name="Umacron" format="2">
	<unicode hex="016A"/>
	<advance width="560"/>
	<outline>
		<contour>
			<point x="415" y="750" type="line"/>
			<point x="145" y="750" type="line"/>
			<point x="145" y="820" type="line"/>
			<point x="415" y="820" type="line"/>
		</contour>
		<contour>
			<point x="40" y="240" type="curve" smooth="yes"/>
			<point x="40" y="680" type="line"/>
			<point x="100" y="680" type="line"/>
			<point x="100" y="265" type="line" smooth="yes"/>
			<point x="100" y="112.75"/>
			<point x="165" y="47.5"/>
			<point x="280" y="47.5" type="curve" smooth="yes"/>
			<point x="395" y="47.5"/>
			<point x="460" y="112.75"/>
			<point x="460" y="265" type="curve" smooth="yes"/>
			<point x="460" y="680" type="line"/>
			<point x="520" y="680" type="line"/>
			<point x="520" y="240" type="line" smooth="yes"/>
			<point x="520" y="74"/>
			<point x="435" y="-10"/>
			<point x="280" y="-10" type="curve" smooth="yes"/>
			<point x="125" y="-10"/>
			<point x="40" y="74"/>
		</contour>
	</outline>
</glyph>
<glyph name="Ubreve" format="2">
	<unicode hex="016C"/>
	<advance width="560"/>
	<outline>
		<contour>
			<point x="125" y="890" type="curve"/>
			<point x="205" y="890" type="line"/>
			<point x="205" y="830"/>
			<point x="245" y="810"/>
			<point x="280" y="810" type="curve" smooth="yes"/>
			<point x="315" y="810"/>
			<point x="355" y="830"/>
			<point x="355" y="890" type="curve"/>
			<point x="435" y="890" type="line"/>
			<point x="435" y="790"/>
			<point x="360" y="750"/>
			<point x="280" y="750" type="curve" smooth="yes"/>
			<point x="200" y="750"/>
			<point x="125" y="790"/>
		</contour>
		<contour>
			<point x="40" y="240" type="curve" smooth="yes"/>
			<point x="40" y="680" type="line"/>
			<point x="100" y="680" type="line"/>
			<point x="100" y="265" type="line" smooth="yes"/>
			<point x="100" y="112.75"/>
			<point x="165" y="47.5"/>
			<point x="280" y="47.5" type="curve" smooth="yes"/>
			<point x="395" y="47.5"/>
			<point x="460" y="112.75"/>
			<point x="460" y="265" type="curve" smooth="yes"/>
			<point x="460" y="680" type="line"/>
			<point x="520" y="680" type="line"/>
			<point x="520" y="240" type="line" smooth="yes"/>
			<point x="520" y="74"/>
			<point x="435" y="-10"/>
			<point x="280" y="-10" type="curve" smooth="yes"/>
			<point x="125" y="-10"/>
			<point x="40" y="74"/>
		</contour>
	</outline>
</glyph>
<glyph name="Uring" format="2">
	<unicode hex="016E"/>
	<advance width="560"/>
	<outline>
		<contour>
			<point x="240" y="819" type="curve" smooth="yes"/>
			<point x="240" y="802"/>
			<point x="254" y="788"/>
			<point x="271" y="788" type="curve" smooth="yes"/>
			<point x="288" y="788"/>
			<point x="302" y="802"/>
			<point x="302" y="819" type="curve" smooth="yes"/>
			<point x="302" y="836"/>
			<point x="288" y="850"/>
			<point x="271" y="850" type="curve" smooth="yes"/>
			<point x="254" y="850"/>
			<point x="240" y="836"/>
		</contour>
		<contour>
			<point x="40" y="240" type="curve" smooth="yes"/>
			<point x="40" y="680" type="line"/>
			<point x="100" y="680" type="line"/>
			<point x="100" y="265" type="line" smooth="yes"/>
			<point x="100" y="112.75"/>
			<point x="165" y="47.5"/>
			<point x="280" y="47.5" type="curve" smooth="yes"/>
			<point x="395" y="47.5"/>
			<point x="460" y="112.75"/>
			<point x="460" y="265" type="curve" smooth="yes"/>
			<point x="460" y="680" type="line"/>
			<point x="520" y="680" type="line"/>
			<point x="520" y="240" type="line" smooth="yes"/>
			<point x="520" y="74"/>
			<point x="435" y="-10"/>
			<point x="280" y="-10" type="curve" smooth="yes"/>
			<point x="125" y="-10"/>
			<point x="40" y="74"/>
		</contour>
		<contour>
			<point x="193" y="819" type="curve" smooth="yes"/>
			<point x="193" y="862"/>
			<point x="228" y="897"/>
			<point x="271" y="897" type="curve" smooth="yes"/>
			<point x="314" y="897"/>
			<point x="349" y="862"/>
			<point x="349" y="819" type="curve" smooth="yes"/>
			<point x="349" y="776"/>
			<point x="314" y="741"/>
			<point x="271" y="741" type="curve" smooth="yes"/>
			<point x="228" y="741"/>
			<point x="193" y="776"/>
		</contour>
	</outline>
</glyph>
<glyph name="Uhungarumlaut" format="2">
	<unicode hex="0170"/>
	<advance width="580"/>
	<outline>
		<contour>
			<point x="50" y="240" type="curve" smooth="yes"/>
			<point x="50" y="680" type="line"/>
			<point x="110" y="680" type="line"/>
			<point x="110" y="265" type="line" smooth="yes"/>
			<point x="110" y="112.75"/>
			<point x="175" y="47.5"/>
			<point x="290" y="47.5" type="curve" smooth="yes"/>
			<point x="405" y="47.5"/>
			<point x="470" y="112.75"/>
			<point x="470" y="265" type="curve" smooth="yes"/>
			<point x="470" y="680" type="line"/>
			<point x="530" y="680" type="line"/>
			<point x="530" y="240" type="line" smooth="yes"/>
			<point x="530" y="74"/>
			<point x="445" y="-10"/>
			<point x="290" y="-10" type="curve" smooth="yes"/>
			<point x="135" y="-10"/>
			<point x="50" y="74"/>
		</contour>
		<contour>
			<point x="332" y="730" type="line"/>
			<point x="268" y="730" type="line"/>
			<point x="328" y="910" type="line"/>
			<point x="408" y="910" type="line"/>
		</contour>
		<contour>
			<point x="237" y="730" type="line"/>
			<point x="173" y="730" type="line"/>
			<point x="218" y="910" type="line"/>
			<point x="298" y="910" type="line"/>
		</contour>
	</outline>
</glyph>
<glyph name="wcircumflex" format="2">
	<unicode hex="0175"/>
	<advance width="724"/>
	<outline>
		<contour>
			<point x="156" y="0" type="line"/>
			<point x="35" y="460" type="line"/>
			<point x="115" y="460" type="line"/>
			<point x="215" y="65" type="line"/>
			<point x="322" y="460" type="line"/>
			<point x="402" y="460" type="line"/>
			<point x="502" y="65" type="line"/>
			<point x="609" y="460" type="line"/>
			<point x="689" y="460" type="line"/>
			<point x="553" y="0" type="line"/>
			<point x="443" y="0" type="line"/>
			<point x="360" y="317" type="line"/>
			<point x="266" y="0" type="line"/>
		</contour>
		<contour>
			<point name=".hr02" x="266" y="520" type="line"/>
			<point x="202" y="520" type="line"/>
			<point x="322" y="700" type="line"/>
			<point x="402" y="700" type="line"/>
			<point x="522" y="520" type="line"/>
			<point x="458" y="520" type="line"/>
			<point name=".hr01" x="362" y="647" type="line"/>
		</contour>
	</outline>
</glyph>
<glyph name="ycircumflex" format="2">
	<unicode hex="0177"/>
	<advance width="460"/>
	<outline>
		<contour>
			<point x="30" y="460" type="curve"/>
			<point x="110" y="460" type="line"/>
			<point x="137" y="398"/>
			<point x="216" y="219"/>
			<point x="239" y="98" type="curve"/>
			<point x="354" y="460" type="line"/>
			<point x="430" y="460" type="line"/>
			<point x="258" y="-49" type="line" smooth="yes"/>
			<point x="252" y="-67"/>
			<point x="225" y="-200"/>
			<point x="150" y="-200" type="curve" smooth="yes"/>
			<point x="108" y="-200"/>
			<point x="89" y="-198"/>
			<point x="58" y="-190" type="curve"/>
			<point x="58" y="-120" type="line"/>
			<point x="78" y="-129"/>
			<point x="94" y="-135"/>
			<point x="116" y="-135" type="curve" smooth="yes"/>
			<point x="122" y="-135" type="line" smooth="yes"/>
			<point x="163" y="-135"/>
			<point x="187" y="-54"/>
			<point x="198" y="-12" type="curve"/>
			<point x="172" y="145"/>
			<point x="70" y="374"/>
		</contour>
		<contour>
			<point x="134" y="520" type="line"/>
			<point name=".hr02" x="70" y="520" type="line"/>
			<point x="190" y="700" type="line"/>
			<point x="270" y="700" type="line"/>
			<point x="390" y="520" type="line"/>
			<point x="326" y="520" type="line"/>
			<point x="230" y="647" type="line"/>
		</contour>
	</outline>
</glyph>
<glyph name="Zacute" format="2">
	<unicode hex="0179"/>
	<advance width="510"/>
	<outline>
		<contour>
			<point x="460" y="0" type="line"/>
			<point x="50" y="0" type="line"/>
			<point x="50" y="80" type="line"/>
			<point x="370" y="620" type="line"/>
			<point x="50" y="620" type="line"/>
			<point x="50" y="700" type="line"/>
			<point x="460" y="700" type="line"/>
			<point x="460" y="620" type="line"/>
			<point x="140" y="80" type="line"/>
			<point x="460" y="80" type="line"/>
		</contour>
		<contour>
			<point x="254" y="760" type="line"/>
			<point x="190" y="760" type="line"/>
			<point x="240" y="940" type="line"/>
			<point x="320" y="940" type="line"/>
		</contour>
	</outline>
</glyph>
<glyph name="zdotaccent" format="2">
	<unicode hex="017C"/>
	<advance width="450"/>
	<outline>
		<contour>
			<point x="410" y="0" type="line"/>
			<point x="40" y="0" type="line"/>
			<point x="40" y="65" type="line"/>
			<point x="310" y="395" type="line"/>
			<point x="40" y="395" type="line"/>
			<point x="40" y="460" type="line"/>
			<point x="410" y="460" type="line"/>
			<point x="410" y="395" type="line"/>
			<point x="150" y="65" type="line"/>
			<point x="410" y="65" type="line"/>
		</contour>
		<contour>
			<point x="265" y="520" type="line"/>
			<point x="185" y="520" type="line"/>
			<point x="185" y="600" type="line"/>
			<point x="265" y="600" type="line"/>
		</contour>
	</outline>
</glyph>
<glyph name="florin" format="2">
	<unicode hex="0192"/>
	<advance width="495"/>
	<outline>
		<contour>
			<point x="22" y="-176" type="curve"/>
			<point x="36" y="-109" type="line"/>
			<point x="65" y="-114" type="line" smooth="yes"/>
			<point x="82" y="-117"/>
			<point x="94" y="-118"/>
			<point x="103" y="-118" type="curve" smooth="yes"/>
			<point x="159" y="-118"/>
			<point x="157" y="-60"/>
			<point x="164" y="-20" type="curve" smooth="yes"/>
			<point x="236" y="392" type="line"/>
			<point x="149" y="392" type="line"/>
			<point x="158" y="452" type="line"/>
			<point x="247" y="452" type="line"/>
			<point x="256" y="511" type="line"/>
			<point x="270" y="590"/>
			<point x="294" y="640"/>
			<point x="380" y="640" type="curve" smooth="yes"/>
			<point x="415" y="640"/>
			<point x="440" y="631"/>
			<point x="465" y="625" type="curve" smooth="yes"/>
			<point x="473" y="623" type="line"/>
			<point x="458" y="556" type="line"/>
			<point x="427" y="563"/>
			<point x="412" y="567"/>
			<point x="392" y="567" type="curve" smooth="yes"/>
			<point x="381" y="567"/>
			<point x="374" y="566"/>
			<point x="367" y="563" type="curve" smooth="yes"/>
			<point x="347" y="554"/>
			<point x="342" y="532"/>
			<point x="335" y="498" type="curve" smooth="yes"/>
			<point x="326" y="452" type="line"/>
			<point x="415" y="452" type="line"/>
			<point x="404" y="392" type="line"/>
			<point x="315" y="392" type="line"/>
			<point x="238" y="-43" type="line"/>
			<point x="221" y="-127"/>
			<point x="210" y="-172"/>
			<point x="151" y="-184" type="curve" smooth="yes"/>
			<point x="141" y="-186"/>
			<point x="131" y="-187"/>
			<point x="119" y="-187" type="curve" smooth="yes"/>
			<point x="113" y="-187"/>
			<point x="78" y="-187"/>
		</contour>
	</outline>
</glyph>
<glyph name="uni01CA" format="2">
	<unicode hex="01CA"/>
	<advance width="886"/>
	<outline>
		<contour>
			<point x="36.5" y="515" type="curve" smooth="yes"/>
			<point x="36.5" y="0" type="line"/>
			<point x="-25" y="0" type="line"/>
			<point x="-25" y="680" type="line"/>
			<point x="43" y="680" type="line"/>
			<point x="382.75" y="100.75" type="line"/>
			<point x="380.5" y="125.25"/>
			<point x="380.5" y="147.75"/>
			<point x="380.5" y="165" type="curve" smooth="yes"/>
			<point x="380.5" y="680" type="line"/>
			<point x="442" y="680" type="line"/>
			<point x="442" y="0" type="line"/>
			<point x="374" y="0" type="line"/>
			<point x="34.25" y="579.25" type="line"/>
			<point x="36.5" y="554.75"/>
			<point x="36.5" y="532.25"/>
		</contour>
		<contour>
			<point x="686.5" y="0" type="curve" smooth="yes"/>
			<point x="650" y="0" type="line"/>
			<point x="650" y="55" type="line"/>
			<point x="676" y="55" type="line" smooth="yes"/>
			<point x="716" y="55"/>
			<point x="748" y="108.5"/>
			<point x="748" y="172.5" type="curve" smooth="yes"/>
			<point x="748" y="680" type="line"/>
			<point x="809.5" y="680" type="line"/>
			<point x="809.5" y="184" type="line" smooth="yes"/>
			<point x="809.5" y="72.5"/>
			<point x="770" y="0"/>
		</contour>
	</outline>
</glyph>
<glyph name="uni01CB" format="2">
	<unicode hex="01CB"/>
	<advance width="830"/>
	<outline>
		<contour>
			<point x="532" y="-100" type="curve"/>
			<point x="597" y="-100" type="line"/>
			<point x="600" y="-132"/>
			<point x="621" y="-140"/>
			<point x="636" y="-140" type="curve" smooth="yes"/>
			<point x="660" y="-140"/>
			<point x="680" y="-136"/>
			<point x="680" y="-80" type="curve" smooth="yes"/>
			<point x="680" y="460" type="line"/>
			<point x="760" y="460" type="line"/>
			<point x="760" y="-60" type="line" smooth="yes"/>
			<point x="760" y="-181"/>
			<point x="704" y="-200"/>
			<point x="640" y="-200" type="curve" smooth="yes"/>
			<point x="584" y="-200"/>
			<point x="536" y="-162"/>
		</contour>
		<contour>
			<point x="36.5" y="515" type="curve" smooth="yes"/>
			<point x="36.5" y="0" type="line"/>
			<point x="-25" y="0" type="line"/>
			<point x="-25" y="680" type="line"/>
			<point x="43" y="680" type="line"/>
			<point x="382.75" y="100.75" type="line"/>
			<point x="380.5" y="125.25"/>
			<point x="380.5" y="147.75"/>
			<point x="380.5" y="165" type="curve" smooth="yes"/>
			<point x="380.5" y="680" type="line"/>
			<point x="442" y="680" type="line"/>
			<point x="442" y="0" type="line"/>
			<point x="374" y="0" type="line"/>
			<point x="34.25" y="579.25" type="line"/>
			<point x="36.5" y="554.75"/>
			<point x="36.5" y="532.25"/>
		</contour>
		<contour>
			<point x="760" y="640" type="line"/>
			<point x="760" y="560" type="line"/>
			<point name=".hr01" x="680" y="560" type="line"/>
			<point x="680" y="640" type="line"/>
		</contour>
	</outline>
</glyph>
<glyph name="uni01CF" format="2">
	<unicode hex="01CF"/>
	<advance width="237"/>
	<outline>
		<contour>
			<point x="149" y="680" type="line"/>
			<point x="149" y="0" type="line"/>
			<point x="87.5" y="0" type="line"/>
			<point x="87.5" y="680" type="line"/>
		</contour>
		<contour>
			<point x="158.25" y="740" type="line"/>
			<point x="78.25" y="740" type="line"/>
			<point x="-21.75" y="900" type="line"/>
			<point x="42.25" y="900" type="line"/>
			<point x="118.25" y="815" type="line"/>
			<point x="194.25" y="900" type="line"/>
			<point x="258.25" y="900" type="line"/>
		</contour>
	</outline>
</glyph>
<glyph name="uni01D0" format="2">
	<unicode hex="01D0"/>
	<advance width="280"/>
	<outline>
		<contour>
			<point x="160" y="460" type="line"/>
			<point x="160" y="0" type="line"/>
			<point x="100" y="0" type="line"/>
			<point x="100" y="460" type="line"/>
		</contour>
		<contour>
			<point x="180" y="520" type="line"/>
			<point x="100" y="520" type="line"/>
			<point x="0" y="680" type="line"/>
			<point x="64" y="680" type="line"/>
			<point x="140" y="595" type="line"/>
			<point x="216" y="680" type="line"/>
			<point x="280" y="680" type="line"/>
		</contour>
	</outline>
</glyph>
<glyph name="uni01D1" format="2">
	<unicode hex="01D1"/>
	<advance width="711"/>
	<outline>
		<contour>
			<point x="355.5" y="635" type="curve" smooth="yes"/>
			<point x="215.25" y="635"/>
			<point x="129" y="521.75"/>
			<point x="129" y="340" type="curve" smooth="yes"/>
			<point x="129" y="158.25"/>
			<point x="215.25" y="45"/>
			<point x="355.5" y="45" type="curve" smooth="yes"/>
			<point x="495.75" y="45"/>
			<point x="582" y="158.25"/>
			<point x="582" y="340" type="curve" smooth="yes"/>
			<point x="582" y="521.75"/>
			<point x="495.75" y="635"/>
		</contour>
		<contour>
			<point x="355.5" y="-10" type="curve" smooth="yes"/>
			<point x="177.5" y="-10"/>
			<point x="67.5" y="123.75"/>
			<point x="67.5" y="340" type="curve" smooth="yes"/>
			<point x="67.5" y="556.25"/>
			<point x="177.5" y="690"/>
			<point x="355.5" y="690" type="curve" smooth="yes"/>
			<point x="533.5" y="690"/>
			<point x="643.5" y="556.25"/>
			<point x="643.5" y="340" type="curve" smooth="yes"/>
			<point x="643.5" y="123.75"/>
			<point x="533.5" y="-10"/>
		</contour>
		<contour>
			<point x="396" y="740" type="line"/>
			<point x="316" y="740" type="line"/>
			<point x="216" y="900" type="line"/>
			<point x="280" y="900" type="line"/>
			<point x="356" y="815" type="line"/>
			<point x="432" y="900" type="line"/>
			<point x="496" y="900" type="line"/>
		</contour>
	</outline>
</glyph>
<glyph name="uni01D3" format="2">
	<unicode hex="01D3"/>
	<advance width="560"/>
	<outline>
		<contour>
			<point x="40" y="240" type="curve" smooth="yes"/>
			<point x="40" y="680" type="line"/>
			<point x="100" y="680" type="line"/>
			<point x="100" y="265" type="line" smooth="yes"/>
			<point x="100" y="112.75"/>
			<point x="165" y="47.5"/>
			<point x="280" y="47.5" type="curve" smooth="yes"/>
			<point x="395" y="47.5"/>
			<point x="460" y="112.75"/>
			<point x="460" y="265" type="curve" smooth="yes"/>
			<point x="460" y="680" type="line"/>
			<point x="520" y="680" type="line"/>
			<point x="520" y="240" type="line" smooth="yes"/>
			<point x="520" y="74"/>
			<point x="435" y="-10"/>
			<point x="280" y="-10" type="curve" smooth="yes"/>
			<point x="125" y="-10"/>
			<point x="40" y="74"/>
		</contour>
		<contour>
			<point x="320" y="750" type="line"/>
			<point x="240" y="750" type="line"/>
			<point x="140" y="910" type="line"/>
			<point x="204" y="910" type="line"/>
			<point x="280" y="825" type="line"/>
			<point x="356" y="910" type="line"/>
			<point x="420" y="910" type="line"/>
		</contour>
	</outline>
</glyph>
<glyph name="uni01DE" format="2">
	<unicode hex="01DE"/>
	<advance width="523"/>
	<outline>
		<contour>
			<point x="364" y="276.25" type="line"/>
			<point x="261.25" y="597.75" type="line"/>
			<point x="158.5" y="276.25" type="line"/>
		</contour>
		<contour>
			<point x="451" y="0" type="line"/>
			<point x="382.25" y="216.25" type="line"/>
			<point x="140.25" y="216.25" type="line"/>
			<point x="71.5" y="0" type="line"/>
			<point x="10" y="0" type="line"/>
			<point x="226.25" y="680" type="line"/>
			<point x="295.75" y="680" type="line"/>
			<point x="512.5" y="0" type="line"/>
		</contour>
		<contour>
			<point x="352.5" y="860" type="line"/>
			<point x="372.5" y="807.5" type="line"/>
			<point x="316.25" y="822.5" type="line"/>
			<point x="361.25" y="785" type="line"/>
			<point x="346.25" y="740" type="line"/>
			<point x="301.25" y="777.5" type="line"/>
			<point x="241.25" y="790" type="line"/>
			<point x="221.25" y="752.5" type="line"/>
			<point x="206.25" y="740" type="line"/>
			<point x="161.25" y="777.5" type="line"/>
			<point x="105" y="822.5" type="line"/>
			<point x="150" y="875" type="line"/>
		</contour>
	</outline>
</glyph>
<glyph name="uni01E8" format="2">
	<unicode hex="01E8"/>
	<advance width="550"/>
	<outline>
		<contour>
			<point x="149" y="293.75" type="line"/>
			<point x="149" y="0" type="line"/>
			<point x="87.5" y="0" type="line"/>
			<point x="87.5" y="680" type="line"/>
			<point x="149" y="680" type="line"/>
			<point x="149" y="347.75" type="line"/>
			<point x="241.25" y="364.75" type="line"/>
			<point x="430" y="680" type="line"/>
			<point x="499.5" y="680" type="line"/>
			<point x="299.5" y="350" type="line"/>
			<point x="539.5" y="0" type="line"/>
			<point x="465" y="0" type="line"/>
			<point x="249.5" y="315.25" type="line"/>
		</contour>
		<contour>
			<point x="314.75" y="760" type="line"/>
			<point x="234.75" y="760" type="line"/>
			<point x="134.75" y="920" type="line"/>
			<point x="198.75" y="920" type="line"/>
			<point x="274.75" y="835" type="line"/>
			<point x="350.75" y="920" type="line"/>
			<point x="414.75" y="920" type="line"/>
		</contour>
	</outline>
</glyph>
<glyph name="uni01F2" format="2">
	<unicode hex="01F2"/>
	<advance width="1083"/>
	<outline>
		<contour>
			<point x="149" y="625" type="line"/>
			<point x="149" y="55" type="line"/>
			<point x="293" y="55" type="line" smooth="yes"/>
			<point x="435" y="55"/>
			<point x="504.25" y="176"/>
			<point x="504.25" y="340" type="curve" smooth="yes"/>
			<point x="504.25" y="513"/>
			<point x="437" y="625"/>
			<point x="293" y="625" type="curve" smooth="yes"/>
		</contour>
		<contour>
			<point x="87.5" y="680" type="line"/>
			<point x="293" y="680" type="line" smooth="yes"/>
			<point x="483" y="680"/>
			<point x="565" y="541.5"/>
			<point x="565" y="340" type="curve" smooth="yes"/>
			<point x="565" y="137.75"/>
			<point x="483.25" y="0"/>
			<point x="293" y="0" type="curve" smooth="yes"/>
			<point x="87.5" y="0" type="line"/>
		</contour>
		<contour>
			<point name=".hr01" x="1042.5" y="65" type="line"/>
			<point x="1042.5" y="0" type="line"/>
			<point x="672.5" y="0" type="line"/>
			<point x="672.5" y="65" type="line"/>
			<point x="942.5" y="395" type="line"/>
			<point x="672.5" y="395" type="line"/>
			<point x="672.5" y="460" type="line"/>
			<point x="1042.5" y="460" type="line"/>
			<point x="1042.5" y="395" type="line"/>
			<point x="782.5" y="65" type="line"/>
		</contour>
	</outline>
</glyph>
<glyph name="uni0202" format="2">
	<unicode hex="0202"/>
	<advance width="570"/>
	<outline>
		<contour>
			<point x="369" y="276.25" type="line"/>
			<point x="266.25" y="597.75" type="line"/>
			<point x="163.5" y="276.25" type="line"/>
		</contour>
		<contour>
			<point x="456" y="0" type="line"/>
			<point x="387.25" y="216.25" type="line"/>
			<point x="145.25" y="216.25" type="line"/>
			<point x="76.5" y="0" type="line"/>
			<point x="15" y="0" type="line"/>
			<point x="231.25" y="680" type="line"/>
			<point x="300.75" y="680" type="line"/>
			<point x="517.5" y="0" type="line"/>
		</contour>
		<contour>
			<point x="205" y="720" type="curve"/>
			<point x="125" y="720" type="line"/>
			<point x="125" y="820"/>
			<point x="200" y="860"/>
			<point x="280" y="860" type="curve" smooth="yes"/>
			<point x="360" y="860"/>
			<point x="435" y="820"/>
			<point x="435" y="720" type="curve"/>
			<point x="355" y="720" type="line"/>
			<point x="355" y="780"/>
			<point x="315" y="800"/>
			<point x="280" y="800" type="curve" smooth="yes"/>
			<point x="245" y="800"/>
			<point x="205" y="780"/>
		</contour>
	</outline>
</glyph>
<glyph name="uni0204" format="2">
	<unicode hex="0204"/>
	<advance width="510"/>
	<outline>
		<contour>
			<point x="420" y="322.5" type="line"/>
			<point x="149" y="322.5" type="line"/>
			<point x="149" y="52.5" type="line"/>
			<point x="460" y="52.5" type="line"/>
			<point x="460" y="0" type="line"/>
			<point x="87.5" y="0" type="line"/>
			<point x="87.5" y="680" type="line"/>
			<point x="460" y="680" type="line"/>
			<point x="460" y="627.5" type="line"/>
			<point x="149" y="627.5" type="line"/>
			<point x="149" y="375" type="line"/>
			<point x="420" y="375" type="line"/>
		</contour>
		<contour>
			<point x="278" y="730" type="line"/>
			<point x="214" y="730" type="line"/>
			<point x="138" y="910" type="line"/>
			<point x="218" y="910" type="line"/>
		</contour>
		<contour>
			<point x="373" y="730" type="line"/>
			<point x="309" y="730" type="line"/>
			<point x="248" y="910" type="line"/>
			<point x="328" y="910" type="line"/>
		</contour>
	</outline>
</glyph>
<glyph name="uni0208" format="2">
	<unicode hex="0208"/>
	<advance width="237"/>
	<outline>
		<contour>
			<point x="149" y="0" type="line"/>
			<point x="87.5" y="0" type="line"/>
			<point x="87.5" y="680" type="line"/>
			<point x="149" y="680" type="line"/>
		</contour>
		<contour>
			<point x="172.25" y="730" type="line"/>
			<point x="111.25" y="910" type="line"/>
			<point x="191.25" y="910" type="line"/>
			<point x="236.25" y="730" type="line"/>
		</contour>
		<contour>
			<point x="77.25" y="730" type="line"/>
			<point x="1.25" y="910" type="line"/>
			<point x="81.25" y="910" type="line"/>
			<point x="141.25" y="730" type="line"/>
		</contour>
	</outline>
</glyph>
<glyph name="uni020A" format="2">
	<unicode hex="020A"/>
	<advance width="237"/>
	<outline>
		<contour>
			<point x="149" y="0" type="line"/>
			<point x="87.5" y="0" type="line"/>
			<point x="87.5" y="680" type="line"/>
			<point x="149" y="680" type="line"/>
		</contour>
		<contour>
			<point x="43.25" y="740" type="curve"/>
			<point x="-36.75" y="740" type="line"/>
			<point x="-36.75" y="840"/>
			<point x="38.25" y="880"/>
			<point x="118.25" y="880" type="curve" smooth="yes"/>
			<point x="198.25" y="880"/>
			<point x="273.25" y="840"/>
			<point x="273.25" y="740" type="curve"/>
			<point x="193.25" y="740" type="line"/>
			<point x="193.25" y="800"/>
			<point x="153.25" y="820"/>
			<point x="118.25" y="820" type="curve" smooth="yes"/>
			<point x="83.25" y="820"/>
			<point x="43.25" y="800"/>
		</contour>
	</outline>
</glyph>
<glyph name="uni020C" format="2">
	<unicode hex="020C"/>
	<advance width="711"/>
	<outline>
		<contour>
			<point x="355.5" y="635" type="curve" smooth="yes"/>
			<point x="215.25" y="635"/>
			<point x="129" y="521.75"/>
			<point x="129" y="340" type="curve" smooth="yes"/>
			<point x="129" y="158.25"/>
			<point x="215.25" y="45"/>
			<point x="355.5" y="45" type="curve" smooth="yes"/>
			<point x="495.75" y="45"/>
			<point x="582" y="158.25"/>
			<point x="582" y="340" type="curve" smooth="yes"/>
			<point x="582" y="521.75"/>
			<point x="495.75" y="635"/>
		</contour>
		<contour>
			<point x="355.5" y="-10" type="curve" smooth="yes"/>
			<point x="177.5" y="-10"/>
			<point x="67.5" y="123.75"/>
			<point x="67.5" y="340" type="curve" smooth="yes"/>
			<point x="67.5" y="556.25"/>
			<point x="177.5" y="690"/>
			<point x="355.5" y="690" type="curve" smooth="yes"/>
			<point x="533.5" y="690"/>
			<point x="643.5" y="556.25"/>
			<point x="643.5" y="340" type="curve" smooth="yes"/>
			<point x="643.5" y="123.75"/>
			<point x="533.5" y="-10"/>
		</contour>
		<contour>
			<point x="378.5" y="730" type="line"/>
			<point x="314.5" y="730" type="line"/>
			<point x="238.5" y="910" type="line"/>
			<point x="318.5" y="910" type="line"/>
		</contour>
		<contour>
			<point x="473.5" y="730" type="line"/>
			<point x="409.5" y="730" type="line"/>
			<point x="348.5" y="910" type="line"/>
			<point x="428.5" y="910" type="line"/>
		</contour>
	</outline>
</glyph>
<glyph name="uni020E" format="2">
	<unicode hex="020E"/>
	<advance width="711"/>
	<outline>
		<contour>
			<point x="355.5" y="635" type="curve" smooth="yes"/>
			<point x="215.25" y="635"/>
			<point x="129" y="521.75"/>
			<point x="129" y="340" type="curve" smooth="yes"/>
			<point x="129" y="158.25"/>
			<point x="215.25" y="45"/>
			<point x="355.5" y="45" type="curve" smooth="yes"/>
			<point x="495.75" y="45"/>
			<point x="582" y="158.25"/>
			<point x="582" y="340" type="curve" smooth="yes"/>
			<point x="582" y="521.75"/>
			<point x="495.75" y="635"/>
		</contour>
		<contour>
			<point x="355.5" y="-10" type="curve" smooth="yes"/>
			<point x="177.5" y="-10"/>
			<point x="67.5" y="123.75"/>
			<point x="67.5" y="340" type="curve" smooth="yes"/>
			<point x="67.5" y="556.25"/>
			<point x="177.5" y="690"/>
			<point x="355.5" y="690" type="curve" smooth="yes"/>
			<point x="533.5" y="690"/>
			<point x="643.5" y="556.25"/>
			<point x="643.5" y="340" type="curve" smooth="yes"/>
			<point x="643.5" y="123.75"/>
			<point x="533.5" y="-10"/>
		</contour>
		<contour>
			<point x="281" y="740" type="curve"/>
			<point x="201" y="740" type="line"/>
			<point x="201" y="840"/>
			<point x="276" y="880"/>
			<point x="356" y="880" type="curve" smooth="yes"/>
			<point x="436" y="880"/>
			<point x="511" y="840"/>
			<point x="511" y="740" type="curve"/>
			<point x="431" y="740" type="line"/>
			<point x="431" y="800"/>
			<point x="391" y="820"/>
			<point x="356" y="820" type="curve" smooth="yes"/>
			<point x="321" y="820"/>
			<point x="281" y="800"/>
		</contour>
	</outline>
</glyph>
<glyph name="uni0214" format="2">
	<unicode hex="0214"/>
	<advance width="580"/>
	<outline>
		<contour>
			<point x="50" y="240" type="curve" smooth="yes"/>
			<point x="50" y="680" type="line"/>
			<point x="110" y="680" type="line"/>
			<point x="110" y="265" type="line" smooth="yes"/>
			<point x="110" y="112.75"/>
			<point x="175" y="47.5"/>
			<point x="290" y="47.5" type="curve" smooth="yes"/>
			<point x="405" y="47.5"/>
			<point x="470" y="112.75"/>
			<point x="470" y="265" type="curve" smooth="yes"/>
			<point x="470" y="680" type="line"/>
			<point x="530" y="680" type="line"/>
			<point x="530" y="240" type="line" smooth="yes"/>
			<point x="530" y="74"/>
			<point x="445" y="-10"/>
			<point x="290" y="-10" type="curve" smooth="yes"/>
			<point x="135" y="-10"/>
			<point x="50" y="74"/>
		</contour>
		<contour>
			<point x="344" y="730" type="line"/>
			<point x="283" y="910" type="line"/>
			<point x="363" y="910" type="line"/>
			<point x="408" y="730" type="line"/>
		</contour>
		<contour>
			<point x="249" y="730" type="line"/>
			<point x="173" y="910" type="line"/>
			<point x="253" y="910" type="line"/>
			<point x="313" y="730" type="line"/>
		</contour>
	</outline>
</glyph>
<glyph name="uni0216" format="2">
	<unicode hex="0216"/>
	<advance width="560"/>
	<outline>
		<contour>
			<point x="200" y="720" type="curve"/>
			<point x="120" y="720" type="line"/>
			<point x="120" y="820"/>
			<point x="195" y="860"/>
			<point x="275" y="860" type="curve" smooth="yes"/>
			<point x="355" y="860"/>
			<point x="430" y="820"/>
			<point x="430" y="720" type="curve"/>
			<point x="350" y="720" type="line"/>
			<point x="350" y="780"/>
			<point x="310" y="800"/>
			<point x="275" y="800" type="curve" smooth="yes"/>
			<point x="240" y="800"/>
			<point x="200" y="780"/>
		</contour>
		<contour>
			<point x="40" y="240" type="curve" smooth="yes"/>
			<point x="40" y="680" type="line"/>
			<point x="100" y="680" type="line"/>
			<point x="100" y="265" type="line" smooth="yes"/>
			<point x="100" y="112.75"/>
			<point x="165" y="47.5"/>
			<point x="280" y="47.5" type="curve" smooth="yes"/>
			<point x="395" y="47.5"/>
			<point x="460" y="112.75"/>
			<point x="460" y="265" type="curve" smooth="yes"/>
			<point x="460" y="680" type="line"/>
			<point x="520" y="680" type="line"/>
			<point x="520" y="240" type="line" smooth="yes"/>
			<point x="520" y="74"/>
			<point x="435" y="-10"/>
			<point x="280" y="-10" type="curve" smooth="yes"/>
			<point x="125" y="-10"/>
			<point x="40" y="74"/>
		</contour>
	</outline>
</glyph>
<glyph name="uni0226" format="2">
	<unicode hex="0226"/>
	<advance width="570"/>
	<outline>
		<contour>
			<point x="369" y="276.25" type="line"/>
			<point x="266.25" y="597.75" type="line"/>
			<point x="163.5" y="276.25" type="line"/>
		</contour>
		<contour>
			<point x="456" y="0" type="line"/>
			<point x="387.25" y="216.25" type="line"/>
			<point x="145.25" y="216.25" type="line"/>
			<point x="76.5" y="0" type="line"/>
			<point x="15" y="0" type="line"/>
			<point x="231.25" y="680" type="line"/>
			<point x="300.75" y="680" type="line"/>
			<point x="517.5" y="0" type="line"/>
		</contour>
		<contour>
			<point x="317.5" y="845" type="line"/>
			<point x="317.5" y="750" type="line"/>
			<point x="257.5" y="750" type="line"/>
			<point x="257.5" y="845" type="line"/>
		</contour>
	</outline>
</glyph>
<glyph name="uni02C5" format="2">
	<unicode hex="02C5"/>
	<advance width="514"/>
	<outline>
		<contour>
			<point x="216" y="530" type="line"/>
			<point x="16" y="964" type="line"/>
			<point x="88" y="964" type="line"/>
			<point x="252" y="606" type="line"/>
			<point x="416" y="964" type="line"/>
			<point x="486" y="964" type="line"/>
			<point x="286" y="530" type="line"/>
		</contour>
	</outline>
</glyph>
<glyph name="circumflex" format="2">
	<unicode hex="02C6"/>
	<advance width="340"/>
	<outline>
		<contour>
			<point x="170" y="659.5" type="line"/>
			<point x="61" y="520" type="line"/>
			<point x="22.5" y="520" type="line"/>
			<point x="137.5" y="700" type="line"/>
			<point x="202.5" y="700" type="line"/>
			<point x="317.5" y="520" type="line"/>
			<point x="279" y="520" type="line"/>
		</contour>
	</outline>
</glyph>
<glyph name="dotaccent" format="2">
	<unicode hex="02D9"/>
	<advance width="205"/>
	<outline>
		<contour>
			<point x="132.5" y="520" type="line"/>
			<point x="72.5" y="520" type="line"/>
			<point x="72.5" y="615" type="line"/>
			<point x="132.5" y="615" type="line"/>
		</contour>
	</outline>
</glyph>
<glyph name="ogonek" format="2">
	<unicode hex="02DB"/>
	<advance width="317"/>
	<outline>
		<contour>
			<point x="85" y="-138.25" type="curve" smooth="yes"/>
			<point x="85" y="-89.5"/>
			<point x="108.5" y="-48.25"/>
			<point x="152.25" y="0" type="curve"/>
			<point x="197.25" y="0" type="line"/>
			<point x="150.25" y="-52"/>
			<point x="135.25" y="-83.5"/>
			<point x="135.25" y="-121.25" type="curve" smooth="yes"/>
			<point x="135.25" y="-151.75"/>
			<point x="150.5" y="-167.5"/>
			<point x="181.75" y="-167.5" type="curve" smooth="yes"/>
			<point x="196.5" y="-167.5"/>
			<point x="211" y="-160"/>
			<point x="220.75" y="-150.75" type="curve"/>
			<point x="232.25" y="-187.25" type="line"/>
			<point x="212.25" y="-202.75"/>
			<point x="190.25" y="-210"/>
			<point x="162.25" y="-210" type="curve" smooth="yes"/>
			<point x="112.75" y="-210"/>
			<point x="85" y="-183.75"/>
		</contour>
	</outline>
</glyph>
<glyph name="gravecomb" format="2">
	<unicode hex="0300"/>
	<outline>
		<contour>
			<point x="-266.5" y="520" type="line"/>
			<point x="-341" y="690" type="line"/>
			<point x="-265" y="690" type="line"/>
			<point x="-215" y="520" type="line"/>
		</contour>
	</outline>
	<anchor name="top" x="-241" y="520"/>
</glyph>
<glyph name="acutecomb" format="2">
	<unicode hex="0301"/>
	<outline>
		<contour>
			<point x="-177" y="520" type="line"/>
			<point x="-228.5" y="520" type="line"/>
			<point x="-178.5" y="705" type="line"/>
			<point x="-102.5" y="705" type="line"/>
		</contour>
	</outline>
	<anchor name="top" x="-203.75" y="520"/>
</glyph>
<glyph name="uni0302" format="2">
	<unicode hex="0302"/>
	<outline>
		<contour>
			<point x="-220" y="676" type="line"/>
			<point x="-340" y="520" type="line"/>
			<point x="-360" y="520" type="line"/>
			<point x="-240" y="700" type="line"/>
			<point x="-200" y="700" type="line"/>
			<point x="-80" y="520" type="line"/>
			<point x="-100" y="520" type="line"/>
		</contour>
	</outline>
	<anchor name="top" x="-220" y="520"/>
</glyph>
<glyph name="tildecomb" format="2">
	<unicode hex="0303"/>
	<outline>
		<contour>
			<point x="-306" y="540" type="curve"/>
			<point x="-356" y="540" type="line"/>
			<point x="-342" y="627"/>
			<point name=".hr01" x="-306" y="660"/>
			<point x="-266" y="660" type="curve" smooth="yes"/>
			<point x="-241" y="660"/>
			<point x="-219" y="650"/>
			<point x="-197" y="639" type="curve"/>
			<point x="-181" y="630"/>
			<point name=".hr02" x="-160" y="620"/>
			<point x="-140" y="620" type="curve" smooth="yes"/>
			<point x="-120" y="620"/>
			<point x="-105" y="632"/>
			<point name=".hr03" x="-100" y="660" type="curve"/>
			<point x="-50" y="660" type="line"/>
			<point x="-64" y="573"/>
			<point name=".hr04" x="-100" y="540"/>
			<point x="-140" y="540" type="curve" smooth="yes"/>
			<point x="-165" y="540"/>
			<point x="-186" y="549"/>
			<point x="-207" y="560" type="curve" smooth="yes"/>
			<point x="-224" y="569"/>
			<point name=".hr05" x="-246" y="580"/>
			<point x="-266" y="580" type="curve" smooth="yes"/>
			<point x="-286" y="580"/>
			<point x="-301" y="568"/>
		</contour>
	</outline>
</glyph>
<glyph name="uni0307" format="2">
	<unicode hex="0307"/>
	<outline>
		<contour>
			<point x="-72.5" y="520" type="line"/>
			<point x="-132.5" y="520" type="line"/>
			<point x="-132.5" y="615" type="line"/>
			<point x="-72.5" y="615" type="line"/>
		</contour>
	</outline>
</glyph>
<glyph name="uni0308" format="2">
	<unicode hex="0308"/>
	<outline>
		<contour>
			<point x="-273.75" y="520" type="line"/>
			<point x="-331.25" y="520" type="line"/>
			<point x="-331.25" y="622.5" type="line"/>
			<point x="-273.75" y="622.5" type="line"/>
		</contour>
		<contour>
			<point x="-94.25" y="520" type="line"/>
			<point x="-151.75" y="520" type="line"/>
			<point x="-151.75" y="622.5" type="line"/>
			<point x="-94.25" y="622.5" type="line"/>
		</contour>
	</outline>
	<anchor name="top" x="-213.5" y="520"/>
</glyph>
<glyph name="uni0313" format="2">
	<unicode hex="0313"/>
	<advance width="180"/>
	<outline>
		<contour>
			<point x="84" y="490" type="line"/>
			<point x="50" y="490" type="line"/>
			<point x="72" y="620" type="line"/>
			<point x="50" y="620" type="line"/>
			<point x="50" y="700" type="line"/>
			<point x="130" y="700" type="line"/>
			<point x="130" y="620" type="line"/>
		</contour>
	</outline>
</glyph>
<glyph name="uni0314" format="2">
	<unicode hex="0314"/>
	<advance width="180"/>
	<outline>
		<contour>
			<point x="96" y="490" type="line"/>
			<point x="50" y="620" type="line"/>
			<point x="50" y="700" type="line"/>
			<point x="130" y="700" type="line"/>
			<point x="130" y="620" type="line"/>
			<point x="108" y="620" type="line"/>
			<point x="130" y="490" type="line"/>
		</contour>
	</outline>
</glyph>
<glyph name="uni0400" format="2">
	<unicode hex="0400"/>
	<advance width="510"/>
	<outline>
		<contour>
			<point x="420" y="322.5" type="line"/>
			<point x="149" y="322.5" type="line"/>
			<point x="149" y="52.5" type="line"/>
			<point x="460" y="52.5" type="line"/>
			<point x="460" y="0" type="line"/>
			<point x="87.5" y="0" type="line"/>
			<point x="87.5" y="680" type="line"/>
			<point x="460" y="680" type="line"/>
			<point x="460" y="627.5" type="line"/>
			<point x="149" y="627.5" type="line"/>
			<point x="149" y="375" type="line"/>
			<point x="420" y="375" type="line"/>
		</contour>
		<contour>
			<point x="287" y="740" type="line"/>
			<point x="223" y="740" type="line"/>
			<point x="157" y="900" type="line"/>
			<point x="237" y="900" type="line"/>
		</contour>
	</outline>
</glyph>
<glyph name="uni0402" format="2">
	<unicode hex="0402"/>
	<advance width="1243"/>
	<outline>
		<contour>
			<point x="919.75" y="-90" type="curve"/>
			<point x="998.75" y="-90" type="line"/>
			<point x="1014.75" y="-114"/>
			<point x="1029.75" y="-120"/>
			<point x="1052.75" y="-120" type="curve" smooth="yes"/>
			<point x="1077.75" y="-120"/>
			<point x="1092.75" y="-103"/>
			<point x="1092.75" y="-55" type="curve" smooth="yes"/>
			<point x="1092.75" y="460" type="line"/>
			<point x="1172.75" y="460" type="line"/>
			<point x="1172.75" y="-31" type="line" smooth="yes"/>
			<point x="1172.75" y="-139"/>
			<point x="1115.75" y="-200"/>
			<point x="1050.75" y="-200" type="curve" smooth="yes"/>
			<point x="986.75" y="-200"/>
			<point x="935.75" y="-149"/>
		</contour>
		<contour>
			<point x="270.75" y="625" type="line"/>
			<point x="270.75" y="0" type="line"/>
			<point x="209.25" y="0" type="line"/>
			<point x="209.25" y="625" type="line"/>
			<point x="10" y="625" type="line"/>
			<point x="10" y="680" type="line"/>
			<point x="470" y="680" type="line"/>
			<point x="470" y="625" type="line"/>
		</contour>
		<contour>
			<point x="791.5" y="470" type="curve" smooth="yes"/>
			<point x="893.25" y="470"/>
			<point x="939" y="395.75"/>
			<point x="939" y="310" type="curve" smooth="yes"/>
			<point x="939" y="0" type="line"/>
			<point x="879" y="0" type="line"/>
			<point x="879" y="300" type="line" smooth="yes"/>
			<point x="879" y="373.25"/>
			<point x="836.25" y="431.75"/>
			<point x="764.25" y="431.75" type="curve" smooth="yes"/>
			<point x="688.75" y="431.75"/>
			<point x="620" y="359.5"/>
			<point x="620" y="277.5" type="curve" smooth="yes"/>
			<point x="620" y="0" type="line"/>
			<point x="560" y="0" type="line"/>
			<point x="560" y="700" type="line"/>
			<point name=".hr01" x="620" y="700" type="line"/>
			<point x="620" y="363.5" type="line"/>
			<point x="657.25" y="424.75"/>
			<point x="719.75" y="470"/>
		</contour>
	</outline>
</glyph>
<glyph name="uni0409" format="2">
	<unicode hex="0409"/>
	<advance width="998"/>
	<outline>
		<contour>
			<point x="683" y="322" type="curve" smooth="yes"/>
			<point x="558" y="322" type="line"/>
			<point x="558" y="80" type="line"/>
			<point x="683" y="80" type="line" smooth="yes"/>
			<point x="832" y="80"/>
			<point x="858" y="131"/>
			<point x="858" y="205" type="curve" smooth="yes"/>
			<point x="858" y="273"/>
			<point x="828" y="322"/>
		</contour>
		<contour>
			<point x="50" y="-10" type="curve"/>
			<point x="50" y="80" type="line"/>
			<point x="167" y="80"/>
			<point x="168" y="293"/>
			<point x="168" y="372" type="curve" smooth="yes"/>
			<point x="168" y="700" type="line"/>
			<point x="558" y="700" type="line"/>
			<point x="558" y="402" type="line"/>
			<point x="683" y="402" type="line" smooth="yes"/>
			<point x="902" y="402"/>
			<point x="948" y="355"/>
			<point x="948" y="205" type="curve" smooth="yes"/>
			<point x="948" y="61"/>
			<point x="892" y="0"/>
			<point name=".hr01" x="683" y="0" type="curve" smooth="yes"/>
			<point x="468" y="0" type="line"/>
			<point x="468" y="620" type="line"/>
			<point x="258" y="620" type="line"/>
			<point x="258" y="372" type="line" smooth="yes"/>
			<point x="258" y="70"/>
			<point x="153" y="-10"/>
		</contour>
	</outline>
</glyph>
<glyph name="uni040C" format="2">
	<unicode hex="040C"/>
	<advance width="550"/>
	<outline>
		<contour>
			<point x="149" y="293.75" type="line"/>
			<point x="149" y="0" type="line"/>
			<point x="87.5" y="0" type="line"/>
			<point x="87.5" y="680" type="line"/>
			<point x="149" y="680" type="line"/>
			<point x="149" y="347.75" type="line"/>
			<point x="241.25" y="364.75" type="line"/>
			<point x="430" y="680" type="line"/>
			<point x="499.5" y="680" type="line"/>
			<point x="299.5" y="350" type="line"/>
			<point x="539.5" y="0" type="line"/>
			<point x="465" y="0" type="line"/>
			<point x="249.5" y="315.25" type="line"/>
		</contour>
		<contour>
			<point x="335" y="917.5" type="line"/>
			<point x="270" y="730" type="line"/>
			<point x="214.5" y="730" type="line"/>
			<point x="269.5" y="917.5" type="line"/>
		</contour>
	</outline>
</glyph>
<glyph name="uni040D" format="2">
	<unicode hex="040D"/>
	<advance width="630"/>
	<outline>
		<contour>
			<point x="283" y="750" type="line"/>
			<point x="217" y="910" type="line"/>
			<point x="297" y="910" type="line"/>
			<point x="347" y="750" type="line"/>
		</contour>
		<contour>
			<point x="170" y="0" type="line"/>
			<point x="50" y="0" type="line"/>
			<point x="50" y="700" type="line"/>
			<point x="140" y="700" type="line"/>
			<point x="140" y="210" type="line" smooth="yes"/>
			<point x="140" y="148"/>
			<point x="138" y="127"/>
			<point x="135" y="120" type="curve"/>
			<point x="460" y="700" type="line"/>
			<point x="580" y="700" type="line"/>
			<point x="580" y="0" type="line"/>
			<point x="490" y="0" type="line"/>
			<point x="490" y="490" type="line"/>
			<point x="491" y="514"/>
			<point x="490" y="520"/>
			<point x="495" y="580" type="curve"/>
		</contour>
	</outline>
</glyph>
<glyph name="uni0413" format="2">
	<unicode hex="0413"/>
	<advance width="490"/>
	<outline>
		<contour>
			<point x="460" y="627.5" type="line"/>
			<point x="149" y="627.5" type="line"/>
			<point x="149" y="0" type="line"/>
			<point x="87.5" y="0" type="line"/>
			<point x="87.5" y="680" type="line"/>
			<point x="460" y="680" type="line"/>
		</contour>
	</outline>
</glyph>
<glyph name="uni0429" format="2">
	<unicode hex="0429"/>
	<advance width="916"/>
	<outline>
		<contour>
			<point x="796" y="0" type="line"/>
			<point x="50" y="0" type="line"/>
			<point x="50" y="700" type="line"/>
			<point x="140" y="700" type="line"/>
			<point x="140" y="70" type="line"/>
			<point x="378" y="70" type="line"/>
			<point x="378" y="700" type="line"/>
			<point x="468" y="700" type="line"/>
			<point x="468" y="70" type="line"/>
			<point x="706" y="70" type="line"/>
			<point x="706" y="700" type="line"/>
			<point x="796" y="700" type="line"/>
			<point x="796" y="70" type="line"/>
			<point name=".hr01" x="866" y="70" type="line"/>
			<point x="866" y="-140" type="line"/>
			<point x="796" y="-140" type="line"/>
		</contour>
	</outline>
</glyph>
<glyph name="uni042B" format="2">
	<unicode hex="042B"/>
	<advance width="771"/>
	<outline>
		<component base="uni042C"/>
		<contour>
			<point x="669.5" y="695" type="line"/>
			<point x="669.5" y="0" type="line"/>
			<point x="608" y="0" type="line"/>
			<point x="608" y="695" type="line"/>
		</contour>
	</outline>
</glyph>
<glyph name="uni042C" format="2">
	<unicode hex="042C"/>
	<advance width="585"/>
	<outline>
		<contour>
			<point x="94" y="0" type="line"/>
			<point x="94" y="55" type="line"/>
			<point x="269" y="55" type="line" smooth="yes"/>
			<point x="375.5" y="55"/>
			<point x="422" y="133"/>
			<point x="422" y="210" type="curve" smooth="yes"/>
			<point x="422" y="294.25"/>
			<point x="372.5" y="357"/>
			<point x="269" y="357" type="curve" smooth="yes"/>
			<point x="94" y="357" type="line"/>
			<point x="94" y="412" type="line"/>
			<point x="269" y="412" type="line" smooth="yes"/>
			<point x="430" y="412"/>
			<point x="484" y="326"/>
			<point x="484" y="210" type="curve" smooth="yes"/>
			<point x="484" y="97"/>
			<point x="417" y="0"/>
			<point x="269" y="0" type="curve" smooth="yes"/>
		</contour>
		<contour>
			<point x="50" y="0" type="line"/>
			<point x="50" y="680" type="line"/>
			<point x="111.5" y="680" type="line"/>
			<point x="111.5" y="0" type="line"/>
		</contour>
	</outline>
</glyph>
<glyph name="uni042E" format="2">
	<unicode hex="042E"/>
	<advance width="850"/>
	<outline>
		<contour>
			<point x="330" y="350" type="curve" smooth="yes"/>
			<point x="330" y="200"/>
			<point x="377" y="70"/>
			<point x="518" y="70" type="curve" smooth="yes"/>
			<point x="668" y="70"/>
			<point x="710" y="237"/>
			<point x="710" y="350" type="curve" smooth="yes"/>
			<point x="710" y="503"/>
			<point x="667" y="630"/>
			<point x="518" y="630" type="curve" smooth="yes"/>
			<point x="379" y="630"/>
			<point x="330" y="502"/>
		</contour>
		<contour>
			<point x="140" y="317" type="line"/>
			<point x="140" y="0" type="line"/>
			<point x="50" y="0" type="line"/>
			<point x="50" y="700" type="line"/>
			<point x="140" y="700" type="line"/>
			<point x="140" y="397" type="line"/>
			<point x="242" y="397" type="line"/>
			<point x="255" y="582"/>
			<point x="350" y="710"/>
			<point x="518" y="710" type="curve" smooth="yes"/>
			<point x="708" y="710"/>
			<point x="800" y="556"/>
			<point x="800" y="350" type="curve" smooth="yes"/>
			<point x="800" y="141"/>
			<point x="711" y="-10"/>
			<point x="524" y="-10" type="curve" smooth="yes"/>
			<point x="341" y="-10"/>
			<point x="250" y="123"/>
			<point x="241" y="317" type="curve"/>
		</contour>
	</outline>
</glyph>
<glyph name="uni0440" format="2">
	<unicode hex="0440"/>
	<advance width="502"/>
	<outline>
		<contour>
			<point x="136.25" y="230.5" type="curve" smooth="yes"/>
			<point x="136.25" y="226" type="line" smooth="yes"/>
			<point x="136.25" y="123"/>
			<point x="187.25" y="55"/>
			<point x="256.25" y="55" type="curve" smooth="yes"/>
			<point x="349.25" y="55"/>
			<point x="387.25" y="123"/>
			<point x="387.25" y="231" type="curve" smooth="yes"/>
			<point x="387.25" y="306"/>
			<point x="368.25" y="405"/>
			<point x="256.25" y="405" type="curve" smooth="yes"/>
			<point x="173.25" y="405"/>
			<point x="136.25" y="314.5"/>
		</contour>
		<contour>
			<point x="101.25" y="294.25" type="line"/>
			<point x="114" y="396.25" type="line"/>
			<point x="136.16" y="442"/>
			<point x="186.273" y="467.5"/>
			<point x="240" y="467.5" type="curve"/>
			<point x="334.667" y="463.877"/>
			<point x="383.627" y="361.199"/>
			<point x="384.5" y="268.5" type="curve"/>
			<point x="392.5" y="192.25"/>
			<point x="354" y="110"/>
			<point x="278.25" y="110" type="curve" smooth="yes"/>
			<point x="262.25" y="110"/>
			<point x="236.25" y="101"/>
			<point x="219" y="106.5" type="curve"/>
			<point x="219" y="41.9234"/>
			<point x="203" y="-116.195"/>
			<point x="171.5" y="-152.5" type="curve"/>
			<point x="140.62" y="-152.5"/>
			<point x="94.623" y="-144.75"/>
			<point x="76.25" y="-131.5" type="curve"/>
			<point x="76.25" y="294.25" type="line"/>
		</contour>
	</outline>
</glyph>
<glyph name="uni044E" format="2">
	<unicode hex="044E"/>
	<advance width="673"/>
	<outline>
		<contour>
			<point x="293" y="230" type="curve" smooth="yes"/>
			<point x="293" y="149"/>
			<point x="328" y="55"/>
			<point x="413" y="55" type="curve" smooth="yes"/>
			<point x="504" y="55"/>
			<point x="543" y="155"/>
			<point x="543" y="230" type="curve" smooth="yes"/>
			<point x="543" y="337"/>
			<point x="492" y="405"/>
			<point x="413" y="405" type="curve" smooth="yes"/>
			<point x="344" y="405"/>
			<point x="293" y="337"/>
		</contour>
		<contour>
			<point x="150" y="190" type="line"/>
			<point x="150" y="0" type="line"/>
			<point x="70" y="0" type="line"/>
			<point x="70" y="460" type="line"/>
			<point x="150" y="460" type="line"/>
			<point x="150" y="270" type="line"/>
			<point x="215" y="270" type="line"/>
			<point x="228" y="374"/>
			<point x="291" y="470"/>
			<point x="413" y="470" type="curve" smooth="yes"/>
			<point x="556" y="470"/>
			<point x="623" y="350"/>
			<point x="623" y="230" type="curve" smooth="yes"/>
			<point x="623" y="116"/>
			<point x="550" y="-10"/>
			<point x="413" y="-10" type="curve" smooth="yes"/>
			<point x="283" y="-10"/>
			<point x="227" y="92"/>
			<point x="215" y="190" type="curve"/>
		</contour>
	</outline>
</glyph>
<glyph name="uni04D0" format="2">
	<unicode hex="04D0"/>
	<advance width="570"/>
	<outline>
		<contour>
			<point x="369" y="276.25" type="line"/>
			<point x="266.25" y="597.75" type="line"/>
			<point x="163.5" y="276.25" type="line"/>
		</contour>
		<contour>
			<point x="456" y="0" type="line"/>
			<point x="387.25" y="216.25" type="line"/>
			<point x="145.25" y="216.25" type="line"/>
			<point x="76.5" y="0" type="line"/>
			<point x="15" y="0" type="line"/>
			<point x="231.25" y="680" type="line"/>
			<point x="300.75" y="680" type="line"/>
			<point x="517.5" y="0" type="line"/>
		</contour>
		<contour>
			<point x="130" y="890" type="curve"/>
			<point x="210" y="890" type="line"/>
			<point x="210" y="830"/>
			<point x="250" y="810"/>
			<point x="285" y="810" type="curve" smooth="yes"/>
			<point x="320" y="810"/>
			<point x="360" y="830"/>
			<point x="360" y="890" type="curve"/>
			<point x="440" y="890" type="line"/>
			<point x="440" y="790"/>
			<point x="365" y="750"/>
			<point x="285" y="750" type="curve" smooth="yes"/>
			<point x="205" y="750"/>
			<point x="130" y="790"/>
		</contour>
	</outline>
</glyph>
<glyph name="uni04D2" format="2">
	<unicode hex="04D2"/>
	<advance width="570"/>
	<outline>
		<contour>
			<point x="369" y="276.25" type="line"/>
			<point x="266.25" y="597.75" type="line"/>
			<point x="163.5" y="276.25" type="line"/>
		</contour>
		<contour>
			<point x="456" y="0" type="line"/>
			<point x="387.25" y="216.25" type="line"/>
			<point x="145.25" y="216.25" type="line"/>
			<point x="76.5" y="0" type="line"/>
			<point x="15" y="0" type="line"/>
			<point x="231.25" y="680" type="line"/>
			<point x="300.75" y="680" type="line"/>
			<point x="517.5" y="0" type="line"/>
		</contour>
		<contour>
			<point x="246" y="840" type="line"/>
			<point x="246" y="760" type="line"/>
			<point x="166" y="760" type="line"/>
			<point x="166" y="840" type="line"/>
		</contour>
		<contour>
			<point x="404" y="840" type="line"/>
			<point x="404" y="760" type="line"/>
			<point x="324" y="760" type="line"/>
			<point x="324" y="840" type="line"/>
		</contour>
	</outline>
</glyph>
<glyph name="uni04DB" format="2">
	<unicode hex="04DB"/>
	<advance width="471"/>
	<outline>
		<contour>
			<point x="352" y="170" type="curve"/>
			<point x="113" y="170" type="line"/>
			<point x="126" y="102"/>
			<point x="161" y="70"/>
			<point x="231" y="70" type="curve" smooth="yes"/>
			<point x="290" y="70"/>
			<point x="342" y="107"/>
		</contour>
		<contour>
			<point x="36" y="250" type="curve"/>
			<point x="352" y="250" type="line"/>
			<point x="343" y="323"/>
			<point x="313" y="390"/>
			<point x="230" y="390" type="curve" smooth="yes"/>
			<point x="186" y="390"/>
			<point x="139" y="372"/>
			<point x="116" y="346" type="curve"/>
			<point x="55" y="362" type="line"/>
			<point x="72" y="404"/>
			<point x="130" y="470"/>
			<point x="231" y="470" type="curve" smooth="yes"/>
			<point x="387" y="470"/>
			<point x="437" y="338"/>
			<point x="437" y="220" type="curve" smooth="yes"/>
			<point x="437" y="112"/>
			<point x="376" y="-10"/>
			<point x="231" y="-10" type="curve" smooth="yes"/>
			<point x="93" y="-10"/>
			<point x="36" y="112"/>
		</contour>
		<contour>
			<point x="191" y="640" type="line"/>
			<point x="191" y="560" type="line"/>
			<point x="111" y="560" type="line"/>
			<point x="111" y="640" type="line"/>
		</contour>
		<contour>
			<point x="349" y="640" type="line"/>
			<point x="349" y="560" type="line"/>
			<point x="269" y="560" type="line"/>
			<point x="269" y="640" type="line"/>
		</contour>
	</outline>
</glyph>
<glyph name="uni04E6" format="2">
	<unicode hex="04E6"/>
	<advance width="716"/>
	<outline>
		<contour>
			<point x="358" y="670" type="curve" smooth="yes"/>
			<point x="199" y="670"/>
			<point x="102" y="544"/>
			<point x="102" y="340" type="curve" smooth="yes"/>
			<point x="102" y="136"/>
			<point x="199" y="10"/>
			<point x="358" y="10" type="curve" smooth="yes"/>
			<point x="517" y="10"/>
			<point x="614" y="136"/>
			<point x="614" y="340" type="curve" smooth="yes"/>
			<point x="614" y="544"/>
			<point x="517" y="670"/>
		</contour>
		<contour>
			<point x="358" y="-10" type="curve" smooth="yes"/>
			<point x="189" y="-10"/>
			<point x="80" y="127"/>
			<point x="80" y="340" type="curve" smooth="yes"/>
			<point x="80" y="553"/>
			<point x="189" y="690"/>
			<point x="358" y="690" type="curve" smooth="yes"/>
			<point x="527" y="690"/>
			<point x="636" y="553"/>
			<point x="636" y="340" type="curve" smooth="yes"/>
			<point x="636" y="127"/>
			<point x="527" y="-10"/>
		</contour>
		<contour>
			<point x="318" y="820" type="line"/>
			<point x="318" y="740" type="line"/>
			<point x="298" y="740" type="line"/>
			<point x="298" y="820" type="line"/>
		</contour>
		<contour>
			<point x="418" y="820" type="line"/>
			<point x="418" y="740" type="line"/>
			<point x="398" y="740" type="line"/>
			<point x="398" y="820" type="line"/>
		</contour>
	</outline>
</glyph>
<glyph name="perthousand" format="2">
	<unicode hex="2030"/>
	<advance width="1040"/>
	<outline>
		<contour>
			<point x="414" y="176" type="curve" smooth="yes"/>
			<point x="414" y="302"/>
			<point x="448" y="362"/>
			<point x="552" y="362" type="curve" smooth="yes"/>
			<point x="656" y="362"/>
			<point x="690" y="302"/>
			<point x="690" y="176" type="curve" smooth="yes"/>
			<point x="690" y="50"/>
			<point x="656" y="-10"/>
			<point x="552" y="-10" type="curve" smooth="yes"/>
			<point x="448" y="-10"/>
			<point x="414" y="50"/>
		</contour>
		<contour>
			<point x="485" y="176" type="curve" smooth="yes"/>
			<point x="485" y="104"/>
			<point x="485" y="52"/>
			<point x="552" y="52" type="curve" smooth="yes"/>
			<point x="619" y="52"/>
			<point x="619" y="104"/>
			<point x="619" y="176" type="curve" smooth="yes"/>
			<point x="619" y="248"/>
			<point x="619" y="300"/>
			<point x="552" y="300" type="curve" smooth="yes"/>
			<point x="485" y="300"/>
			<point x="485" y="248"/>
		</contour>
		<contour>
			<point x="30" y="544" type="curve" smooth="yes"/>
			<point x="30" y="670"/>
			<point x="64" y="730"/>
			<point x="168" y="730" type="curve" smooth="yes"/>
			<point x="272" y="730"/>
			<point x="306" y="670"/>
			<point x="306" y="544" type="curve" smooth="yes"/>
			<point x="306" y="418"/>
			<point x="272" y="358"/>
			<point x="168" y="358" type="curve" smooth="yes"/>
			<point name=".hr01" x="64" y="358"/>
			<point x="30" y="418"/>
		</contour>
		<contour>
			<point x="101" y="544" type="curve" smooth="yes"/>
			<point x="101" y="472"/>
			<point x="101" y="420"/>
			<point x="168" y="420" type="curve" smooth="yes"/>
			<point x="235" y="420"/>
			<point x="235" y="472"/>
			<point x="235" y="544" type="curve" smooth="yes"/>
			<point x="235" y="616"/>
			<point x="235" y="668"/>
			<point x="168" y="668" type="curve" smooth="yes"/>
			<point x="101" y="668"/>
			<point x="101" y="616"/>
		</contour>
		<contour>
			<point x="201" y="0" type="line"/>
			<point x="110" y="0" type="line"/>
			<point x="521" y="700" type="line"/>
			<point x="608" y="700" type="line"/>
		</contour>
		<contour>
			<point x="734" y="176" type="curve" smooth="yes"/>
			<point x="734" y="302"/>
			<point x="768" y="362"/>
			<point x="872" y="362" type="curve" smooth="yes"/>
			<point x="976" y="362"/>
			<point x="1010" y="302"/>
			<point name=".hr02" x="1010" y="176" type="curve" smooth="yes"/>
			<point x="1010" y="50"/>
			<point x="976" y="-10"/>
			<point x="872" y="-10" type="curve" smooth="yes"/>
			<point x="768" y="-10"/>
			<point x="734" y="50"/>
		</contour>
		<contour>
			<point x="805" y="176" type="curve" smooth="yes"/>
			<point x="805" y="104"/>
			<point x="805" y="52"/>
			<point x="872" y="52" type="curve" smooth="yes"/>
			<point x="939" y="52"/>
			<point x="939" y="104"/>
			<point x="939" y="176" type="curve" smooth="yes"/>
			<point x="939" y="248"/>
			<point x="939" y="300"/>
			<point x="872" y="300" type="curve" smooth="yes"/>
			<point x="805" y="300"/>
			<point x="805" y="248"/>
		</contour>
	</outline>
</glyph>
<glyph name="guilsinglleft" format="2">
	<unicode hex="2039"/>
	<advance width="296"/>
	<outline>
		<contour>
			<point x="177" y="31" type="line"/>
			<point x="39" y="230" type="line"/>
			<point x="177" y="428" type="line"/>
			<point x="241" y="428" type="line"/>
			<point x="128" y="230" type="line"/>
			<point x="241" y="31" type="line"/>
		</contour>
	</outline>
</glyph>
<glyph name="fi" format="2">
	<unicode hex="FB01"/>
	<advance width="439"/>
	<outline>
		<contour>
			<point x="115" y="380" type="line"/>
			<point x="50" y="380" type="line"/>
			<point x="50" y="460" type="line"/>
			<point x="115" y="460" type="line"/>
			<point x="115" y="500" type="line" smooth="yes"/>
			<point x="115" y="642"/>
			<point x="126" y="692"/>
			<point x="277" y="700" type="curve"/>
			<point x="311" y="700" type="line"/>
			<point x="311" y="635" type="line"/>
			<point x="277" y="635" type="line" smooth="yes"/>
			<point x="208" y="635"/>
			<point x="195" y="606"/>
			<point x="195" y="500" type="curve" smooth="yes"/>
			<point x="195" y="460" type="line"/>
			<point x="389" y="460" type="line"/>
			<point x="389" y="0" type="line"/>
			<point x="309" y="0" type="line"/>
			<point x="309" y="127"/>
			<point x="309" y="253"/>
			<point x="309" y="380" type="curve"/>
			<point x="195" y="380" type="line"/>
			<point x="195" y="0" type="line"/>
			<point x="115" y="0" type="line"/>
		</contour>
	</outline>
</glyph>
<glyph name="a.sc" format="2">
	<advance width="450"/>
	<outline>
		<contour>
			<point x="279" y="226" type="line"/>
			<point x="227" y="382" type="line"/>
			<point x="173" y="226" type="line"/>
		</contour>
		<contour>
			<point x="156" y="161" type="line"/>
			<point x="102" y="0" type="line"/>
			<point x="20" y="0" type="line"/>
			<point x="175" y="460" type="line"/>
			<point x="276" y="460" type="line"/>
			<point x="431" y="0" type="line"/>
			<point x="351" y="0" type="line"/>
			<point x="296" y="161" type="line"/>
		</contour>
	</outline>
</glyph>
<glyph name="c.sc" format="2">
	<advance width="466"/>
	<outline>
		<contour>
			<point x="33" y="230" type="curve" smooth="yes"/>
			<point x="33" y="368"/>
			<point x="103" y="470"/>
			<point x="237" y="470" type="curve" smooth="yes"/>
			<point x="348" y="470"/>
			<point x="409" y="408"/>
			<point x="434" y="310" type="curve"/>
			<point x="355" y="310" type="line"/>
			<point x="339" y="366"/>
			<point x="307" y="402"/>
			<point x="237" y="402" type="curve" smooth="yes"/>
			<point x="146" y="402"/>
			<point x="113" y="320"/>
			<point x="113" y="230" type="curve" smooth="yes"/>
			<point x="113" y="145"/>
			<point x="140" y="59"/>
			<point x="237" y="59" type="curve" smooth="yes"/>
			<point x="291" y="59"/>
			<point x="322" y="89"/>
			<point x="342" y="127" type="curve"/>
			<point x="425" y="127" type="line"/>
			<point x="400" y="42"/>
			<point x="338" y="-10"/>
			<point x="241" y="-10" type="curve" smooth="yes"/>
			<point x="100" y="-10"/>
			<point x="33" y="90"/>
		</contour>
	</outline>
</glyph>
<glyph name="four.numr" format="2">
	<advance width="355"/>
	<outline>
		<contour>
			<point x="246" y="639" type="line"/>
			<point x="240" y="639" type="line"/>
			<point x="93" y="405" type="line"/>
			<point x="246" y="405" type="line"/>
		</contour>
		<contour>
			<point x="246" y="230" type="line"/>
			<point x="246" y="344" type="line"/>
			<point x="33" y="344" type="line"/>
			<point x="33" y="397" type="line"/>
			<point x="212" y="697" type="line"/>
			<point x="314" y="697" type="line"/>
			<point x="314" y="405" type="line"/>
			<point x="354" y="405" type="line"/>
			<point x="354" y="344" type="line"/>
			<point x="314" y="344" type="line"/>
			<point x="314" y="230" type="line"/>
		</contour>
	</outline>
</glyph>
<glyph name="three.subscript" format="2">
	<advance width="375"/>
	<outline>
		<contour>
			<point x="92" y="43" type="curve"/>
			<point x="27" y="43" type="line"/>
			<point x="27" y="120"/>
			<point x="96" y="152"/>
			<point x="165" y="152" type="curve" smooth="yes"/>
			<point x="255" y="152"/>
			<point x="311" y="112"/>
			<point x="311" y="33" type="curve" smooth="yes"/>
			<point x="311" y="-8"/>
			<point x="286" y="-46"/>
			<point x="241" y="-66" type="curve"/>
			<point x="300" y="-75"/>
			<point name=".hr01" x="349" y="-106"/>
			<point x="349" y="-189" type="curve" smooth="yes"/>
			<point x="349" y="-287"/>
			<point x="274" y="-329"/>
			<point x="180" y="-329" type="curve" smooth="yes"/>
			<point x="106" y="-329"/>
			<point x="27" y="-297"/>
			<point x="27" y="-213" type="curve"/>
			<point x="92" y="-213" type="line"/>
			<point x="92" y="-260"/>
			<point x="160" y="-269"/>
			<point x="180" y="-269" type="curve" smooth="yes"/>
			<point x="229" y="-269"/>
			<point x="281" y="-249"/>
			<point x="281" y="-188" type="curve" smooth="yes"/>
			<point x="281" y="-117"/>
			<point x="230" y="-102"/>
			<point x="169" y="-102" type="curve" smooth="yes"/>
			<point x="136" y="-102" type="line"/>
			<point x="136" y="-41" type="line"/>
			<point x="169" y="-41" type="line" smooth="yes"/>
			<point x="226" y="-41"/>
			<point name=".hr02" x="243" y="-27"/>
			<point x="243" y="31" type="curve" smooth="yes"/>
			<point x="243" y="69"/>
			<point x="212" y="92"/>
			<point x="166" y="92" type="curve" smooth="yes"/>
			<point x="127" y="92"/>
			<point x="92" y="74"/>
		</contour>
	</outline>
</glyph>
<glyph name="uni0434.loclBGR" format="2">
	<advance width="501"/>
	<outline>
		<contour>
			<point x="115" y="230" type="curve" smooth="yes"/>
			<point x="115" y="115"/>
			<point x="154" y="55"/>
			<point x="245" y="55" type="curve" smooth="yes"/>
			<point x="343" y="55"/>
			<point x="376" y="176"/>
			<point x="376" y="230" type="curve" smooth="yes"/>
			<point x="376" y="359"/>
			<point x="305" y="405"/>
			<point x="245" y="405" type="curve" smooth="yes"/>
			<point x="164" y="405"/>
			<point x="115" y="337"/>
		</contour>
		<contour>
			<point x="35" y="230" type="curve" smooth="yes"/>
			<point x="35" y="350"/>
			<point x="99" y="470"/>
			<point x="235" y="470" type="curve" smooth="yes"/>
			<point x="293" y="470"/>
			<point x="356" y="430"/>
			<point x="376" y="390" type="curve"/>
			<point x="396" y="460" type="line"/>
			<point x="456" y="460" type="line"/>
			<point x="456" y="37" type="line" smooth="yes"/>
			<point x="456" y="-141"/>
			<point x="376" y="-200"/>
			<point x="262" y="-200" type="curve" smooth="yes"/>
			<point x="174" y="-200"/>
			<point x="92" y="-157"/>
			<point x="81" y="-60" type="curve"/>
			<point name=".hr01" x="149" y="-60" type="line"/>
			<point x="163" y="-126"/>
			<point x="215" y="-135"/>
			<point x="259" y="-135" type="curve" smooth="yes"/>
			<point x="364" y="-135"/>
			<point x="376" y="-47"/>
			<point x="376" y="90" type="curve"/>
			<point x="335" y="15"/>
			<point x="283" y="-5"/>
			<point x="204" y="-5" type="curve" smooth="yes"/>
			<point x="101" y="-5"/>
			<point x="35" y="120"/>
		</contour>
	</outline>
</glyph>
<glyph name="uni0436.sc" format="2">
	<advance width="652"/>
	<outline>
		<contour>
			<point x="122" y="0" type="line"/>
			<point x="20" y="0" type="line"/>
			<point x="167" y="230" type="line"/>
			<point x="36" y="460" type="line"/>
			<point x="128" y="460" type="line"/>
			<point x="240" y="260" type="line"/>
			<point x="286" y="247" type="line"/>
			<point x="286" y="460" type="line"/>
			<point x="366" y="460" type="line"/>
			<point x="366" y="247" type="line"/>
			<point x="412" y="260" type="line"/>
			<point x="523" y="460" type="line"/>
			<point x="615" y="460" type="line"/>
			<point x="484" y="230" type="line"/>
			<point x="632" y="0" type="line"/>
			<point x="530" y="0" type="line"/>
			<point x="412" y="199" type="line"/>
			<point x="366" y="186" type="line"/>
			<point x="366" y="0" type="line"/>
			<point x="286" y="0" type="line"/>
			<point x="286" y="186" type="line"/>
			<point x="240" y="199" type="line"/>
		</contour>
	</outline>
</glyph>
<glyph name="uni043F.loclBGR" format="2">
	<advance width="536"/>
	<outline>
		<contour>
			<point x="308.75" y="470" type="curve" smooth="yes"/>
			<point x="410.5" y="470"/>
			<point x="456.25" y="395.75"/>
			<point x="456.25" y="310" type="curve" smooth="yes"/>
			<point x="456.25" y="0" type="line"/>
			<point x="396.25" y="0" type="line"/>
			<point x="396.25" y="300" type="line" smooth="yes"/>
			<point x="396.25" y="373.25"/>
			<point x="353.5" y="431.75"/>
			<point x="281.5" y="431.75" type="curve" smooth="yes"/>
			<point x="211.25" y="431.75"/>
			<point x="143" y="367.75"/>
			<point x="140" y="300.5" type="curve"/>
			<point x="140" y="0" type="line"/>
			<point x="80" y="0" type="line"/>
			<point x="80" y="460" type="line"/>
			<point x="132" y="460" type="line"/>
			<point x="138.25" y="364.5" type="line"/>
			<point x="175.5" y="426.5"/>
			<point x="238.25" y="470"/>
		</contour>
	</outline>
</glyph>
<glyph name="uni0448.loclBGR" format="2">
	<advance width="765"/>
	<outline>
		<contour>
			<point x="45" y="145" type="curve" smooth="yes"/>
			<point x="45" y="460" type="line"/>
			<point x="125" y="460" type="line"/>
			<point x="125" y="170" type="line" smooth="yes"/>
			<point x="125" y="128"/>
			<point x="127" y="55"/>
			<point x="185" y="55" type="curve" smooth="yes"/>
			<point x="254" y="55"/>
			<point x="342" y="118"/>
			<point x="342" y="240" type="curve" smooth="yes"/>
			<point x="342" y="460" type="line"/>
			<point x="423" y="460" type="line"/>
			<point x="423" y="190" type="line" smooth="yes"/>
			<point x="423" y="137"/>
			<point x="423" y="93"/>
			<point x="443" y="71" type="curve" smooth="yes"/>
			<point x="457" y="55"/>
			<point name=".hr01" x="474" y="48"/>
			<point x="493" y="48" type="curve" smooth="yes"/>
			<point x="559" y="48"/>
			<point x="640" y="140"/>
			<point x="640" y="230" type="curve" smooth="yes"/>
			<point x="640" y="460" type="line"/>
			<point x="720" y="460" type="line"/>
			<point x="720" y="0" type="line"/>
			<point x="640" y="0" type="line"/>
			<point x="640" y="90" type="line"/>
			<point x="602" y="43"/>
			<point x="534" y="-10"/>
			<point x="468" y="-10" type="curve" smooth="yes"/>
			<point x="387" y="-10"/>
			<point x="354" y="23"/>
			<point x="342" y="90" type="curve"/>
			<point x="305" y="44"/>
			<point x="240" y="-10"/>
			<point x="173" y="-10" type="curve" smooth="yes"/>
			<point x="64" y="-10"/>
			<point x="45" y="70"/>
		</contour>
	</outline>
</glyph>
<glyph name="zero.superior" format="2">
	<advance width="439"/>
	<outline>
		<contour>
			<point x="70" y="648" type="curve" smooth="yes"/>
			<point x="70" y="788"/>
			<point x="99" y="888"/>
			<point x="232" y="888" type="curve" smooth="yes"/>
			<point x="365" y="888"/>
			<point x="393" y="788"/>
			<point x="393" y="648" type="curve" smooth="yes"/>
			<point x="393" y="508"/>
			<point x="365" y="407"/>
			<point x="232" y="407" type="curve" smooth="yes"/>
			<point x="99" y="407"/>
			<point x="70" y="508"/>
		</contour>
		<contour>
			<point x="138" y="648" type="curve" smooth="yes"/>
			<point x="138" y="551"/>
			<point x="138" y="467"/>
			<point x="232" y="467" type="curve" smooth="yes"/>
			<point x="326" y="467"/>
			<point x="325" y="551"/>
			<point x="325" y="648" type="curve" smooth="yes"/>
			<point x="325" y="745"/>
			<point x="326" y="828"/>
			<point x="232" y="828" type="curve" smooth="yes"/>
			<point x="138" y="828"/>
			<point x="138" y="745"/>
		</contour>
	</outline>
</glyph>
